<?xml version="1.0" encoding="utf-8"?>
<!-- Generator: Adobe Illustrator 27.5.0, SVG Export Plug-In . SVG Version: 6.00 Build 0)  -->
<svg version="1.1" xmlns="http://www.w3.org/2000/svg" xmlns:xlink="http://www.w3.org/1999/xlink" x="0px" y="0px"
	 viewBox="0 0 2475 1650" style="enable-background:new 0 0 2475 1650;" xml:space="preserve">
<g id="Background">
	<rect style="fill:#FFFFFF;" width="2475" height="1650"/>
</g>
<g id="Illustration">
	<g>
		<linearGradient id="SVGID_1_" gradientUnits="userSpaceOnUse" x1="3818.4309" y1="842.2628" x2="743.006" y2="803.8175">
			<stop  offset="0" style="stop-color:#DAE3FE"/>
			<stop  offset="1" style="stop-color:#E9EFFD"/>
		</linearGradient>
		<path style="fill:url(#SVGID_1_);" d="M2222.943,439.121C2136.6,314.928,1983.056,218.15,1819.712,203
			c-238.249-22.096-277.436,149.862-534.275,187.113C898.937,446.171,711.339,96.85,426.675,198.892
			c-154.563,55.405-277.837,222.402-259.917,351.565c16.43,118.415,142.558,140.321,161.687,274.427
			c9.24,64.779,4.559,130.226-23.266,190.029c-34.002,73.079-96.293,138.106-111.89,218.956
			c-22.622,117.262,111.466,173.583,202.391,179.479c105.635,6.848,208.519-29.756,313.434-35.304
			c143.745-7.601,287.757,4.163,430.494,20.574c77.554,8.917,154.788,19.965,232.14,30.492
			c99.001,13.474,195.111-5.872,292.06-24.494c127.518-24.492,258.056-32.055,387.688-26.113
			c59.422,2.725,156.379,27.78,205.869-16.713c56.721-50.995,23.801-150.478,12.276-212.947
			c-26.341-142.784,37.106-243.144,42.322-379.665C2313.686,724.09,2319.279,577.685,2222.943,439.121z"/>
		<g>
			<g>
				<g>
					<path style="fill:#BDD0FB;" d="M1841.952,870.906c-10.851-22.608-18.614-46.274-20.424-72.042
						c-4.562-64.926,33.181-124.716,60.908-180.617c25.484-51.377,44.424-127.934-41.564-121.121
						c-68.505,5.428-149.044,73.699-158.233,144.889c-10.874,84.256,30.144,190.507-18.488,267.043
						c-68.034,107.07-117.108,82.533-117.108,263.215c0,77.204,42.763,119.79,91.745,143.246
						c77.311,37.023,169.497,22.063,231.094-37.549c54.418-52.663,86.774-128.371,75.831-204.378
						C1934.66,996.827,1874.451,938.612,1841.952,870.906z"/>
					<path style="fill:#91B3FA;" d="M1784.473,1452.541c-1.397,0-2.669-0.944-3.024-2.362
						c-42.63-170.162-65.837-324.422-68.972-458.49c-2.511-107.387,7.775-202.161,30.572-281.694
						c20.332-70.934,47.077-116.404,65.933-142.055c20.573-27.987,36.193-38.983,36.848-39.438c1.415-0.979,3.355-0.63,4.337,0.782
						c0.983,1.414,0.635,3.357-0.778,4.342c-0.619,0.431-62.308,44.7-100.58,178.916c-22.51,78.939-32.629,173.057-30.077,279.736
						c3.192,133.432,26.329,286.983,68.769,456.386c0.418,1.672-0.597,3.365-2.268,3.784
						C1784.979,1452.511,1784.724,1452.541,1784.473,1452.541z"/>
				</g>
				<path style="fill:#BDD0FB;" d="M1910.213,680.431c-3.313-0.898-6.952-1.179-10.827-0.733
					c-21.43,2.464-30.231,25.064-36.527,42.734c-5.392,15.132-11.746,33.499-8.562,49.892c3.443,17.724,22.265,32.182,35.923,14.187
					c15.525-20.455,38.82-51.86,38.961-78.966C1929.252,694.07,1921.687,683.543,1910.213,680.431z"/>
			</g>
			<g>
				<path style="fill:#BDD0FB;" d="M2146.816,1159.881c9.702-63.914-13.527-137.289-25.121-204.877
					c-6.13-35.735-8.965-71.199-3.225-107.202c5.706-35.795,22.525-74.509,7.018-110.172
					c-31.248-71.847-105.532-39.15-148.083,14.938c-49.378,62.766-62.876,165.33-81.631,244.308
					c-11.306,47.612-28.338,96.447-34.302,144.965c-9.88,80.374,8.293,136.174,46.741,173.858
					c36.877,36.145,93.04,43.639,138.153,18.516C2087.118,1311.517,2131.165,1262.987,2146.816,1159.881z"/>
				<path style="fill:#91B3FA;" d="M1976.875,1457.091c-1.495,0-2.816-1.078-3.072-2.602c-0.163-0.969-16.322-98.483-16.745-233.04
					c-0.391-124.234,12.93-306.415,78.61-468.817c0.648-1.598,2.463-2.364,4.062-1.722c1.597,0.646,2.368,2.464,1.722,4.062
					c-65.285,161.425-78.535,342.695-78.156,466.338c0.412,134.074,16.496,231.179,16.658,232.144
					c0.286,1.7-0.859,3.308-2.558,3.595C1977.221,1457.076,1977.048,1457.091,1976.875,1457.091z"/>
			</g>
		</g>
		<g>
			<g>
				<path style="fill:#BDD0FB;" d="M437.431,430.434c-16.52,6.905-32.67,17.709-38.063,29.386
					c-24.327,52.675,28.581,118.328,49.137,163.126c35.315,76.961,53.384,162.584,42.403,247.119
					c-11.899,91.598-15.995,181.128,3.767,272.287c10.181,46.962,28.522,96.141,62.775,131.351
					c64.727,66.521,208.24,14.092,228.976-68.822c16.538-66.126,1.204-135.14-21.245-197.792
					c-37.765-105.397-92.233-203.804-130.659-308.915c-29.384-80.377-35.631-245.079-135.941-272.615
					C480.237,420.522,454.957,423.109,437.431,430.434z"/>
				<path style="fill:#91B3FA;" d="M672.122,1432.178c-0.136,0-0.272-0.008-0.41-0.026c-1.708-0.225-2.911-1.791-2.687-3.499
					c16.509-125.621,15.357-254.544-3.422-383.189c-15.026-102.929-41.306-205.91-78.112-306.086
					C537.358,602.929,476.784,499.14,451.758,463.323c-0.987-1.414-0.642-3.357,0.77-4.344c1.415-0.985,3.36-0.64,4.344,0.77
					c0.728,1.042,73.545,106.196,136.474,277.478c36.954,100.579,63.341,203.982,78.429,307.337
					c18.863,129.212,20.018,258.712,3.435,384.901C675.005,1431.035,673.663,1432.178,672.122,1432.178z"/>
			</g>
			<g>
				<path style="fill:#91B3FA;" d="M570.46,1187.326c-14.68-44.704-53.858-84.745-83.579-124.846
					c-15.714-21.202-29.198-43.31-37.289-68.581c-8.044-25.127-9.828-55.798-31.609-73.874
					c-43.886-36.415-81.409,9.212-91.294,58.318c-11.471,56.985,13.431,128.044,27.175,185.506
					c8.285,34.641,13.253,71.957,25.307,105.433c19.968,55.456,50.092,85.739,87.44,97.597
					c35.822,11.374,74.768-2.195,95.826-33.326C581.46,1305.431,594.142,1259.443,570.46,1187.326z"/>
				<path style="fill:#7D97F4;" d="M556.614,1437.282c-0.958,0-1.902-0.439-2.514-1.269c-0.424-0.577-42.976-58.675-87.455-146.008
					c-41.073-80.647-92.271-203.479-102.93-330.678c-0.144-1.716,1.131-3.225,2.849-3.37c1.702-0.126,3.224,1.131,3.368,2.849
					c10.574,126.189,61.453,248.217,102.273,328.364c44.25,86.884,86.499,144.568,86.92,145.141
					c1.022,1.387,0.725,3.341-0.662,4.363C557.905,1437.085,557.257,1437.282,556.614,1437.282z"/>
			</g>
		</g>
		<g>
			<g>
				
					<linearGradient id="SVGID_00000109739592908663589390000001391928133638959799_" gradientUnits="userSpaceOnUse" x1="1562.1976" y1="361.7935" x2="505.7858" y2="1749.361" gradientTransform="matrix(0.9998 0.0208 -0.0208 0.9998 67.8808 -15.8429)">
					<stop  offset="0" style="stop-color:#09005D"/>
					<stop  offset="1" style="stop-color:#1A0F91"/>
				</linearGradient>
				<path style="fill:url(#SVGID_00000109739592908663589390000001391928133638959799_);" d="M865.155,342.213l666.309,13.847
					c36.76,0.764,66.472,30.201,67.579,66.952l29.107,967.045c0.866,28.759-22.253,52.522-51.025,52.447l-763.962-1.991
					c-27.035-0.071-48.755-22.304-48.193-49.333l20.205-972.243C786.074,375.664,821.883,341.313,865.155,342.213z"/>
				<path style="fill:#91B3FA;" d="M925.951,1426.614c-0.269,0.106-0.564,0.16-0.871,0.151l-85.428-2.881
					c-28.758-0.969-51.668-25.164-51.071-53.932l2.682-129.014c0.027-1.205,1.024-2.158,2.226-2.135
					c1.203,0.025,2.159,1.022,2.134,2.226l-2.682,129.014c-0.549,26.395,20.471,48.593,46.857,49.483l85.428,2.881
					c1.203,0.041,2.146,1.05,2.105,2.253C927.303,1425.553,926.736,1426.305,925.951,1426.614z"/>
				<path style="fill:#91B3FA;" d="M795.072,1203.048c-0.26,0.102-0.546,0.157-0.843,0.151c-1.203-0.025-2.159-1.022-2.135-2.225
					l0.433-20.893c0.027-1.205,1.023-2.16,2.226-2.135c1.203,0.025,2.159,1.022,2.134,2.225l-0.433,20.893
					C796.435,1201.971,795.865,1202.735,795.072,1203.048z"/>
				<g>
					
						<linearGradient id="SVGID_00000058590002731017859020000012203186604421986176_" gradientUnits="userSpaceOnUse" x1="1111.5621" y1="1269.6731" x2="1027.5535" y2="1608.7075">
						<stop  offset="0" style="stop-color:#FE7062"/>
						<stop  offset="1" style="stop-color:#FF928E"/>
					</linearGradient>
					<path style="fill:url(#SVGID_00000058590002731017859020000012203186604421986176_);" d="M867.367,334.425
						c90.734,14.23,402.833,58.896,661.942,44.413c11.816-0.66,21.869,8.491,22.251,20.32l31.405,971.4
						c0.431,13.319-9.966,24.486-23.282,24.996c-108.936,4.178-557.537,19.756-717.013-0.305
						c-9.706-1.221-16.919-9.564-16.774-19.346l15.185-1019.315C841.288,342.741,853.686,332.279,867.367,334.425z"/>
					
						<linearGradient id="SVGID_00000125596974296271751330000005048452195675032496_" gradientUnits="userSpaceOnUse" x1="1614.1707" y1="-168.6555" x2="1485.1575" y2="161.3779">
						<stop  offset="0" style="stop-color:#FF928E"/>
						<stop  offset="1" style="stop-color:#FEB3B1"/>
					</linearGradient>
					<path style="fill:url(#SVGID_00000125596974296271751330000005048452195675032496_);" d="M876.59,359.798
						c87.317,13.694,387.664,56.678,637.016,42.741c11.371-0.636,21.046,8.171,21.413,19.554l30.223,934.822
						c0.414,12.818-9.59,23.564-22.405,24.055c-104.834,4.02-536.542,19.012-690.013-0.294c-9.341-1.175-16.283-9.204-16.142-18.617
						l14.613-980.932C851.493,367.801,863.424,357.733,876.59,359.798z"/>
					<g style="opacity:0.6;">
						<path style="fill:#FFFFFF;" d="M1500.561,741.973c2.2,0.046,3.918-1.715,3.819-3.913l-0.247-5.458
							c-0.099-2.198-1.98-4.048-4.179-4.111l-570.508-16.356c-2.199-0.063-2.907,1.317-1.572,3.066l9.1,11.929
							c1.334,1.749,4.226,3.218,6.425,3.263L1500.561,741.973z"/>
					</g>
					<g style="opacity:0.6;">
						<path style="fill:#FFFFFF;" d="M928.67,749.456c-2.199-0.063-2.907,1.317-1.572,3.066l9.1,11.93
							c1.334,1.749,4.226,3.218,6.425,3.263l557.162,11.579c2.2,0.046,3.918-1.715,3.819-3.913l-0.247-5.458
							c-0.099-2.198-1.98-4.047-4.179-4.111L928.67,749.456z"/>
					</g>
					<g style="opacity:0.6;">
						<path style="fill:#FFFFFF;" d="M1500.561,642.928c2.2,0.046,3.918-1.715,3.819-3.913l-0.247-5.458
							c-0.099-2.198-1.98-4.047-4.179-4.111L929.446,613.09c-2.199-0.063-2.907,1.316-1.572,3.066l9.1,11.929
							c1.334,1.749,4.226,3.218,6.425,3.263L1500.561,642.928z"/>
					</g>
					<g style="opacity:0.6;">
						<path style="fill:#FFFFFF;" d="M928.67,650.411c-2.199-0.063-2.907,1.316-1.572,3.066l9.1,11.93
							c1.334,1.749,4.226,3.218,6.425,3.263l557.162,11.579c2.2,0.046,3.918-1.715,3.819-3.913l-0.247-5.458
							c-0.099-2.198-1.98-4.048-4.179-4.111L928.67,650.411z"/>
					</g>
					<g>
						<g style="opacity:0.6;">
							<path style="fill:#FFFFFF;" d="M1045.732,854.769c-2.199-0.052-3.576,1.655-3.059,3.793l3.89,16.098
								c0.517,2.138,2.74,3.907,4.939,3.929l438.64,4.526c2.2,0.023,3.998-1.759,3.995-3.959l-0.01-9.734
								c-0.002-2.2-1.804-4.043-4.003-4.095L1045.732,854.769z"/>
						</g>
						<path style="fill:#FFFFFF;" d="M1006.131,996.508c-1.633,0.643-3.439,0.976-5.324,0.918l-47.506-1.443
							c-6.968-0.213-12.622-5.139-13.152-11.46L936.8,944.57c-0.204-2.443,0.601-4.835,2.268-6.739
							c1.859-2.116,4.627-3.407,7.596-3.555l0,0c4.005-0.19,9.52-0.545,15.589-0.934c12.609-0.812,28.301-1.821,37.125-1.749
							c6.496,0.055,12.028,4.108,13.454,9.856c2.295,9.246,1.719,26.594,0.864,45.068
							C1013.487,991.02,1010.403,994.826,1006.131,996.508z M944.672,939.099c-0.907,0.357-1.707,0.905-2.324,1.608
							c-0.881,1.003-1.307,2.247-1.203,3.498l3.348,39.953c0.345,4.113,4.188,7.323,8.94,7.467l47.506,1.443
							c4.455,0.134,8.221-2.891,8.4-6.753c0.84-18.138,1.415-35.137-0.739-43.817c-0.932-3.754-4.826-6.506-9.258-6.543
							c-8.667-0.073-24.272,0.93-36.811,1.737c-6.096,0.393-11.637,0.749-15.66,0.942l-0.001-0.002
							C946.1,938.669,945.355,938.83,944.672,939.099z"/>
						<path style="opacity:0.6;fill:#FFFFFF;" d="M951.88,942.498c9.996-0.475,31.736-2.227,42.029-2.141
							c4.361,0.036,8.13,2.75,9.074,6.552c1.833,7.384,1.266,22.014,0.641,35.515c-0.187,4.043-3.97,7.195-8.506,7.058
							l-37.963-1.154c-4.669-0.142-8.479-3.406-8.827-7.562l-2.676-31.928C945.374,945.535,948.175,942.674,951.88,942.498z"/>
						<path style="fill:#FFFFFF;" d="M1006.131,895.641c-1.633,0.643-3.439,0.976-5.324,0.918l-47.506-1.443
							c-6.968-0.213-12.622-5.139-13.152-11.46l-3.348-39.953c-0.204-2.443,0.601-4.835,2.268-6.739
							c1.859-2.116,4.627-3.407,7.596-3.555l0,0c4.005-0.19,9.52-0.545,15.589-0.934c12.609-0.811,28.301-1.821,37.125-1.749
							c6.496,0.055,12.028,4.108,13.454,9.856c2.295,9.246,1.719,26.594,0.864,45.067
							C1013.487,890.153,1010.403,893.959,1006.131,895.641z M944.672,838.232c-0.907,0.357-1.707,0.905-2.324,1.608
							c-0.881,1.004-1.307,2.247-1.203,3.498l3.348,39.953c0.345,4.113,4.188,7.323,8.94,7.467l47.506,1.443
							c4.455,0.134,8.221-2.891,8.4-6.753c0.84-18.138,1.415-35.138-0.739-43.817c-0.932-3.754-4.826-6.506-9.258-6.544
							c-8.667-0.073-24.272,0.93-36.811,1.737c-6.096,0.393-11.637,0.749-15.66,0.942l-0.001-0.002
							C946.1,837.802,945.355,837.963,944.672,838.232z"/>
						<path style="opacity:0.6;fill:#FFFFFF;" d="M951.88,841.631c9.996-0.475,31.736-2.227,42.029-2.141
							c4.361,0.036,8.13,2.75,9.074,6.552c1.833,7.384,1.266,22.014,0.641,35.515c-0.187,4.043-3.97,7.195-8.506,7.057
							l-37.963-1.154c-4.669-0.142-8.479-3.406-8.827-7.562l-2.676-31.928C945.374,844.668,948.175,841.807,951.88,841.631z"/>
						<g style="opacity:0.6;">
							<path style="fill:#FFFFFF;" d="M1043.615,956.606c-2.199-0.052-3.576,1.655-3.059,3.793l3.89,16.098
								c0.517,2.138,2.74,3.907,4.939,3.929l438.64,4.525c2.2,0.023,3.998-1.759,3.995-3.959l-0.01-9.734
								c-0.002-2.2-1.804-4.043-4.003-4.095L1043.615,956.606z"/>
						</g>
						<path style="fill:#FFFFFF;" d="M1004.013,1098.347c-1.631,0.642-3.438,0.974-5.322,0.917l-47.506-1.445
							c-6.967-0.209-12.622-5.135-13.153-11.458l-3.349-39.955c-0.204-2.443,0.601-4.835,2.268-6.739
							c1.859-2.116,4.629-3.413,7.596-3.553c4.015-0.192,9.549-0.547,15.636-0.939c13.249-0.851,28.265-1.816,37.079-1.744
							c6.495,0.056,12.026,4.106,13.453,9.855c2.297,9.252,1.718,26.596,0.863,45.067
							C1011.371,1092.856,1008.286,1096.665,1004.013,1098.347z M942.555,1040.935c-0.907,0.357-1.707,0.906-2.324,1.608
							c-0.88,1.003-1.307,2.247-1.203,3.498l3.349,39.955c0.345,4.113,4.188,7.322,8.939,7.465l47.507,1.445
							c4.452,0.132,8.22-2.896,8.4-6.755c0.84-18.136,1.416-35.134-0.739-43.817c-0.932-3.754-4.825-6.504-9.257-6.542
							c-8.656-0.072-24.241,0.929-36.764,1.734c-6.115,0.394-11.674,0.75-15.709,0.943l-0.001-0.002
							C943.983,1040.506,943.238,1040.666,942.555,1040.935z"/>
						<path style="opacity:0.6;fill:#FFFFFF;" d="M949.764,1044.335c9.996-0.475,31.737-2.227,42.029-2.141
							c4.361,0.036,8.13,2.75,9.074,6.552c1.833,7.384,1.266,22.014,0.64,35.515c-0.187,4.044-3.97,7.196-8.506,7.058l-37.963-1.154
							c-4.669-0.142-8.479-3.406-8.827-7.562l-2.676-31.928C943.257,1047.373,946.058,1044.511,949.764,1044.335z"/>
						<g style="opacity:0.6;">
							<path style="fill:#FFFFFF;" d="M1041.499,1058.444c-2.199-0.052-3.576,1.655-3.059,3.793l3.89,16.098
								c0.517,2.138,2.739,3.907,4.939,3.929l438.64,4.525c2.2,0.023,3.998-1.759,3.995-3.959l-0.01-9.734
								c-0.002-2.2-1.804-4.043-4.003-4.095L1041.499,1058.444z"/>
						</g>
						<path style="fill:#FFFFFF;" d="M1001.897,1200.183c-1.632,0.643-3.439,0.974-5.323,0.918l-47.505-1.443
							c-6.968-0.213-12.622-5.139-13.154-11.46l-3.348-39.953c-0.206-2.443,0.6-4.835,2.268-6.737
							c1.856-2.119,4.626-3.416,7.595-3.56l0.001,0c4.017-0.191,9.554-0.547,15.643-0.938c13.246-0.852,28.259-1.816,37.071-1.744
							c6.494,0.054,12.026,4.106,13.453,9.855c2.297,9.25,1.72,26.598,0.864,45.07
							C1009.254,1194.695,1006.168,1198.501,1001.897,1200.183z M940.441,1142.771c-0.909,0.357-1.71,0.907-2.328,1.612
							c-0.88,1.003-1.307,2.246-1.201,3.498l3.348,39.952c0.345,4.113,4.189,7.322,8.941,7.467l47.505,1.443
							c4.45,0.136,8.223-2.892,8.4-6.753c0.84-18.136,1.416-35.136-0.74-43.817c-0.933-3.755-4.826-6.508-9.257-6.544
							c-8.654-0.073-24.236,0.93-36.756,1.734c-6.118,0.393-11.68,0.75-15.716,0.943
							C941.868,1142.342,941.125,1142.501,940.441,1142.771z"/>
						<path style="opacity:0.6;fill:#FFFFFF;" d="M947.647,1146.172c9.996-0.475,31.737-2.227,42.029-2.141
							c4.361,0.036,8.13,2.75,9.074,6.552c1.833,7.384,1.266,22.014,0.641,35.515c-0.187,4.043-3.97,7.196-8.506,7.058
							l-37.963-1.154c-4.669-0.142-8.479-3.406-8.827-7.562l-2.676-31.928C941.141,1149.209,943.942,1146.348,947.647,1146.172z"/>
						<g style="opacity:0.6;">
							<path style="fill:#FFFFFF;" d="M1039.383,1160.281c-2.199-0.052-3.576,1.655-3.059,3.793l3.89,16.098
								c0.517,2.139,2.74,3.907,4.939,3.929l438.64,4.526c2.2,0.023,3.998-1.759,3.995-3.959l-0.01-9.734
								c-0.002-2.2-1.804-4.043-4.003-4.095L1039.383,1160.281z"/>
						</g>
					</g>
				</g>
				
					<linearGradient id="SVGID_00000140701375947939391660000017467574135902009518_" gradientUnits="userSpaceOnUse" x1="1253.4429" y1="110.1648" x2="946.9021" y2="513.412" gradientTransform="matrix(0.9998 0.0208 -0.0208 0.9998 67.8808 -15.8429)">
					<stop  offset="0" style="stop-color:#09005D"/>
					<stop  offset="1" style="stop-color:#1A0F91"/>
				</linearGradient>
				<path style="fill:url(#SVGID_00000140701375947939391660000017467574135902009518_);" d="M1242.372,218.283
					c-23.72-17.244-44.654-17.347-59.477-13.306c-13.521,3.686-22.501,16.48-21.512,30.46l4.912,69.477l75.462,8.28
					C1241.756,313.194,1288.89,252.101,1242.372,218.283z M1207.963,273.536c-10.411-0.216-18.675-8.831-18.459-19.242
					c0.216-10.411,8.832-18.676,19.242-18.46c10.411,0.216,18.676,8.832,18.459,19.243
					C1226.989,265.489,1218.373,273.753,1207.963,273.536z"/>
				<g>
					<path style="fill:#91B3FA;" d="M1175.292,276.104c-0.202,0.079-0.418,0.13-0.646,0.147c-1.201,0.084-2.243-0.819-2.329-2.021
						l-0.784-11.065c-0.084-1.2,0.824-2.239,2.021-2.329c1.201-0.084,2.243,0.819,2.328,2.021l0.784,11.065
						C1176.736,274.895,1176.154,275.764,1175.292,276.104z M1173.758,254.42c-0.202,0.08-0.419,0.131-0.646,0.147
						c-1.202,0.084-2.243-0.819-2.329-2.021l-0.594-8.401c-0.955-13.487,7.769-25.822,20.76-29.383
						c9.132-2.49,18.495-2.68,27.826-0.565c1.174,0.265,1.91,1.433,1.644,2.606c-0.267,1.174-1.433,1.916-2.608,1.645
						c-8.627-1.955-17.278-1.78-25.715,0.522c-10.965,2.99-18.363,13.452-17.557,24.868l0.594,8.401
						C1175.202,253.211,1174.62,254.081,1173.758,254.42z"/>
				</g>
				
					<linearGradient id="SVGID_00000155841698075556184510000003131642803708384939_" gradientUnits="userSpaceOnUse" x1="1287.0718" y1="135.7216" x2="980.5254" y2="538.9762" gradientTransform="matrix(0.9998 0.0208 -0.0208 0.9998 67.8808 -15.8429)">
					<stop  offset="0" style="stop-color:#09005D"/>
					<stop  offset="1" style="stop-color:#1A0F91"/>
				</linearGradient>
				<path style="fill:url(#SVGID_00000155841698075556184510000003131642803708384939_);" d="M1062.182,347.584l0.725-34.865
					c0.25-12.035,10.425-21.467,22.445-20.805l240.206,13.231c10.66,0.587,19.125,9.187,19.542,19.855l1.313,33.542
					L1062.182,347.584z"/>
				<path style="fill:#91B3FA;" d="M1153.541,306.662c-0.26,0.103-0.545,0.158-0.843,0.151l-10.337-0.215
					c-1.203-0.025-2.159-1.021-2.135-2.226c0.026-1.204,1.026-2.159,2.225-2.135l10.338,0.216c1.203,0.025,2.159,1.021,2.134,2.225
					C1154.904,305.585,1154.334,306.349,1153.541,306.662z"/>
				<path style="fill:#91B3FA;" d="M1076.256,337.111c-0.261,0.103-0.545,0.157-0.843,0.151c-1.203-0.025-2.159-1.022-2.135-2.225
					l0.292-14.104c0.23-11.091,9.446-19.934,20.536-19.701l38.006,0.79c1.203,0.025,2.159,1.021,2.135,2.226
					c-0.025,1.206-1.021,2.161-2.225,2.134l-38.005-0.79c-8.691-0.18-15.906,6.742-16.086,15.432l-0.292,14.104
					C1077.619,336.035,1077.05,336.799,1076.256,337.111z"/>
				
					<linearGradient id="SVGID_00000048495265977916210140000006952517263851348647_" gradientUnits="userSpaceOnUse" x1="1220.274" y1="307.9503" x2="986.2516" y2="1010.0198">
					<stop  offset="0" style="stop-color:#FE7062"/>
					<stop  offset="1" style="stop-color:#FF928E"/>
				</linearGradient>
				<path style="fill:url(#SVGID_00000048495265977916210140000006952517263851348647_);" d="M987.128,333.258l420.344,8.724
					c15.114,0.314,27.81,11.459,30.079,26.406l0.313,2.063c2.485,16.371-10.384,31.031-26.94,30.686l-431.248-8.962
					c-9.908-0.206-17.631-8.654-16.949-18.541l1.329-19.282C964.886,342.291,975.041,333.008,987.128,333.258z"/>
			</g>
			<g>
				
					<linearGradient id="SVGID_00000088825825485140902240000017929958735448365758_" gradientUnits="userSpaceOnUse" x1="1013.8068" y1="387.9461" x2="851.7903" y2="1087.0162">
					<stop  offset="0" style="stop-color:#4042E2"/>
					<stop  offset="1" style="stop-color:#4F52FF"/>
				</linearGradient>
				<path style="fill:url(#SVGID_00000088825825485140902240000017929958735448365758_);" d="M1023.911,503.303
					c0.039,11.085-3.245,19.545-9.849,25.366c-6.598,5.815-15.982,8.662-28.13,8.543l-8.889-0.087l0.039,36.613l-20.687-0.29
					v-102.34l31.034,0.065c11.843,0.025,20.877,2.719,27.087,8.086C1020.74,484.642,1023.874,492.655,1023.911,503.303z
					 M977.024,519.292l6.809,0.052c6.373,0.049,11.146-1.238,14.312-3.864c3.166-2.625,4.745-6.468,4.732-11.526
					c-0.013-5.104-1.351-8.876-4.013-11.321c-2.659-2.443-6.819-3.676-12.472-3.699l-9.401-0.039L977.024,519.292z"/>
				
					<linearGradient id="SVGID_00000089543021110711572390000009444253835069411729_" gradientUnits="userSpaceOnUse" x1="1111.911" y1="410.6826" x2="949.8945" y2="1109.7531">
					<stop  offset="0" style="stop-color:#4042E2"/>
					<stop  offset="1" style="stop-color:#4F52FF"/>
				</linearGradient>
				<path style="fill:url(#SVGID_00000089543021110711572390000009444253835069411729_);" d="M1133.448,523.423
					c0.16,17.304-3.87,30.578-12.086,39.79c-8.209,9.206-20.026,13.695-35.419,13.477c-15.337-0.217-27.104-5.012-35.319-14.366
					c-8.193-9.326-12.317-22.595-12.391-39.806c-0.073-17.181,3.937-30.262,12.037-39.273c8.106-9.02,19.792-13.519,35.089-13.49
					c15.351,0.03,27.166,4.637,35.422,13.842C1129.059,492.829,1133.287,506.101,1133.448,523.423z M1060.278,522.836
					c0.063,11.578,2.22,20.33,6.479,26.246c4.266,5.93,10.616,8.947,19.06,9.049c16.982,0.204,25.403-11.438,25.214-34.888
					c-0.189-23.44-8.722-35.172-25.55-35.239c-8.413-0.034-14.729,2.874-18.957,8.723
					C1062.297,502.571,1060.215,511.271,1060.278,522.836z"/>
				
					<linearGradient id="SVGID_00000176036519774542704560000000465820256069084038_" gradientUnits="userSpaceOnUse" x1="1207.35" y1="432.8017" x2="1045.3336" y2="1131.8711">
					<stop  offset="0" style="stop-color:#4042E2"/>
					<stop  offset="1" style="stop-color:#4F52FF"/>
				</linearGradient>
				<path style="fill:url(#SVGID_00000176036519774542704560000000465820256069084038_);" d="M1154.994,576.229l-1.082-104.704
					l21.532,0.045l0.991,86.5l41.678,0.496l0.253,18.549L1154.994,576.229z"/>
				
					<linearGradient id="SVGID_00000005225420470816628930000010969499883144326791_" gradientUnits="userSpaceOnUse" x1="1264.8229" y1="446.1215" x2="1102.8064" y2="1145.1914">
					<stop  offset="0" style="stop-color:#4042E2"/>
					<stop  offset="1" style="stop-color:#4F52FF"/>
				</linearGradient>
				<path style="fill:url(#SVGID_00000005225420470816628930000010969499883144326791_);" d="M1236.356,577.368l-1.539-105.672
					l21.931,0.046l1.664,105.934L1236.356,577.368z"/>
				
					<linearGradient id="SVGID_00000045586084833189303390000010144654353693217932_" gradientUnits="userSpaceOnUse" x1="1336.8389" y1="462.8118" x2="1174.8225" y2="1161.8815">
					<stop  offset="0" style="stop-color:#4042E2"/>
					<stop  offset="1" style="stop-color:#4F52FF"/>
				</linearGradient>
				<path style="fill:url(#SVGID_00000045586084833189303390000010144654353693217932_);" d="M1327.777,489.119
					c-8.407-0.034-14.844,3.127-19.326,9.475c-4.479,6.346-6.616,15.215-6.41,26.616c0.429,23.77,9.456,35.784,27.135,35.997
					c7.438,0.09,16.426-1.685,26.968-5.334l0.398,19.126c-8.662,3.562-18.366,5.263-29.1,5.111
					c-15.379-0.218-27.192-5.105-35.459-14.642c-8.244-9.511-12.505-23.039-12.801-40.587c-0.186-11.033,1.626-20.679,5.438-28.945
					c3.811-8.265,9.385-14.596,16.729-18.992c7.352-4.404,16.036-6.597,26.063-6.578c10.241,0.02,20.606,2.541,31.098,7.569
					l-6.872,18.362c-4.001-1.916-8.018-3.587-12.049-5.015C1335.562,489.856,1331.625,489.135,1327.777,489.119z"/>
				
					<linearGradient id="SVGID_00000087391760098214953240000003687909375369495999_" gradientUnits="userSpaceOnUse" x1="1408.7839" y1="479.4859" x2="1246.7676" y2="1178.5553">
					<stop  offset="0" style="stop-color:#4042E2"/>
					<stop  offset="1" style="stop-color:#4F52FF"/>
				</linearGradient>
				<path style="fill:url(#SVGID_00000087391760098214953240000003687909375369495999_);" d="M1411.311,516.295l21.387-44.182
					l24.698,0.052l-34.219,65.691l1.026,42.141l-22.736-0.318l-0.956-41.297l-36.899-66.414l24.47,0.052L1411.311,516.295z"/>
			</g>
		</g>
		<g>
			<path style="fill:#FFFFFF;" d="M2060.649,501.925h-364.958c-7.799,0-14.122-6.323-14.122-14.122l0,0
				c0-7.799,6.322-14.122,14.122-14.122h364.958c7.8,0,14.122,6.323,14.122,14.122l0,0
				C2074.771,495.603,2068.449,501.925,2060.649,501.925z"/>
			<path style="fill:#FFFFFF;" d="M2104.501,557.244h-364.958c-7.799,0-14.122-6.322-14.122-14.122l0,0
				c0-7.799,6.323-14.122,14.122-14.122h364.958c7.799,0,14.122,6.323,14.122,14.122l0,0
				C2118.623,550.922,2112.3,557.244,2104.501,557.244z"/>
			<path style="fill:#FFFFFF;" d="M2000.719,667.881h-261.176c-7.799,0-14.122-6.323-14.122-14.122l0,0
				c0-7.799,6.323-14.122,14.122-14.122h261.176c7.799,0,14.122,6.323,14.122,14.122l0,0
				C2014.841,661.558,2008.519,667.881,2000.719,667.881z"/>
			<path style="fill:#FFFFFF;" d="M2145.429,612.563h-364.957c-7.8,0-14.122-6.323-14.122-14.122l0,0
				c0-7.799,6.323-14.122,14.122-14.122h364.957c7.8,0,14.122,6.323,14.122,14.122l0,0
				C2159.551,606.24,2153.228,612.563,2145.429,612.563z"/>
		</g>
		<g>
			
				<linearGradient id="SVGID_00000183928586911655238110000006258615947983560579_" gradientUnits="userSpaceOnUse" x1="178.3503" y1="985.5166" x2="571.5516" y2="985.5166">
				<stop  offset="0" style="stop-color:#DAE3FE"/>
				<stop  offset="1" style="stop-color:#E9EFFD"/>
			</linearGradient>
			<path style="fill:url(#SVGID_00000183928586911655238110000006258615947983560579_);" d="M557.43,999.639H192.472
				c-7.799,0-14.122-6.322-14.122-14.122l0,0c0-7.799,6.323-14.122,14.122-14.122H557.43c7.799,0,14.122,6.323,14.122,14.122l0,0
				C571.552,993.316,565.229,999.639,557.43,999.639z"/>
			
				<linearGradient id="SVGID_00000072981492467641096980000001783442305493425054_" gradientUnits="userSpaceOnUse" x1="222.2017" y1="1040.835" x2="615.4029" y2="1040.835">
				<stop  offset="0" style="stop-color:#DAE3FE"/>
				<stop  offset="1" style="stop-color:#E9EFFD"/>
			</linearGradient>
			<path style="fill:url(#SVGID_00000072981492467641096980000001783442305493425054_);" d="M601.281,1054.957H236.324
				c-7.799,0-14.122-6.322-14.122-14.122l0,0c0-7.799,6.322-14.122,14.122-14.122h364.957c7.799,0,14.122,6.323,14.122,14.122l0,0
				C615.403,1048.635,609.08,1054.957,601.281,1054.957z"/>
			
				<linearGradient id="SVGID_00000071528492915988643860000015260659346279972008_" gradientUnits="userSpaceOnUse" x1="222.2017" y1="1151.4718" x2="511.6213" y2="1151.4718">
				<stop  offset="0" style="stop-color:#DAE3FE"/>
				<stop  offset="1" style="stop-color:#E9EFFD"/>
			</linearGradient>
			<path style="fill:url(#SVGID_00000071528492915988643860000015260659346279972008_);" d="M497.499,1165.594H236.324
				c-7.799,0-14.122-6.323-14.122-14.122l0,0c0-7.799,6.322-14.122,14.122-14.122h261.176c7.799,0,14.122,6.323,14.122,14.122l0,0
				C511.621,1159.271,505.298,1165.594,497.499,1165.594z"/>
			
				<linearGradient id="SVGID_00000160890977615402993900000017188806462063454095_" gradientUnits="userSpaceOnUse" x1="263.1296" y1="1096.1536" x2="656.3311" y2="1096.1536">
				<stop  offset="0" style="stop-color:#DAE3FE"/>
				<stop  offset="1" style="stop-color:#E9EFFD"/>
			</linearGradient>
			<path style="fill:url(#SVGID_00000160890977615402993900000017188806462063454095_);" d="M642.209,1110.276H277.252
				c-7.799,0-14.122-6.323-14.122-14.122l0,0c0-7.799,6.323-14.122,14.122-14.122h364.957c7.799,0,14.122,6.323,14.122,14.122l0,0
				C656.331,1103.953,650.008,1110.276,642.209,1110.276z"/>
		</g>
		<g>
			<g>
				
					<ellipse transform="matrix(0.7071 -0.7071 0.7071 0.7071 -268.6721 571.9391)" style="fill:#7D97F4;" cx="556.056" cy="610.286" rx="275.257" ry="275.257"/>
				
					<ellipse transform="matrix(0.7071 -0.7071 0.7071 0.7071 -268.6721 571.9393)" style="fill:#91B3FA;" cx="556.056" cy="610.286" rx="266.105" ry="266.105"/>
				<path style="fill:#BDD0FB;" d="M310.753,600.061c-0.05,0-0.101,0-0.15-0.003c-1.551-0.082-2.741-1.405-2.66-2.954
					c0.546-10.455,1.761-20.953,3.612-31.208c0.274-1.526,1.727-2.542,3.266-2.268c1.528,0.277,2.542,1.738,2.266,3.267
					c-1.806,10.021-2.994,20.284-3.529,30.5C313.479,598.897,312.238,600.061,310.753,600.061z"/>
				<path style="fill:#BDD0FB;" d="M336.626,502.556c-0.426,0-0.858-0.096-1.264-0.302c-1.387-0.7-1.942-2.392-1.242-3.775
					c42.545-84.288,127.586-136.65,221.936-136.65c15.047,0,30.126,1.356,44.819,4.036c1.528,0.277,2.541,1.741,2.262,3.27
					c-0.278,1.529-1.737,2.551-3.27,2.259c-14.361-2.616-29.1-3.942-43.811-3.942c-92.216,0-175.333,51.178-216.918,133.558
					C338.644,501.99,337.655,502.556,336.626,502.556z"/>
				
					<linearGradient id="SVGID_00000096764273231363951150000008857820895686656164_" gradientUnits="userSpaceOnUse" x1="336.6284" y1="616.0833" x2="787.0787" y2="616.0833">
					<stop  offset="0" style="stop-color:#DAE3FE"/>
					<stop  offset="1" style="stop-color:#E9EFFD"/>
				</linearGradient>
				
					<circle style="fill:url(#SVGID_00000096764273231363951150000008857820895686656164_);" cx="561.853" cy="616.083" r="225.225"/>
			</g>
			<g>
				<g>
					
						<linearGradient id="SVGID_00000039101411178688292990000011699310931850636211_" gradientUnits="userSpaceOnUse" x1="1108.7709" y1="613.0944" x2="1183.5743" y2="613.0944" gradientTransform="matrix(0.9176 0.3975 -0.3975 0.9176 -145.5453 -357.4205)">
						<stop  offset="0" style="stop-color:#E1473D"/>
						<stop  offset="1" style="stop-color:#E9605A"/>
					</linearGradient>
					<path style="fill:url(#SVGID_00000039101411178688292990000011699310931850636211_);" d="M716.998,628.985l-40.403,93.277
						c-8.21,18.955-30.23,27.663-49.184,19.453c-9.469-4.101-16.395-11.658-19.917-20.562c-3.522-8.904-3.638-19.154,0.463-28.623
						l40.403-93.277c8.21-18.955,30.23-27.664,49.184-19.453c9.468,4.101,16.395,11.658,19.917,20.561
						C720.983,609.267,721.099,619.517,716.998,628.985z"/>
					
						<linearGradient id="SVGID_00000016776148750160282950000003338241657162494128_" gradientUnits="userSpaceOnUse" x1="1108.7723" y1="657.2067" x2="1183.5743" y2="657.2067" gradientTransform="matrix(0.9176 0.3975 -0.3975 0.9176 -145.5453 -357.4205)">
						<stop  offset="0" style="stop-color:#4042E2"/>
						<stop  offset="1" style="stop-color:#4F52FF"/>
					</linearGradient>
					<path style="fill:url(#SVGID_00000016776148750160282950000003338241657162494128_);" d="M696.796,675.624l-20.201,46.639
						c-8.21,18.955-30.23,27.663-49.184,19.453c-9.469-4.101-16.395-11.658-19.917-20.562c-3.522-8.904-3.638-19.154,0.463-28.623
						l20.202-46.638L696.796,675.624z"/>
				</g>
				<g>
					
						<linearGradient id="SVGID_00000000212756978142340180000003362842862894972817_" gradientUnits="userSpaceOnUse" x1="757.3965" y1="-752.4286" x2="832.1997" y2="-752.4286" gradientTransform="matrix(0.0273 0.9996 -0.9996 0.0273 -216.5961 -269.0509)">
						<stop  offset="0" style="stop-color:#E1473D"/>
						<stop  offset="1" style="stop-color:#E9605A"/>
					</linearGradient>
					<path style="fill:url(#SVGID_00000000212756978142340180000003362842862894972817_);" d="M609.058,540.886l-101.614,2.776
						c-20.649,0.564-37.844-15.716-38.408-36.365c-0.282-10.315,3.642-19.785,10.225-26.737c6.583-6.953,15.825-11.388,26.14-11.67
						l101.613-2.776c20.649-0.564,37.843,15.716,38.407,36.365c0.282,10.315-3.642,19.785-10.225,26.738
						C628.614,536.169,619.372,540.604,609.058,540.886z"/>
					
						<linearGradient id="SVGID_00000006668566743340471680000013993985344777657743_" gradientUnits="userSpaceOnUse" x1="757.3972" y1="-708.3149" x2="832.1997" y2="-708.3149" gradientTransform="matrix(0.0273 0.9996 -0.9996 0.0273 -216.5961 -269.0509)">
						<stop  offset="0" style="stop-color:#4042E2"/>
						<stop  offset="1" style="stop-color:#4F52FF"/>
					</linearGradient>
					<path style="fill:url(#SVGID_00000006668566743340471680000013993985344777657743_);" d="M558.251,542.274l-50.807,1.388
						c-20.649,0.564-37.844-15.716-38.408-36.365c-0.282-10.315,3.642-19.785,10.225-26.737c6.583-6.953,15.825-11.388,26.14-11.67
						l50.807-1.388L558.251,542.274z"/>
				</g>
				<g>
					
						<linearGradient id="SVGID_00000003804965043006323840000003403651465108227762_" gradientUnits="userSpaceOnUse" x1="1055.6836" y1="-2429.3274" x2="1130.4854" y2="-2429.3274" gradientTransform="matrix(-0.412 0.9112 -0.9112 -0.412 -1287.5092 -1300.7788)">
						<stop  offset="0" style="stop-color:#E1473D"/>
						<stop  offset="1" style="stop-color:#E9605A"/>
					</linearGradient>
					<path style="fill:url(#SVGID_00000003804965043006323840000003403651465108227762_);" d="M506.648,751.14l-92.625-41.877
						c-18.822-8.51-27.181-30.664-18.671-49.486c4.251-9.402,11.916-16.208,20.875-19.588c8.958-3.38,19.209-3.334,28.612,0.917
						l92.624,41.877c18.822,8.51,27.181,30.664,18.671,49.486c-4.251,9.402-11.917,16.208-20.875,19.588
						C526.301,755.437,516.05,755.391,506.648,751.14z"/>
					
						<linearGradient id="SVGID_00000044176043098023780860000003189579746334889884_" gradientUnits="userSpaceOnUse" x1="1055.6849" y1="-2385.2158" x2="1130.4854" y2="-2385.2158" gradientTransform="matrix(-0.412 0.9112 -0.9112 -0.412 -1287.5092 -1300.7788)">
						<stop  offset="0" style="stop-color:#4042E2"/>
						<stop  offset="1" style="stop-color:#4F52FF"/>
					</linearGradient>
					<path style="fill:url(#SVGID_00000044176043098023780860000003189579746334889884_);" d="M460.336,730.201l-46.312-20.939
						c-18.822-8.51-27.181-30.664-18.671-49.486c4.251-9.402,11.916-16.208,20.875-19.588c8.958-3.38,19.209-3.334,28.612,0.917
						l46.312,20.938L460.336,730.201z"/>
				</g>
			</g>
		</g>
		<g>
			<g>
				<path style="fill:#7D97F4;" d="M647.975,1039.821l-0.188-112.041H545.79l0.188,105.284c0,56.441-18.153,111.385-51.779,156.717
					l-134.353,181.121c-7.02,9.463-10.809,20.932-10.809,32.715v0.08c0,30.327,24.585,54.912,54.911,54.912H791.09
					c30.327,0,54.911-24.585,54.911-54.912l0,0c0-11.831-3.822-23.346-10.895-32.83l-139.208-186.638
					C664.784,1142.512,647.975,1091.862,647.975,1039.821z"/>
				<path style="fill:#BDD0FB;" d="M403.948,1444.88c-22.708,0-41.183-18.475-41.183-41.184c0-8.854,2.879-17.568,8.107-24.615
					l134.353-181.121c35.133-47.364,54.482-105.924,54.482-164.896l-0.164-91.555h74.539l0.165,98.335
					c0,54.604,17.987,108.804,50.647,152.593l139.207,186.637c5.269,7.066,8.172,15.81,8.172,24.623
					c0,22.708-18.475,41.184-41.183,41.184H403.948z"/>
				<path style="fill:#7D97F4;" d="M650.831,947.915H542.915c-8.719,0-15.787-7.068-15.787-15.787l0,0
					c0-8.39,6.562-15.314,14.94-15.764l107.916-5.802c9.039-0.486,16.635,6.712,16.635,15.764v5.801
					C666.619,940.847,659.55,947.915,650.831,947.915z"/>
				
					<linearGradient id="SVGID_00000140703488861572781700000009214087443268420779_" gradientUnits="userSpaceOnUse" x1="711.3789" y1="1229.7194" x2="-267.089" y2="2724.3887">
					<stop  offset="0" style="stop-color:#FE7062"/>
					<stop  offset="1" style="stop-color:#FF928E"/>
				</linearGradient>
				<path style="fill:url(#SVGID_00000140703488861572781700000009214087443268420779_);" d="M370.872,1379.081
					c-5.227,7.048-8.107,15.761-8.107,24.616c0,22.707,18.475,41.183,41.183,41.183H791.09c22.708,0,41.183-18.476,41.183-41.183
					c0-8.813-2.902-17.559-8.171-24.623l-62.168-83.349h-329.23L370.872,1379.081z"/>
			</g>
			<g>
				<path style="fill:#7D97F4;" d="M437.514,1458.58L437.514,1458.58c-21.474,0-38.883-17.409-38.883-38.883v-278.253h86.27
					l-8.506,278.253C476.396,1441.172,458.988,1458.58,437.514,1458.58z"/>
				<path style="opacity:0.49;fill:#FFFFFF;" d="M437.514,1449.467c-16.415,0-29.77-13.355-29.77-29.77v-278.253h67.762
					l-8.223,278.113v0.14C467.283,1436.112,453.928,1449.467,437.514,1449.467z"/>
				<path style="fill:#7D97F4;" d="M484.871,1148.128h-87.424c-7.063,0-12.789-5.726-12.789-12.79l0,0
					c0-6.796,5.316-12.406,12.103-12.771l87.424-4.7c7.323-0.394,13.476,5.437,13.476,12.771v4.7
					C497.66,1142.402,491.934,1148.128,484.871,1148.128z"/>
				
					<linearGradient id="SVGID_00000138549017938179848520000013542340689809167537_" gradientUnits="userSpaceOnUse" x1="590.1003" y1="1010.686" x2="522.1002" y2="1160.686">
					<stop  offset="0" style="stop-color:#FF928E"/>
					<stop  offset="1" style="stop-color:#FEB3B1"/>
				</linearGradient>
				<path style="fill:url(#SVGID_00000138549017938179848520000013542340689809167537_);" d="M407.744,1268.421v151.277
					c0,16.415,13.355,29.77,29.77,29.77c16.415,0,29.769-13.355,29.769-29.77v-0.14l4.468-151.137H407.744z"/>
			</g>
			<g>
				<path style="fill:#7D97F4;" d="M318.965,1461.354L318.965,1461.354c-21.474,0-38.882-17.409-38.882-38.883v-278.253h86.271
					l-8.505,278.253C357.848,1443.945,340.439,1461.354,318.965,1461.354z"/>
				<path style="opacity:0.49;fill:#FFFFFF;" d="M318.965,1452.24c-16.415,0-29.769-13.354-29.769-29.77v-278.253h67.762
					l-8.223,278.114v0.139C348.734,1438.886,335.38,1452.24,318.965,1452.24z"/>
				<path style="fill:#7D97F4;" d="M366.322,1150.901h-87.423c-7.063,0-12.79-5.726-12.79-12.79l0,0
					c0-6.796,5.316-12.406,12.103-12.77l87.424-4.701c7.322-0.394,13.476,5.438,13.476,12.771v4.7
					C379.112,1145.175,373.386,1150.901,366.322,1150.901z"/>
				
					<linearGradient id="SVGID_00000109721471144847828000000016098215409104947357_" gradientUnits="userSpaceOnUse" x1="492.805" y1="966.5776" x2="424.805" y2="1116.5775">
					<stop  offset="0" style="stop-color:#FF928E"/>
					<stop  offset="1" style="stop-color:#FEB3B1"/>
				</linearGradient>
				<path style="fill:url(#SVGID_00000109721471144847828000000016098215409104947357_);" d="M289.196,1271.194v151.277
					c0,16.415,13.354,29.77,29.769,29.77c16.415,0,29.77-13.354,29.77-29.77v-0.139l4.469-151.138H289.196z"/>
			</g>
		</g>
		<g>
			<path style="fill:#FFFFFF;" d="M2020.345,966.153l5.654-2.506l0.05-0.022c1.059-0.469,2.298,0.009,2.767,1.067
				c0.469,1.059-0.008,2.298-1.067,2.767l-0.011,0.005l-5.768,2.518c-1.052,0.459-2.279-0.021-2.738-1.073
				c-0.458-1.049,0.018-2.27,1.063-2.734L2020.345,966.153z"/>
			<path style="fill:#FFFFFF;" d="M2038.929,957.235l5.419-2.98l0.048-0.025c1.043-0.574,2.354-0.194,2.928,0.85
				c0.574,1.043,0.193,2.354-0.85,2.928l-0.011,0.005l-5.531,3.002c-1.038,0.564-2.336,0.179-2.899-0.859
				c-0.561-1.034-0.181-2.326,0.848-2.893L2038.929,957.235z"/>
			<path style="fill:#FFFFFF;" d="M2056.69,946.777l5.153-3.42l0.045-0.031c1.019-0.676,2.393-0.398,3.069,0.62
				c0.676,1.018,0.399,2.393-0.62,3.069l-0.01,0.007l-5.263,3.452c-1.015,0.665-2.376,0.382-3.042-0.633
				c-0.663-1.01-0.384-2.366,0.622-3.034L2056.69,946.777z"/>
			<path style="fill:#FFFFFF;" d="M2073.532,934.894l4.861-3.825l0.042-0.034c0.986-0.776,2.415-0.605,3.191,0.381
				c0.776,0.986,0.606,2.415-0.381,3.192l-0.01,0.007l-4.967,3.864c-0.983,0.765-2.4,0.588-3.164-0.395
				c-0.762-0.98-0.589-2.39,0.385-3.156L2073.532,934.894z"/>
			<path style="fill:#FFFFFF;" d="M2089.376,921.704l4.548-4.193l0.04-0.036c0.947-0.872,2.421-0.812,3.294,0.134
				s0.813,2.421-0.134,3.294l-0.01,0.008l-4.65,4.24c-0.944,0.861-2.407,0.793-3.268-0.151c-0.858-0.94-0.793-2.397,0.141-3.259
				L2089.376,921.704z"/>
			<path style="fill:#FFFFFF;" d="M2104.155,907.331l4.211-4.518l0.036-0.039c0.9-0.966,2.412-1.018,3.377-0.119
				c0.965,0.9,1.019,2.412,0.119,3.377l-0.009,0.01l-4.309,4.572c-0.899,0.953-2.4,0.997-3.353,0.099
				c-0.95-0.895-0.997-2.388-0.109-3.342L2104.155,907.331z"/>
			<path style="fill:#FFFFFF;" d="M2117.81,891.898l3.873-4.823l0.033-0.042c0.847-1.054,2.387-1.223,3.441-0.376
				c1.054,0.846,1.222,2.388,0.376,3.442l-0.009,0.01l-3.967,4.883c-0.846,1.042-2.377,1.2-3.418,0.354
				c-1.038-0.844-1.199-2.366-0.363-3.407L2117.81,891.898z"/>
			<path style="fill:#FFFFFF;" d="M2130.312,875.495l3.521-5.097l0.03-0.044c0.787-1.139,2.348-1.425,3.487-0.638
				c1.139,0.786,1.424,2.348,0.637,3.486l-0.008,0.011l-3.611,5.165c-0.787,1.126-2.339,1.401-3.465,0.613
				c-1.123-0.784-1.399-2.327-0.622-3.453L2130.312,875.495z"/>
			<path style="fill:#FFFFFF;" d="M2141.609,858.239l3.146-5.325l0.027-0.046c0.72-1.22,2.293-1.625,3.513-0.904
				c1.219,0.72,1.624,2.293,0.904,3.513l-0.008,0.012l-3.231,5.4c-0.722,1.206-2.286,1.599-3.493,0.877
				c-1.203-0.72-1.597-2.275-0.885-3.48L2141.609,858.239z"/>
			<path style="fill:#FFFFFF;" d="M2151.654,840.239l2.764-5.532l0.025-0.049c0.648-1.296,2.223-1.822,3.519-1.174
				c1.296,0.647,1.822,2.223,1.174,3.519l-0.007,0.013l-2.845,5.615c-0.65,1.284-2.218,1.797-3.502,1.146
				c-1.279-0.648-1.793-2.207-1.153-3.487L2151.654,840.239z"/>
			<path style="fill:#FFFFFF;" d="M2160.413,821.583l2.37-5.711l0.021-0.052c0.568-1.368,2.137-2.017,3.505-1.449
				c1.367,0.568,2.016,2.137,1.448,3.505l-0.006,0.014l-2.446,5.801c-0.572,1.356-2.134,1.991-3.489,1.42
				c-1.351-0.569-1.987-2.122-1.426-3.474L2160.413,821.583z"/>
			<path style="fill:#FFFFFF;" d="M2167.841,802.362l1.962-5.861l0.019-0.055c0.48-1.435,2.033-2.209,3.468-1.729
				c1.435,0.48,2.209,2.033,1.729,3.468l-0.005,0.015l-2.032,5.96c-0.485,1.423-2.032,2.183-3.455,1.698
				c-1.418-0.483-2.178-2.021-1.703-3.439L2167.841,802.362z"/>
			<path style="fill:#FFFFFF;" d="M2173.891,782.672l1.539-5.984l0.015-0.058c0.385-1.497,1.91-2.399,3.407-2.014
				c1.497,0.385,2.398,1.91,2.013,3.407l-0.004,0.015l-1.603,6.092c-0.391,1.486-1.912,2.372-3.397,1.981
				c-1.479-0.389-2.365-1.9-1.985-3.38L2173.891,782.672z"/>
			<path style="fill:#FFFFFF;" d="M2178.514,762.607l1.102-6.085l0.011-0.062c0.281-1.553,1.768-2.583,3.32-2.302
				c1.552,0.28,2.583,1.767,2.302,3.32l-0.003,0.015l-1.158,6.203c-0.288,1.542-1.771,2.557-3.312,2.269
				c-1.536-0.286-2.55-1.76-2.272-3.295L2178.514,762.607z"/>
			<path style="fill:#FFFFFF;" d="M2181.656,742.254l0.644-6.138l0.007-0.066c0.168-1.601,1.602-2.763,3.203-2.595
				s2.763,1.602,2.595,3.204l-0.002,0.016l-0.693,6.265c-0.176,1.59-1.608,2.737-3.198,2.561c-1.585-0.176-2.729-1.598-2.563-3.181
				L2181.656,742.254z"/>
			<path style="fill:#FFFFFF;" d="M2183.263,721.747l0.183-6.167l0.002-0.069c0.049-1.633,1.411-2.918,3.044-2.869
				c1.633,0.048,2.917,1.412,2.869,3.044l0,0.006l-0.201,6.305c-0.052,1.629-1.415,2.906-3.043,2.854
				c-1.629-0.052-2.907-1.415-2.855-3.043L2183.263,721.747z"/>
			<path style="fill:#FFFFFF;" d="M2183.308,701.187l-0.305-6.16l-0.003-0.071c-0.082-1.645,1.186-3.044,2.831-3.127
				c1.645-0.081,3.044,1.187,3.126,2.832l0,0.006l0.297,6.304c0.077,1.641-1.19,3.034-2.832,3.112
				c-1.641,0.077-3.034-1.19-3.112-2.831L2183.308,701.187z"/>
			<path style="fill:#FFFFFF;" d="M2181.711,680.698l-0.805-6.111l-0.01-0.074c-0.217-1.646,0.942-3.157,2.588-3.373
				c1.646-0.217,3.156,0.941,3.374,2.588l0.001,0.007l0.811,6.262c0.212,1.642-0.947,3.147-2.59,3.359
				c-1.643,0.212-3.146-0.946-3.359-2.589L2181.711,680.698z"/>
			<path style="fill:#FFFFFF;" d="M2178.431,660.421l-1.314-6.011l-0.017-0.076c-0.357-1.635,0.678-3.251,2.314-3.608
				c1.635-0.357,3.25,0.678,3.608,2.313l0.001,0.007l1.333,6.165c0.353,1.633-0.684,3.241-2.317,3.595
				c-1.632,0.352-3.241-0.685-3.594-2.317L2178.431,660.421z"/>
			<path style="fill:#FFFFFF;" d="M2173.445,640.503l-1.829-5.882l-0.023-0.076c-0.501-1.611,0.399-3.324,2.01-3.824
				c1.611-0.501,3.324,0.399,3.824,2.011l0.002,0.006l1.862,6.038c0.496,1.609-0.406,3.315-2.014,3.811
				c-1.609,0.495-3.315-0.406-3.811-2.015L2173.445,640.503z"/>
			<path style="fill:#FFFFFF;" d="M2166.763,621.089l-2.323-5.703l-0.03-0.072c-0.642-1.575,0.115-3.372,1.69-4.014
				s3.372,0.115,4.014,1.69l0.003,0.007l2.368,5.853c0.636,1.573-0.123,3.364-1.696,4c-1.573,0.637-3.364-0.122-4-1.695
				L2166.763,621.089z"/>
			<path style="fill:#FFFFFF;" d="M2158.463,602.308l-2.791-5.495l-0.034-0.068c-0.776-1.528-0.166-3.397,1.363-4.174
				c1.529-0.776,3.397-0.165,4.173,1.363l0.003,0.007l2.846,5.637c0.771,1.527,0.158,3.39-1.369,4.161
				c-1.527,0.771-3.389,0.157-4.16-1.369L2158.463,602.308z"/>
			<path style="fill:#FFFFFF;" d="M2148.648,584.263l-3.224-5.255l-0.039-0.063c-0.904-1.472-0.442-3.399,1.031-4.303
				c1.473-0.904,3.399-0.442,4.302,1.031l0.004,0.006l3.289,5.389c0.898,1.471,0.433,3.392-1.039,4.29
				c-1.471,0.898-3.392,0.433-4.29-1.039L2148.648,584.263z"/>
			<path style="fill:#FFFFFF;" d="M2137.426,567.049l-3.624-4.99L2133.76,562c-1.023-1.408-0.711-3.38,0.698-4.403
				c1.409-1.024,3.381-0.711,4.404,0.698l0.004,0.006l3.697,5.116c1.018,1.407,0.701,3.375-0.707,4.392
				c-1.408,1.018-3.375,0.701-4.392-0.708L2137.426,567.049z"/>
			<path style="fill:#FFFFFF;" d="M2124.909,550.744l-3.985-4.696l-0.046-0.054c-1.135-1.338-0.971-3.343,0.367-4.478
				c1.338-1.135,3.343-0.972,4.478,0.367l0.005,0.006l4.065,4.813c1.13,1.337,0.961,3.337-0.376,4.467
				c-1.338,1.129-3.337,0.961-4.467-0.377L2124.909,550.744z"/>
			<path style="fill:#FFFFFF;" d="M2111.211,535.424l-4.326-4.398l-0.049-0.05c-1.24-1.26-1.223-3.287,0.037-4.527
				c1.26-1.24,3.288-1.224,4.528,0.037l0.005,0.006l4.414,4.508c1.234,1.26,1.213,3.283-0.048,4.517
				c-1.26,1.235-3.283,1.213-4.517-0.048L2111.211,535.424z"/>
			<path style="fill:#FFFFFF;" d="M2096.418,521.128l-4.639-4.082l-0.052-0.046c-1.338-1.177-1.468-3.215-0.291-4.552
				c1.177-1.339,3.215-1.468,4.553-0.292l0.006,0.005l4.733,4.185c1.332,1.177,1.457,3.211,0.28,4.543
				c-1.177,1.331-3.212,1.457-4.543,0.279L2096.418,521.128z"/>
			<path style="fill:#FFFFFF;" d="M2080.639,507.925l-4.909-3.738l-0.054-0.042c-1.428-1.088-1.705-3.128-0.617-4.556
				c1.088-1.429,3.127-1.705,4.555-0.617l0.006,0.005l5.009,3.833c1.423,1.088,1.693,3.124,0.605,4.546
				c-1.088,1.422-3.124,1.693-4.546,0.604L2080.639,507.925z"/>
			<path style="fill:#FFFFFF;" d="M2063.975,495.871l-5.159-3.385l-0.057-0.038c-1.512-0.992-1.934-3.023-0.942-4.535
				c0.992-1.512,3.022-1.934,4.535-0.941l0.007,0.004l5.266,3.473c1.507,0.993,1.922,3.02,0.929,4.526
				c-0.993,1.507-3.02,1.922-4.527,0.929L2063.975,495.871z"/>
			<path style="fill:#FFFFFF;" d="M2046.509,485.014l-5.383-3.015l-0.061-0.034c-1.59-0.891-2.157-2.901-1.266-4.492
				c0.891-1.589,2.901-2.156,4.491-1.266l0.007,0.004l5.497,3.096c1.584,0.892,2.145,2.899,1.253,4.483
				c-0.892,1.584-2.9,2.145-4.484,1.253L2046.509,485.014z"/>
			<path style="fill:#FFFFFF;" d="M2028.328,475.41l-5.581-2.628l-0.064-0.029c-1.661-0.783-2.373-2.763-1.591-4.423
				c0.782-1.66,2.762-2.373,4.423-1.591l0.007,0.004l5.702,2.701c1.655,0.785,2.361,2.762,1.577,4.417
				c-0.784,1.655-2.762,2.361-4.417,1.577L2028.328,475.41z"/>
			<path style="fill:#FFFFFF;" d="M2009.518,467.116l-5.752-2.223l-0.068-0.025c-1.725-0.667-2.583-2.606-1.916-4.33
				c0.667-1.725,2.605-2.583,4.33-1.916l0.007,0.003l5.882,2.289c1.719,0.669,2.571,2.605,1.902,4.324
				c-0.669,1.72-2.605,2.571-4.325,1.902L2009.518,467.116z"/>
			<path style="fill:#FFFFFF;" d="M1990.166,460.197l-5.903-1.801l-0.071-0.021c-1.781-0.543-2.785-2.428-2.242-4.21
				c0.543-1.781,2.428-2.785,4.209-2.241l0.008,0.002l6.041,1.857c1.776,0.546,2.774,2.429,2.227,4.206
				c-0.546,1.776-2.429,2.773-4.206,2.227L1990.166,460.197z"/>
			<path style="fill:#FFFFFF;" d="M1970.359,454.713l-6.007-1.361l-0.075-0.017c-1.825-0.413-2.969-2.227-2.555-4.052
				c0.413-1.825,2.226-2.969,4.051-2.556l6.158,1.392c1.826,0.412,2.971,2.227,2.558,4.053c-0.413,1.826-2.227,2.971-4.053,2.558
				h-0.002L1970.359,454.713z"/>
			<path style="fill:#FFFFFF;" d="M1950.22,450.713l-6.095-0.897l-0.078-0.011c-1.848-0.271-3.126-1.99-2.855-3.839
				s1.989-3.127,3.837-2.856l6.252,0.917c1.849,0.27,3.129,1.989,2.858,3.839c-0.271,1.849-1.99,3.129-3.839,2.858h-0.001
				L1950.22,450.713z"/>
			<path style="fill:#FFFFFF;" d="M1929.837,448.288l-6.144-0.41l-0.082-0.006c-1.861-0.124-3.27-1.734-3.145-3.596
				c0.124-1.861,1.732-3.269,3.594-3.145l6.307,0.418c1.862,0.124,3.272,1.734,3.148,3.596s-1.733,3.272-3.596,3.148h-0.002
				L1929.837,448.288z"/>
			<path style="fill:#FFFFFF;" d="M1909.333,447.503l-6.154,0.093l-0.084,0.001c-1.863,0.029-3.396-1.458-3.424-3.321
				c-0.028-1.864,1.457-3.396,3.32-3.424l6.323-0.098c1.863-0.029,3.398,1.457,3.427,3.321c0.029,1.863-1.458,3.398-3.321,3.427
				h-0.001L1909.333,447.503z"/>
			<path style="fill:#FFFFFF;" d="M1888.843,448.416l-6.115,0.61l-0.086,0.009c-1.851,0.185-3.501-1.166-3.686-3.017
				c-0.185-1.851,1.164-3.501,3.015-3.686l6.286-0.631c1.852-0.186,3.504,1.165,3.689,3.017c0.186,1.851-1.165,3.503-3.016,3.688
				l-0.002,0.001L1888.843,448.416z"/>
			<path style="fill:#FFFFFF;" d="M1868.517,451.062l-6.064,1.112l-0.072,0.013c-1.827,0.336-3.58-0.873-3.915-2.701
				c-0.335-1.827,0.873-3.58,2.7-3.915l6.208-1.141c1.828-0.336,3.582,0.872,3.918,2.7s-0.873,3.582-2.7,3.918l-0.002,0.001
				L1868.517,451.062z"/>
			<path style="fill:#FFFFFF;" d="M1848.404,455.278l-5.971,1.543l-0.068,0.018c-1.796,0.463-3.628-0.616-4.092-2.412
				c-0.464-1.796,0.614-3.627,2.41-4.091l6.106-1.581c1.796-0.465,3.63,0.614,4.095,2.411c0.465,1.796-0.614,3.63-2.411,4.094
				l-0.001,0.001L1848.404,455.278z"/>
			<path style="fill:#FFFFFF;" d="M1828.632,460.897l-5.855,1.943l-0.062,0.021c-1.758,0.583-3.656-0.369-4.24-2.126
				c-0.583-1.759,0.367-3.656,2.125-4.24l5.979-1.987c1.758-0.585,3.658,0.368,4.242,2.125c0.584,1.759-0.367,3.658-2.125,4.243
				h-0.002L1828.632,460.897z"/>
			<path style="fill:#FFFFFF;" d="M1809.251,467.814l-5.726,2.307l-0.055,0.022c-1.715,0.691-3.667-0.138-4.358-1.854
				c-0.692-1.715,0.137-3.666,1.853-4.357l5.836-2.356c1.716-0.693,3.668,0.137,4.361,1.853c0.693,1.716-0.137,3.668-1.853,4.361
				l-0.001,0.001L1809.251,467.814z"/>
			<path style="fill:#FFFFFF;" d="M1790.308,475.899l-5.592,2.631l-0.048,0.023c-1.671,0.786-3.663,0.069-4.449-1.602
				c-0.786-1.672-0.071-3.663,1.601-4.449l5.688-2.68c1.672-0.787,3.665-0.07,4.452,1.601c0.787,1.672,0.071,3.664-1.601,4.452
				l-0.001,0.001L1790.308,475.899z"/>
			<path style="fill:#FFFFFF;" d="M1771.814,485.014l-5.459,2.912l-0.041,0.022c-1.627,0.868-3.65,0.253-4.518-1.374
				c-0.868-1.627-0.254-3.65,1.373-4.517l5.541-2.96c1.627-0.869,3.651-0.255,4.521,1.373c0.869,1.627,0.255,3.652-1.373,4.521
				h-0.001L1771.814,485.014z"/>
			<path style="fill:#FFFFFF;" d="M1753.766,495.014l-5.333,3.152l-0.035,0.02c-1.585,0.937-3.63,0.412-4.567-1.173
				c-0.937-1.585-0.413-3.629,1.172-4.567l5.401-3.197c1.586-0.937,3.631-0.413,4.57,1.173c0.938,1.585,0.414,3.631-1.172,4.57
				h-0.001L1753.766,495.014z"/>
			<path style="fill:#FFFFFF;" d="M1736.125,505.766l-5.219,3.353l-0.028,0.018c-1.547,0.994-3.607,0.546-4.601-1.001
				c-0.994-1.547-0.547-3.606,1-4.6l5.274-3.392c1.547-0.995,3.608-0.548,4.603,0.999c0.995,1.547,0.548,3.608-1,4.603l-0.001,0.001
				L1736.125,505.766z"/>
			<path style="fill:#FFFFFF;" d="M1718.851,517.144l-5.118,3.517l-0.023,0.016c-1.513,1.04-3.583,0.656-4.623-0.857
				c-1.04-1.513-0.658-3.583,0.856-4.622l5.162-3.551c1.513-1.041,3.584-0.658,4.625,0.855c1.041,1.513,0.658,3.585-0.855,4.626
				l-0.001,0.001L1718.851,517.144z"/>
			<path style="fill:#FFFFFF;" d="M1701.894,529.03l-5.034,3.648l-0.018,0.013c-1.485,1.075-3.56,0.744-4.636-0.74
				c-1.076-1.485-0.746-3.559,0.739-4.636l5.068-3.676c1.485-1.077,3.562-0.746,4.639,0.738c1.077,1.485,0.747,3.561-0.738,4.639
				l-0.001,0.001L1701.894,529.03z"/>
			<path style="fill:#FFFFFF;" d="M1685.197,541.314l-4.967,3.748l-0.013,0.009c-1.462,1.103-3.54,0.812-4.643-0.649
				c-1.103-1.461-0.813-3.539,0.648-4.642l4.992-3.771c1.462-1.104,3.541-0.814,4.645,0.648c1.104,1.461,0.814,3.541-0.647,4.645
				l-0.001,0.001L1685.197,541.314z"/>
			<path style="fill:#FFFFFF;" d="M1668.7,553.898l-4.919,3.819l-0.008,0.007c-1.444,1.121-3.523,0.859-4.645-0.584
				c-1.121-1.444-0.861-3.523,0.583-4.644l4.935-3.836c1.444-1.123,3.525-0.862,4.647,0.582c1.122,1.444,0.862,3.525-0.582,4.647
				l-0.001,0.001L1668.7,553.898z"/>
			<path style="fill:#FFFFFF;" d="M1652.341,566.689l-4.891,3.865c-1.43,1.134-3.509,0.895-4.643-0.535
				c-1.134-1.431-0.891-3.512,0.539-4.647l4.898-3.874c1.432-1.133,3.512-0.891,4.645,0.542c1.133,1.432,0.89,3.511-0.542,4.645
				L1652.341,566.689z"/>
			<path style="fill:#FFFFFF;" d="M1636.055,579.602l-4.881,3.885c-1.426,1.135-3.502,0.9-4.638-0.526
				c-1.135-1.427-0.901-3.502,0.525-4.638l4.881-3.888c1.426-1.136,3.504-0.901,4.64,0.525c1.136,1.427,0.901,3.504-0.525,4.64
				L1636.055,579.602z"/>
			<path style="fill:#FFFFFF;" d="M1619.778,592.553l-4.891,3.88c-1.426,1.131-3.499,0.892-4.63-0.534
				c-1.131-1.426-0.89-3.5,0.536-4.632l4.883-3.877c1.425-1.134,3.499-0.899,4.633,0.526c1.134,1.425,0.898,3.499-0.526,4.633
				L1619.778,592.553z"/>
			<path style="fill:#FFFFFF;" d="M1603.446,605.459l-4.92,3.851c-1.431,1.12-3.499,0.868-4.62-0.564
				c-1.12-1.431-0.862-3.503,0.569-4.623l4.905-3.843c1.428-1.125,3.498-0.879,4.623,0.549c1.125,1.428,0.879,3.498-0.549,4.624
				L1603.446,605.459z"/>
			<path style="fill:#FFFFFF;" d="M1586.992,618.238l-4.969,3.796c-1.442,1.102-3.504,0.826-4.606-0.616
				c-1.102-1.442-0.826-3.504,0.616-4.606l0.01-0.007l4.945-3.782l0.011-0.008c1.442-1.103,3.505-0.828,4.608,0.614
				s0.828,3.505-0.615,4.608L1586.992,618.238z"/>
			<path style="fill:#FFFFFF;" d="M1570.353,630.804l-5.037,3.714c-1.458,1.075-3.512,0.766-4.588-0.693
				c-1.075-1.458-0.765-3.513,0.693-4.588l0.014-0.011l5.004-3.693l0.015-0.011c1.458-1.078,3.514-0.768,4.59,0.691
				c1.077,1.458,0.767,3.514-0.691,4.59L1570.353,630.804z"/>
			<path style="fill:#FFFFFF;" d="M1553.467,643.064l-5.123,3.605c-1.48,1.041-3.523,0.685-4.565-0.794
				c-1.041-1.48-0.685-3.524,0.794-4.565l0.019-0.014l5.081-3.578l0.02-0.014c1.48-1.042,3.525-0.688,4.567,0.792
				c1.042,1.481,0.688,3.525-0.792,4.567L1553.467,643.064z"/>
			<path style="fill:#FFFFFF;" d="M1536.274,654.922l-5.226,3.464c-1.506,0.997-3.536,0.586-4.534-0.92
				c-0.998-1.506-0.586-3.536,0.92-4.534l0.024-0.016l5.174-3.431l0.025-0.017c1.506-0.998,3.537-0.588,4.536,0.919
				c0.999,1.506,0.588,3.537-0.918,4.536H1536.274z"/>
			<path style="fill:#FFFFFF;" d="M1518.714,666.271l-5.356,3.283c-1.532,0.939-3.536,0.459-4.475-1.074
				c-0.939-1.532-0.458-3.536,1.074-4.475l0.023-0.014l5.281-3.262l0.031-0.019c1.534-0.948,3.547-0.472,4.494,1.062
				c0.948,1.534,0.472,3.546-1.062,4.494L1518.714,666.271z"/>
			<path style="fill:#FFFFFF;" d="M1500.716,676.958l-5.483,3.065c-1.551,0.867-3.512,0.313-4.38-1.239
				c-0.867-1.551-0.313-3.512,1.239-4.379l0.024-0.014l5.405-3.046l0.034-0.019c1.554-0.875,3.523-0.326,4.399,1.228
				c0.876,1.554,0.326,3.523-1.228,4.398L1500.716,676.958z"/>
			<path style="fill:#FFFFFF;" d="M1482.308,686.915l-5.595,2.843c-1.567,0.796-3.482,0.171-4.278-1.395
				c-0.796-1.567-0.171-3.483,1.396-4.279l0.024-0.011l5.518-2.828l0.034-0.017c1.569-0.804,3.494-0.184,4.298,1.385
				c0.804,1.57,0.184,3.493-1.385,4.298L1482.308,686.915z"/>
			<path style="fill:#FFFFFF;" d="M1463.535,696.131l-5.699,2.62c-1.578,0.726-3.447,0.034-4.172-1.544
				c-0.726-1.579-0.034-3.448,1.544-4.173l0.023-0.011l5.623-2.609l0.033-0.015c1.582-0.734,3.458-0.047,4.192,1.534
				c0.734,1.581,0.047,3.459-1.535,4.192L1463.535,696.131z"/>
			<path style="fill:#FFFFFF;" d="M1444.417,704.61l-5.793,2.397c-1.587,0.656-3.406-0.097-4.063-1.685
				c-0.657-1.587,0.098-3.406,1.685-4.063l0.023-0.009l5.719-2.391l0.033-0.013c1.59-0.665,3.418,0.085,4.083,1.676
				c0.665,1.59-0.086,3.418-1.676,4.083L1444.417,704.61z"/>
			<path style="fill:#FFFFFF;" d="M1424.99,712.345l-5.88,2.174c-1.592,0.589-3.36-0.224-3.949-1.817
				c-0.589-1.592,0.225-3.36,1.817-3.949l0.023-0.008l5.806-2.17l0.033-0.012c1.596-0.596,3.373,0.213,3.969,1.81
				c0.596,1.595-0.214,3.372-1.809,3.969L1424.99,712.345z"/>
			<path style="fill:#FFFFFF;" d="M1405.287,719.336l-5.957,1.951c-1.594,0.522-3.31-0.346-3.832-1.941s0.347-3.31,1.941-3.833
				l0.022-0.007l5.885-1.95l0.032-0.011c1.598-0.53,3.323,0.337,3.853,1.934c0.53,1.598-0.337,3.324-1.935,3.853L1405.287,719.336z"
				/>
			<path style="fill:#FFFFFF;" d="M1385.337,725.581l-6.026,1.728c-1.593,0.457-3.255-0.465-3.712-2.058
				c-0.457-1.593,0.464-3.256,2.058-3.712l0.022-0.007l5.956-1.729l0.032-0.009c1.598-0.464,3.269,0.455,3.733,2.052
				c0.464,1.597-0.455,3.269-2.052,3.733L1385.337,725.581z"/>
			<path style="fill:#FFFFFF;" d="M1365.177,731.08l-6.087,1.504c-1.59,0.393-3.197-0.577-3.59-2.167
				c-0.393-1.589,0.577-3.197,2.167-3.59l0.022-0.005l6.018-1.51l0.032-0.008c1.594-0.4,3.211,0.569,3.611,2.163
				c0.4,1.594-0.568,3.211-2.162,3.61L1365.177,731.08z"/>
			<path style="fill:#FFFFFF;" d="M1344.825,735.834l-6.139,1.281c-1.584,0.33-3.135-0.685-3.466-2.269
				c-0.33-1.584,0.685-3.135,2.269-3.466l0.021-0.004l6.071-1.29l0.031-0.006c1.588-0.337,3.149,0.676,3.486,2.265
				c0.337,1.588-0.677,3.149-2.265,3.486L1344.825,735.834z"/>
			<path style="fill:#FFFFFF;" d="M1324.31,739.844l-6.182,1.058c-1.575,0.269-3.07-0.789-3.339-2.364
				c-0.269-1.575,0.789-3.07,2.364-3.339l0.021-0.004l6.117-1.068l0.031-0.005c1.58-0.276,3.084,0.781,3.36,2.361
				c0.276,1.579-0.781,3.084-2.361,3.359L1324.31,739.844z"/>
			<path style="fill:#FFFFFF;" d="M1303.658,743.108l-6.218,0.835c-1.564,0.209-3.001-0.888-3.211-2.451
				c-0.21-1.564,0.888-3.002,2.451-3.211l0.021-0.003l6.153-0.848l0.031-0.004c1.569-0.216,3.016,0.88,3.232,2.449
				c0.216,1.569-0.881,3.016-2.449,3.232L1303.658,743.108z"/>
			<path style="fill:#FFFFFF;" d="M1282.9,745.629l-6.245,0.61c-1.55,0.151-2.93-0.982-3.082-2.533
				c-0.151-1.551,0.982-2.93,2.533-3.082l0.02-0.002l6.182-0.626l0.03-0.003c1.556-0.158,2.945,0.976,3.102,2.532
				c0.158,1.556-0.976,2.944-2.532,3.102L1282.9,745.629z"/>
			<path style="fill:#FFFFFF;" d="M1262.073,747.402l-6.263,0.387c-1.535,0.094-2.856-1.072-2.951-2.608
				c-0.095-1.534,1.073-2.856,2.607-2.95l0.02-0.002l6.202-0.404l0.03-0.002c1.541-0.101,2.871,1.066,2.971,2.607
				c0.1,1.541-1.067,2.871-2.607,2.971L1262.073,747.402z"/>
			<path style="fill:#FFFFFF;" d="M1241.197,748.43l-6.273,0.164c-1.517,0.04-2.779-1.159-2.819-2.676
				c-0.039-1.517,1.159-2.779,2.676-2.819h0.02l6.214-0.184l0.029-0.001c1.523-0.045,2.794,1.154,2.839,2.677
				c0.045,1.523-1.153,2.795-2.677,2.839H1241.197z"/>
			<path style="fill:#FFFFFF;" d="M1220.297,748.712l-6.275-0.061c-1.498-0.014-2.7-1.241-2.685-2.738
				c0.014-1.498,1.24-2.7,2.738-2.686h0.02l6.217,0.039h0.029c1.504,0.01,2.715,1.237,2.706,2.741
				c-0.009,1.503-1.236,2.714-2.74,2.705H1220.297z"/>
			<path style="fill:#FFFFFF;" d="M1199.402,748.248l-6.269-0.285c-1.476-0.067-2.619-1.318-2.551-2.795s1.318-2.619,2.795-2.551
				h0.02l6.212,0.261l0.029,0.001c1.482,0.063,2.634,1.315,2.572,2.798c-0.062,1.483-1.314,2.634-2.797,2.571H1199.402z"/>
			<path style="fill:#FFFFFF;" d="M1178.538,747.036l-6.253-0.51c-1.453-0.119-2.535-1.392-2.417-2.845
				c0.118-1.453,1.392-2.535,2.845-2.417l0.019,0.002l6.198,0.483l0.029,0.002c1.459,0.114,2.55,1.389,2.436,2.848
				c-0.114,1.46-1.389,2.551-2.849,2.437L1178.538,747.036z"/>
			<path style="fill:#FFFFFF;" d="M1157.733,745.076l-6.229-0.734c-1.428-0.169-2.449-1.462-2.281-2.89
				c0.168-1.428,1.462-2.449,2.89-2.281l0.019,0.002l6.176,0.706l0.028,0.004c1.435,0.163,2.464,1.459,2.301,2.894
				c-0.164,1.435-1.46,2.465-2.895,2.3L1157.733,745.076z"/>
			<path style="fill:#FFFFFF;" d="M1137.004,742.366l-6.197-0.96c-1.401-0.216-2.361-1.528-2.144-2.93
				c0.217-1.4,1.529-2.361,2.93-2.144l0.019,0.003l6.145,0.929l0.028,0.004c1.408,0.213,2.377,1.527,2.164,2.935
				c-0.213,1.407-1.527,2.376-2.935,2.164L1137.004,742.366z"/>
			<path style="fill:#FFFFFF;" d="M1116.393,738.905l-6.156-1.184c-1.373-0.264-2.271-1.591-2.007-2.964
				c0.264-1.373,1.591-2.272,2.964-2.007l0.019,0.003l6.105,1.153l0.027,0.005c1.38,0.261,2.287,1.59,2.026,2.97
				c-0.26,1.379-1.59,2.287-2.97,2.026L1116.393,738.905z"/>
			<path style="fill:#FFFFFF;" d="M1095.929,734.694l-6.106-1.411c-1.343-0.31-2.18-1.649-1.87-2.992
				c0.31-1.342,1.65-2.18,2.992-1.87l0.019,0.004l6.057,1.376l0.027,0.006c1.35,0.307,2.195,1.649,1.888,2.999
				c-0.307,1.35-1.649,2.195-2.999,1.889L1095.929,734.694z"/>
			<path style="fill:#FFFFFF;" d="M1075.647,729.709l-6.045-1.646c-1.293-0.351-2.055-1.685-1.703-2.977
				c0.35-1.287,1.673-2.048,2.961-1.708l0.027,0.008l6.003,1.59l0.026,0.007c1.306,0.346,2.085,1.686,1.739,2.992
				c-0.346,1.306-1.686,2.085-2.992,1.738L1075.647,729.709z"/>
			<path style="fill:#FFFFFF;" d="M1055.574,723.96l-5.977-1.87c-1.241-0.388-1.933-1.71-1.544-2.951
				c0.387-1.236,1.698-1.927,2.935-1.55l0.027,0.008l5.938,1.815l0.026,0.008c1.255,0.384,1.962,1.712,1.578,2.967
				c-0.384,1.255-1.712,1.962-2.967,1.578L1055.574,723.96z"/>
			<path style="fill:#FFFFFF;" d="M1035.738,717.462l-5.9-2.096c-1.189-0.424-1.811-1.729-1.388-2.919
				c0.421-1.184,1.718-1.805,2.903-1.394l0.026,0.009l5.864,2.039l0.025,0.008c1.203,0.418,1.839,1.734,1.421,2.936
				c-0.418,1.203-1.733,1.84-2.936,1.422L1035.738,717.462z"/>
			<path style="fill:#FFFFFF;" d="M1016.159,710.207l-5.814-2.32c-1.136-0.454-1.689-1.743-1.236-2.879
				c0.452-1.131,1.731-1.685,2.864-1.241l0.025,0.009l5.781,2.264l0.024,0.009c1.15,0.45,1.717,1.748,1.267,2.897
				c-0.45,1.151-1.747,1.717-2.897,1.267L1016.159,710.207z"/>
			<path style="fill:#FFFFFF;" d="M996.878,702.203l-5.719-2.547c-1.082-0.481-1.569-1.75-1.087-2.831
				c0.48-1.077,1.739-1.565,2.818-1.094l0.024,0.011l5.689,2.487l0.023,0.01c1.096,0.479,1.596,1.756,1.117,2.853
				c-0.479,1.096-1.756,1.595-2.852,1.116L996.878,702.203z"/>
			<path style="fill:#FFFFFF;" d="M977.934,693.453l-5.615-2.771c-1.027-0.507-1.449-1.751-0.942-2.777
				c0.505-1.024,1.74-1.446,2.765-0.949l0.023,0.011l5.589,2.711l0.022,0.011c1.041,0.505,1.476,1.759,0.971,2.8
				c-0.505,1.042-1.759,1.477-2.8,0.971L977.934,693.453z"/>
			<path style="fill:#FFFFFF;" d="M959.347,683.955l-5.501-2.995c-0.972-0.529-1.331-1.747-0.802-2.719
				c0.527-0.968,1.736-1.328,2.706-0.808l0.022,0.011l5.478,2.935l0.022,0.011c0.986,0.528,1.357,1.756,0.829,2.742
				c-0.528,0.986-1.756,1.357-2.742,0.829L959.347,683.955z"/>
			<path style="fill:#FFFFFF;" d="M941.16,673.682l-5.356-3.265c-0.912-0.555-1.201-1.746-0.645-2.658
				c0.554-0.908,1.736-1.198,2.646-0.652l0.03,0.017l5.321,3.194l0.028,0.017c0.926,0.556,1.226,1.757,0.67,2.683
				c-0.556,0.925-1.757,1.226-2.682,0.669L941.16,673.682z"/>
			<path style="fill:#FFFFFF;" d="M923.54,662.412l-5.138-3.614c-0.842-0.592-1.044-1.754-0.452-2.596
				c0.59-0.839,1.745-1.043,2.586-0.46l0.035,0.024l5.093,3.531l0.034,0.023c0.856,0.593,1.068,1.767,0.475,2.623
				c-0.593,0.855-1.767,1.068-2.623,0.475L923.54,662.412z"/>
			<path style="fill:#FFFFFF;" d="M906.751,649.889l-4.823-4.04c-0.759-0.636-0.859-1.767-0.223-2.527
				c0.633-0.755,1.757-0.858,2.516-0.232l0.041,0.034l4.771,3.941l0.039,0.033c0.773,0.639,0.882,1.782,0.243,2.555
				c-0.638,0.773-1.782,0.881-2.554,0.243L906.751,649.889z"/>
			<path style="fill:#FFFFFF;" d="M891.16,635.856l-4.371-4.539c-0.66-0.685-0.639-1.776,0.046-2.436
				c0.682-0.657,1.767-0.64,2.427,0.038l0.044,0.046l4.315,4.419l0.043,0.045c0.673,0.69,0.659,1.793-0.03,2.467
				c-0.689,0.672-1.794,0.659-2.466-0.031L891.16,635.856z"/>
			<path style="fill:#FFFFFF;" d="M877.279,620.09l-3.735-5.09c-0.54-0.735-0.381-1.77,0.355-2.309
				c0.733-0.538,1.761-0.383,2.303,0.344l0.044,0.06l3.681,4.946l0.044,0.059c0.552,0.741,0.398,1.789-0.343,2.342
				c-0.742,0.551-1.79,0.398-2.342-0.343L877.279,620.09z"/>
			<path style="fill:#FFFFFF;" d="M865.771,602.484l-2.88-5.627c-0.398-0.778-0.09-1.731,0.688-2.13
				c0.774-0.396,1.723-0.092,2.124,0.677l0.038,0.074l2.842,5.461l0.038,0.073c0.409,0.785,0.103,1.754-0.682,2.162
				c-0.786,0.409-1.754,0.104-2.163-0.682L865.771,602.484z"/>
			<path style="fill:#FFFFFF;" d="M857.358,583.184l-1.797-6.075c-0.237-0.8,0.22-1.641,1.021-1.878
				c0.797-0.236,1.634,0.216,1.875,1.01l0.028,0.09l1.783,5.881l0.028,0.09c0.246,0.81-0.212,1.666-1.022,1.912
				c-0.81,0.246-1.666-0.212-1.912-1.023L857.358,583.184z"/>
			<path style="fill:#FFFFFF;" d="M852.844,562.603l-0.538-6.3c-0.068-0.793,0.52-1.492,1.314-1.559
				c0.79-0.068,1.485,0.515,1.558,1.303l0.008,0.085l0.565,6.126l0.008,0.086c0.074,0.804-0.518,1.516-1.322,1.59
				c-0.805,0.074-1.517-0.518-1.591-1.322L852.844,562.603z"/>
			<path style="fill:#FFFFFF;" d="M852.468,541.569l0.662-6.277c0.078-0.745,0.746-1.285,1.49-1.206
				c0.74,0.078,1.277,0.736,1.208,1.476l-0.007,0.073l-0.581,6.137l-0.007,0.075c-0.072,0.764-0.75,1.324-1.514,1.251
				c-0.764-0.072-1.324-0.749-1.252-1.513L852.468,541.569z"/>
			<path style="fill:#FFFFFF;" d="M855.95,520.855l1.728-6.059c0.189-0.662,0.878-1.045,1.54-0.857
				c0.657,0.188,1.04,0.869,0.86,1.526l-0.017,0.061l-1.631,5.957l-0.017,0.061c-0.187,0.681-0.89,1.083-1.572,0.897
				c-0.681-0.187-1.083-0.891-0.896-1.572L855.95,520.855z"/>
			<path style="fill:#FFFFFF;" d="M862.841,501.045l2.673-5.698c0.267-0.568,0.943-0.812,1.511-0.546
				c0.564,0.265,0.809,0.934,0.551,1.5l-0.022,0.049l-2.567,5.627l-0.023,0.051c-0.268,0.587-0.962,0.846-1.549,0.578
				c-0.587-0.268-0.846-0.962-0.578-1.549L862.841,501.045z"/>
			<path style="fill:#FFFFFF;" d="M872.759,482.582l3.514-5.214c0.317-0.47,0.955-0.594,1.425-0.277
				c0.467,0.315,0.593,0.946,0.284,1.415l-0.026,0.041l-3.406,5.17l-0.027,0.041c-0.322,0.488-0.979,0.624-1.467,0.302
				c-0.489-0.322-0.624-0.979-0.302-1.467L872.759,482.582z"/>
			<path style="fill:#FFFFFF;" d="M885.377,465.878l4.272-4.607c0.344-0.372,0.924-0.393,1.295-0.049
				c0.369,0.341,0.393,0.916,0.056,1.287l-0.029,0.033l-4.164,4.588l-0.03,0.033c-0.352,0.389-0.953,0.417-1.341,0.065
				c-0.388-0.352-0.417-0.953-0.065-1.341L885.377,465.878z"/>
			<path style="fill:#FFFFFF;" d="M900.428,451.349l4.953-3.868c0.351-0.274,0.858-0.212,1.132,0.139
				c0.272,0.348,0.213,0.851-0.132,1.126l-0.032,0.025l-4.849,3.869l-0.032,0.026c-0.363,0.289-0.891,0.229-1.18-0.133
				c-0.289-0.363-0.23-0.891,0.133-1.18L900.428,451.349z"/>
			<path style="fill:#FFFFFF;" d="M917.633,439.475l5.533-2.965c0.339-0.182,0.761-0.054,0.943,0.285
				c0.18,0.336,0.056,0.755-0.278,0.939l-0.033,0.017l-5.435,2.988l-0.034,0.018c-0.353,0.194-0.797,0.065-0.991-0.288
				c-0.194-0.353-0.065-0.797,0.288-0.991L917.633,439.475z"/>
			<path style="fill:#FFFFFF;" d="M936.641,430.793c1.989-0.646,3.967-1.329,5.977-1.901c0.311-0.091,0.637,0.087,0.728,0.398
				c0.09,0.31-0.09,0.635-0.397,0.728c-1.985,0.587-3.933,1.285-5.893,1.944l-0.026,0.008c-0.325,0.11-0.676-0.065-0.785-0.39
				c-0.109-0.324,0.065-0.675,0.39-0.785L936.641,430.793z"/>
			<path style="fill:#FFFFFF;" d="M956.88,425.687l6.205-0.853c0.261-0.037,0.502,0.146,0.538,0.407
				c0.036,0.259-0.144,0.499-0.402,0.537l-0.024,0.003l-6.147,0.912l-0.025,0.004c-0.279,0.041-0.538-0.151-0.579-0.43
				c-0.041-0.278,0.151-0.537,0.43-0.579L956.88,425.687z"/>
			<path style="fill:#FFFFFF;" d="M977.665,424.031l6.255,0.152c0.203,0.005,0.363,0.173,0.358,0.376
				c-0.005,0.201-0.171,0.362-0.372,0.359h-0.017l-6.22-0.086h-0.019c-0.221-0.003-0.398-0.185-0.395-0.406
				c0.003-0.221,0.185-0.398,0.406-0.395L977.665,424.031z"/>
			<path style="fill:#FFFFFF;" d="M998.433,425.65l6.156,1.089c0.14,0.024,0.233,0.158,0.209,0.298
				c-0.024,0.139-0.156,0.232-0.295,0.209l-0.011-0.002l-6.143-1.02l-0.012-0.002c-0.158-0.026-0.265-0.176-0.239-0.334
				c0.026-0.158,0.176-0.265,0.334-0.239H998.433z"/>
			<path style="fill:#FFFFFF;" d="M1018.723,430.297l5.936,1.945c0.077,0.025,0.12,0.109,0.094,0.186
				c-0.025,0.077-0.113,0.117-0.19,0.092l-5.943-1.877c-0.096-0.026-0.153-0.126-0.127-0.222c0.026-0.095,0.125-0.152,0.222-0.127
				L1018.723,430.297z"/>
			<path style="fill:#FFFFFF;" d="M1038.163,437.709l5.613,2.724c0.019,0.009,0.026,0.031,0.017,0.05
				c-0.009,0.019-0.033,0.026-0.052,0.017l-5.638-2.664c-0.036-0.015-0.053-0.057-0.037-0.092c0.015-0.035,0.057-0.053,0.093-0.038
				L1038.163,437.709z"/>
		</g>
		<g>
			<g>
				
					<linearGradient id="SVGID_00000004548179453257692540000002120611827548861328_" gradientUnits="userSpaceOnUse" x1="1680.2552" y1="1066.4689" x2="1814.7186" y2="1066.4689">
					<stop  offset="0" style="stop-color:#09005D"/>
					<stop  offset="1" style="stop-color:#1A0F91"/>
				</linearGradient>
				<path style="fill:url(#SVGID_00000004548179453257692540000002120611827548861328_);" d="M1803.304,1020.591
					c0,0-0.081,0.054-0.148,0.162l-0.609,0.027c-0.068,0.094-0.73,0.256-0.73,0.446v0.013l0.582,0.203
					c0,0.203,0.271,0.459,0.217,0.743l0.135,0.122c-0.703,4.16-4.518,15.547-8.692,30.284c-0.041,0.122-0.031,0.257-0.071,0.379
					c-9.361,33.066-22.876,82.596-26.956,105.639c0,0-7.222,3.038-18.46,5.118h-0.027c-16.236,6.239-40.738,7.039-63.539,1.069
					c0,0-12.251-99.886,2.594-186.55c0,0,38.942-9.651,80.977-12.298c0.216-0.013,0.432-0.789,0.648-0.802
					c3.391-0.189,6.794-1.073,10.198-1.073h2.702c0.378,0,0.743,0,1.121,0h0.067c1.743,0,4.89,2.073,8.564,3.626
					c0.108,0.041,0.324,0.534,0.324,0.534s0.027,0,0.041,0c0,0,0.635,0.541,0.918,0.663c0.419,0.175,0.851,0.482,1.297,0.698
					c0.095,0.054,0.203,0.16,0.297,0.2c0.041,0.027,0.095,0.066,0.135,0.093c0.284,0.149,0.581,0.31,0.891,0.459
					c0.068,0.027,0.122,0.061,0.176,0.088c0.351,0.175,0.702,0.368,1.067,0.557c0.054,0.027-0.23,0.056-0.176,0.096
					c0.419,0.216,0.959,0.447,1.391,0.676c0.392,0.202,0.689,0.419,0.716,0.649l0.054-0.351c0.203,0.108,0.419,0.229,0.621,0.351
					c0.013,0,0.041,0.014,0.054,0.027c2.242,1.31,4.498,2.836,6.592,4.62c0.014,0.013,0.014,0.027,0.027,0.04
					c0.027,0.041,0.067,0.095,0.094,0.135C1815.812,992.874,1820.188,1018.498,1803.304,1020.591z"/>
				<path style="fill:#91B3FA;" d="M1950.355,1060.44l-15.798,1.471c-19.409,2.855-35.318,1.969-48.531-1.432
					c-41.258-10.619-56.169-45.81-68.717-68.641c-16.567-30.144-39.965-28.81-39.965-28.81l5.073,61.868
					c23.786,54.138,67.918,63.056,98.654,61.804c19.565-0.797,33.703-5.714,33.703-5.714
					C1951.28,1075.959,1950.355,1060.44,1950.355,1060.44z"/>
				
					<linearGradient id="SVGID_00000083810851123839265160000004760139151616317578_" gradientUnits="userSpaceOnUse" x1="1783.2051" y1="965.6232" x2="1783.7319" y2="965.6232">
					<stop  offset="0" style="stop-color:#09005D"/>
					<stop  offset="1" style="stop-color:#1A0F91"/>
				</linearGradient>
				<path style="fill:url(#SVGID_00000083810851123839265160000004760139151616317578_);" d="M1783.732,965.643
					c-0.149-0.013-0.284-0.013-0.419-0.013c-0.041-0.013-0.067-0.013-0.108-0.027L1783.732,965.643z"/>
				
					<linearGradient id="SVGID_00000160148870396708883050000001413596033138789551_" gradientUnits="userSpaceOnUse" x1="1791.3853" y1="965.1867" x2="1791.344" y2="965.2508">
					<stop  offset="0" style="stop-color:#53EAC9"/>
					<stop  offset="0.9964" style="stop-color:#45AED8"/>
				</linearGradient>
				<path style="fill:url(#SVGID_00000160148870396708883050000001413596033138789551_);" d="M1791.417,965.117c0,0,0,0.013,0,0.04
					C1791.417,965.13,1791.417,965.117,1791.417,965.117z"/>
				
					<linearGradient id="SVGID_00000121265615904085633940000002051674905716443788_" gradientUnits="userSpaceOnUse" x1="1792.1665" y1="965.2662" x2="1792.1031" y2="965.3647">
					<stop  offset="0" style="stop-color:#53EAC9"/>
					<stop  offset="0.9964" style="stop-color:#45AED8"/>
				</linearGradient>
				<path style="fill:url(#SVGID_00000121265615904085633940000002051674905716443788_);" d="M1792.255,965.184l-0.054,0.027v-0.054
					C1792.214,965.171,1792.228,965.184,1792.255,965.184z"/>
				
					<linearGradient id="SVGID_00000155861842694533192680000003208022906723991486_" gradientUnits="userSpaceOnUse" x1="1834.5375" y1="1419.6143" x2="1622.178" y2="1650.6021">
					<stop  offset="0" style="stop-color:#09005D"/>
					<stop  offset="1" style="stop-color:#1A0F91"/>
				</linearGradient>
				<path style="fill:url(#SVGID_00000155861842694533192680000003208022906723991486_);" d="M1767.41,1436.822
					c0,0-2.199,12.45-3.277,24.775c-0.422,4.817,3.292,8.999,8.123,9.2c16.413,0.683,51.52,2.013,64.117,1.45
					c1.894-0.084,3.132-2.023,2.431-3.785l0,0c-0.587-1.476-1.72-2.669-3.164-3.332l-57.99-26.652L1767.41,1436.822z"/>
				
					<linearGradient id="SVGID_00000015318051413959471850000004384106367507015846_" gradientUnits="userSpaceOnUse" x1="1765.6086" y1="1436.7703" x2="1784.4716" y2="1436.7703">
					<stop  offset="0" style="stop-color:#FF928E"/>
					<stop  offset="1" style="stop-color:#FEB3B1"/>
				</linearGradient>
				<path style="fill:url(#SVGID_00000015318051413959471850000004384106367507015846_);" d="M1765.609,1429.506l1.767,14.892
					c0,0,10.158,4.729,17.096-0.596l-4.207-16.596L1765.609,1429.506z"/>
				
					<linearGradient id="SVGID_00000093167132895315501480000016769096879089089459_" gradientUnits="userSpaceOnUse" x1="1851.2585" y1="1158.3921" x2="1670.5609" y2="1403.3043">
					<stop  offset="0" style="stop-color:#09005D"/>
					<stop  offset="1" style="stop-color:#1A0F91"/>
				</linearGradient>
				<path style="fill:url(#SVGID_00000093167132895315501480000016769096879089089459_);" d="M1766.937,1149.528
					c-0.763,3.889-4.097,194.071,16.232,279.298c0.332,1.391-0.373,2.824-1.697,3.365c-3.118,1.274-9.23,3.119-16.556,3.365
					c-2.268,0.076-4.303-1.398-4.943-3.576c-5.811-19.774-33.656-118.848-37.288-213.489c-4.059-105.753,0-3.601,0-3.601l2.38-65.37
					L1766.937,1149.528z"/>
				
					<linearGradient id="SVGID_00000073708860230575737530000002930891263941603241_" gradientUnits="userSpaceOnUse" x1="1786.8982" y1="1375.8168" x2="1574.5383" y2="1606.8049">
					<stop  offset="0" style="stop-color:#09005D"/>
					<stop  offset="1" style="stop-color:#1A0F91"/>
				</linearGradient>
				<path style="fill:url(#SVGID_00000073708860230575737530000002930891263941603241_);" d="M1700.702,1443.317
					c0,0-3.501,6.285-6.89,22.987c-0.612,3.016,1.495,5.903,4.558,6.204c5.419,0.533,13.763,1.218,20.446,1.172
					c3.081-0.021,5.485-2.704,5.114-5.762c-0.74-6.096-3.047-16.098-10.171-23.894L1700.702,1443.317z"/>
				
					<linearGradient id="SVGID_00000088103343359179083770000008337851325636419968_" gradientUnits="userSpaceOnUse" x1="1697.6274" y1="1435.803" x2="1713.9139" y2="1435.803">
					<stop  offset="0" style="stop-color:#FF928E"/>
					<stop  offset="1" style="stop-color:#FEB3B1"/>
				</linearGradient>
				<path style="fill:url(#SVGID_00000088103343359179083770000008337851325636419968_);" d="M1697.627,1424.162l4.128,22.521
					c0,0,4.083,3.037,12.158,0.835l-1.971-24.231L1697.627,1424.162z"/>
				
					<linearGradient id="SVGID_00000019642428988840534890000006152297758330004353_" gradientUnits="userSpaceOnUse" x1="1819.054" y1="1134.6313" x2="1638.3566" y2="1379.5433">
					<stop  offset="0" style="stop-color:#09005D"/>
					<stop  offset="1" style="stop-color:#1A0F91"/>
				</linearGradient>
				<path style="fill:url(#SVGID_00000019642428988840534890000006152297758330004353_);" d="M1686.474,1155.364
					c-16.627,100.342,3.606,248.003,10.43,276.903c0.418,1.769,1.846,3.125,3.639,3.422c3.046,0.505,8.06,0.917,13.004-0.519
					c1.703-0.495,2.9-2.031,2.97-3.804c0.915-23.366-0.732-166.806,14.76-223.495c0.785-2.873,2.539-5.378,4.967-7.104
					l30.069-21.377l2.305-34.553L1686.474,1155.364z"/>
				<path style="fill:#7D97F4;" d="M1706.725,1026.565l-19.111-48.246c0,0-46.541,31.622-54.194,71.716
					c8.794,0.648,24.796,2.935,40.458,10.844C1677.32,1041.946,1706.725,1026.565,1706.725,1026.565z"/>
				
					<linearGradient id="SVGID_00000075856079073450219680000008148029223482405263_" gradientUnits="userSpaceOnUse" x1="1754.6046" y1="907.9555" x2="1741.9379" y2="1020.6225">
					<stop  offset="0" style="stop-color:#FF928E"/>
					<stop  offset="1" style="stop-color:#FEB3B1"/>
				</linearGradient>
				<path style="fill:url(#SVGID_00000075856079073450219680000008148029223482405263_);" d="M1741.948,924.785l-15.854,45.849
					c-0.262,0.76,0.049,1.601,0.753,1.99c4.322,2.389,19.892,9.296,38.655-2.601c1.954-1.239,3.285-3.26,3.582-5.556l5.134-39.682
					H1741.948z"/>
				<path style="fill:#7D97F4;" d="M1711.859,973.157l18.918-16.067l28.3,69.094l-20.638,274.56l-64.436,1.927
					c-0.456,0.013-0.897-0.162-1.218-0.485c-0.322-0.323-0.495-0.765-0.48-1.22l8.996-264.141c0,0,0.247-57.078,6.313-58.506
					C1693.68,976.891,1711.859,973.157,1711.859,973.157z"/>
				<path style="fill:#91B3FA;" d="M1802.465,1020.781l-0.649,0.446v0.013l0.582,0.203l0.217,0.743l0.162,0.122l-5.12,54.516
					c0,0.014,0,0.014,0,0.027l-22.53,227.452c-0.054,0.459-0.229,0.865-0.58,1.148c-0.351,0.27-0.79,0.392-1.236,0.324
					l-34.879-5.025l10.129-136.533l0.013-0.202l11.516-141.382l10.53-56.772v-0.027l0.437-8.74l8.877,8.24l-0.107,0.013l2.56,0.148
					l1.044,0.054c1.729,0.459,8.792,3.134,8.792,3.134c0,0.041,2.461,1.108,3.65,1.675c0.067,0.027,0.075,0.054,0.13,0.081
					c0.351,0.175,0.679,0.365,1.044,0.554c0.054,0.027,0.487,0.054,0.541,0.095c0.73,0.405,2.149,0.851,2.149,1.324v0.027
					l3.513,48.154l-0.372,0.162L1802.465,1020.781z"/>
				
					<linearGradient id="SVGID_00000125600306506274498100000017495423389000187065_" gradientUnits="userSpaceOnUse" x1="1767.187" y1="1039.6881" x2="1855.2852" y2="976.2869">
					<stop  offset="0" style="stop-color:#9CFFFB"/>
					<stop  offset="1" style="stop-color:#9BFFFA"/>
				</linearGradient>
				<polygon style="fill:url(#SVGID_00000125600306506274498100000017495423389000187065_);" points="1770.62,1025.624 
					1770.62,1032.344 1795.577,1030.851 1795.577,1023.384 				"/>
				<path style="fill:#BDD0FB;" d="M1757.551,1042.083c-0.107,0-0.217-0.026-0.319-0.08l-21.744-11.677
					c-0.188-0.101-0.317-0.285-0.349-0.496l-2.979-20.053l-7.932-1.408c-0.249-0.044-0.453-0.224-0.528-0.466l-8.389-27.254
					c-0.109-0.356,0.09-0.734,0.447-0.844c0.358-0.112,0.734,0.092,0.844,0.447l8.268,26.859l8.005,1.421
					c0.285,0.051,0.507,0.278,0.55,0.566l3,20.198l21.446,11.517c0.329,0.176,0.453,0.586,0.276,0.914
					C1758.025,1041.955,1757.792,1042.083,1757.551,1042.083z"/>
				<path style="fill:#BDD0FB;" d="M1762.717,1035.37c-0.085,0-0.171-0.021-0.251-0.067c-0.243-0.138-0.327-0.448-0.189-0.691
					l11.411-20.003l-1.884-11.303c-0.036-0.214,0.07-0.428,0.262-0.53l9.18-4.885l-2.333-32.518c-0.02-0.279,0.19-0.522,0.469-0.542
					c0.285-0.01,0.522,0.19,0.541,0.469l2.356,32.846c0.015,0.2-0.09,0.389-0.267,0.484l-9.15,4.869l1.853,11.121
					c0.019,0.115-0.002,0.233-0.06,0.334l-11.5,20.16C1763.064,1035.279,1762.893,1035.37,1762.717,1035.37z"/>
				<g>
					<path style="fill:#7D97F4;" d="M1747.454,1070.551c0,0-52.253,29.531-69.884,4.315c-3.66-5.236-4.536-10.439-3.634-15.4
						c-15.663-7.909-31.665-10.196-40.459-10.844c-2.308,12.087-1.088,24.942,6.015,37.935
						c30.884,56.495,114.877-3.122,114.877-3.122L1747.454,1070.551z"/>
					<g>
						
							<linearGradient id="SVGID_00000018211114504055879070000017667102759948467337_" gradientUnits="userSpaceOnUse" x1="2032.9579" y1="863.0416" x2="1881.4656" y2="986.0354">
							<stop  offset="0" style="stop-color:#4042E2"/>
							<stop  offset="1" style="stop-color:#4F52FF"/>
						</linearGradient>
						<path style="fill:url(#SVGID_00000018211114504055879070000017667102759948467337_);" d="M1741.176,1107.91l28.518-99.591
							c0.324-1.13,1.288-1.955,2.456-2.091c5.167-0.603,20.138-2.295,37.425-3.757c20.822-1.761,45.003-3.189,59.452-1.974
							c2.054,0.172,3.296,2.345,2.382,4.194c-8.217,16.624-42.016,84.245-58.942,106.398c-0.561,0.734-1.428,1.163-2.351,1.154
							l-66.167-0.616C1742.025,1111.609,1740.646,1109.761,1741.176,1107.91z"/>
						<path style="fill:#7D97F4;" d="M1812.533,993.837l20.676-3.445c1.101-0.183,2.003,0.869,1.653,1.929l-2.047,6.202
							c-0.178,0.54-0.649,0.931-1.213,1.006l-19.896,2.658c-1.029,0.137-1.878-0.798-1.641-1.809l1.267-5.415
							C1811.469,994.379,1811.943,993.935,1812.533,993.837z"/>
						<path style="fill:#7D97F4;" d="M1797.052,1011.341l1.703-8.872c0.171-0.89,0.906-1.562,1.807-1.654l41.761-4.238
							c1.406-0.142,2.531,1.146,2.201,2.519l-2.655,11.056c-0.212,0.884-0.982,1.523-1.891,1.569l-40.809,2.054
							C1797.841,1013.842,1796.801,1012.647,1797.052,1011.341z"/>
						
							<linearGradient id="SVGID_00000102502357650924927840000010881285551822204060_" gradientUnits="userSpaceOnUse" x1="1745.3151" y1="1066.9641" x2="1783.3083" y2="1066.9641">
							<stop  offset="0" style="stop-color:#FF928E"/>
							<stop  offset="1" style="stop-color:#FEB3B1"/>
						</linearGradient>
						<path style="fill:url(#SVGID_00000102502357650924927840000010881285551822204060_);" d="M1748.066,1083.849
							c0,0-3.973-16.335-2.37-22.13c1.602-5.795,4.707-13.247,15.056-11.591c10.349,1.656,22.556,6.015,22.556,6.015
							s-0.617,7.549-8.482,5.113l4.877,3.774c0,0-0.697,6.044-7.34,2.815l4.536,5.005c0,0-2.853,4.964-7.741,1.78
							C1764.27,1071.447,1761.928,1085.816,1748.066,1083.849z"/>
					</g>
				</g>
				<path style="fill:#BDD0FB;" d="M1698.266,1085.213c-4.855,0-9.311-0.718-12.702-2.579c-0.327-0.18-0.447-0.59-0.267-0.918
					c0.179-0.326,0.59-0.445,0.917-0.267c13.924,7.644,48.291-5.444,48.637-5.578c0.092-0.032,6.773-2.352,9.158-7.01
					c0.17-0.331,0.575-0.463,0.909-0.293c0.332,0.169,0.463,0.576,0.293,0.909c-2.637,5.15-9.605,7.564-9.9,7.664
					C1734.232,1077.557,1714.124,1085.213,1698.266,1085.213z"/>
				<path style="fill:#BDD0FB;" d="M1679.419,1111.733c-0.362,0-0.661-0.392-0.674-0.756c-0.013-0.373,0.279-0.737,0.652-0.75
					c39.683-1.367,62.271-19.558,62.495-19.742c0.288-0.238,0.714-0.207,0.95,0.081c0.236,0.288,0.195,0.812-0.094,1.048
					c-0.227,0.186-23.169,20.118-63.305,20.118C1679.435,1111.733,1679.427,1111.733,1679.419,1111.733z"/>
				<g>
					
						<linearGradient id="SVGID_00000016061339645030215270000012769278147244488344_" gradientUnits="userSpaceOnUse" x1="-1708.6586" y1="1944.8578" x2="-1739.3252" y2="1869.5242" gradientTransform="matrix(0.9899 0.1417 -0.1417 0.9899 4079.1809 623.2721)">
						<stop  offset="0" style="stop-color:#FF928E"/>
						<stop  offset="1" style="stop-color:#FEB3B1"/>
					</linearGradient>
					<path style="fill:url(#SVGID_00000016061339645030215270000012769278147244488344_);" d="M1783.808,881.325
						c0,0,7.649,27.807,6.448,41.656c-1.201,13.849,0.484,23.187-15.798,23.681c-16.282,0.493-28.532-9.336-33.824-24.059
						c0,0-8.342-22.714-4.557-30.986C1739.86,883.345,1783.808,881.325,1783.808,881.325z"/>
					
						<linearGradient id="SVGID_00000159445796232468400190000017386540446013779093_" gradientUnits="userSpaceOnUse" x1="-2149.1914" y1="533.9766" x2="-2029.1133" y2="688.577" gradientTransform="matrix(-0.9899 -0.1417 -0.1417 0.9899 -246.1237 3.8094)">
						<stop  offset="0" style="stop-color:#09005D"/>
						<stop  offset="1" style="stop-color:#1A0F91"/>
					</linearGradient>
					<path style="fill:url(#SVGID_00000159445796232468400190000017386540446013779093_);" d="M1718.921,882.87
						c3.467-2.159,5.724-1.414,7.045-0.325c0.372,0.307,0.829,0.316,1.197,0.135c0.036-0.411,2.668-28.835,41.415-23.834
						c4.025,0.519,7.969-1.449,9.974-4.978c4.583-8.068,13.272-19.929,19.835-8.34c9.335,16.486,12.104,38.119-14.337,42.603
						c-1.564,0.266-3.143,0.477-4.728,0.646c-10.916,2.692-23.348,3.539-27.956,4.701c-7.698,1.941-1.816,19.85-1.816,19.85
						l-2.008-0.287l-4.281-0.613c-0.622-0.089-1.226,0.614-1.276,1.24l-0.994,12.235c-0.043,0.528-0.459,1.004-0.986,1.062
						c-1.957,0.213-7.033,0.021-14.838-5.706c-7.63-5.599-3.97-8.44-1.632-9.527c0.664-0.308,0.792-1.175,0.297-1.714
						C1713.415,898.673,1712.891,886.626,1718.921,882.87z"/>
					
						<linearGradient id="SVGID_00000150067394566926350280000006167587303945145744_" gradientUnits="userSpaceOnUse" x1="-1729.7675" y1="1953.4497" x2="-1760.434" y2="1878.1163" gradientTransform="matrix(0.9899 0.1417 -0.1417 0.9899 4079.1809 623.2721)">
						<stop  offset="0" style="stop-color:#FF928E"/>
						<stop  offset="1" style="stop-color:#FEB3B1"/>
					</linearGradient>
					<path style="fill:url(#SVGID_00000150067394566926350280000006167587303945145744_);" d="M1747.604,916.122
						c0,0-1.954-17.344-10.122-13.728c-8.168,3.615,1.209,19.292,7.146,20.781L1747.604,916.122z"/>
					<path style="fill:#7D97F4;" d="M1790.914,882.886c-0.132-0.019-0.257-0.086-0.347-0.199c-0.185-0.233-0.145-0.572,0.089-0.757
						c5.568-4.405,8.628-9.498,9.091-15.139c0.807-9.809-6.579-18.061-6.653-18.143c-0.2-0.221-0.184-0.561,0.036-0.762
						c0.222-0.201,0.563-0.184,0.762,0.036c0.318,0.35,7.772,8.669,6.931,18.949c-0.487,5.954-3.683,11.305-9.499,15.905
						C1791.205,882.872,1791.055,882.906,1790.914,882.886z"/>
				</g>
				
					<linearGradient id="SVGID_00000064335299123865397690000004980097944944262319_" gradientUnits="userSpaceOnUse" x1="1791.3853" y1="965.1867" x2="1791.344" y2="965.2508">
					<stop  offset="0" style="stop-color:#53EAC9"/>
					<stop  offset="0.9964" style="stop-color:#45AED8"/>
				</linearGradient>
				<path style="fill:url(#SVGID_00000064335299123865397690000004980097944944262319_);" d="M1791.417,965.117c0,0,0,0.013,0,0.04
					C1791.417,965.13,1791.417,965.117,1791.417,965.117z"/>
				
					<linearGradient id="SVGID_00000170981803337552880470000018101832813070149003_" gradientUnits="userSpaceOnUse" x1="2010.3015" y1="997.2136" x2="1809.8181" y2="1253.7145">
					<stop  offset="0" style="stop-color:#FF928E"/>
					<stop  offset="1" style="stop-color:#FEB3B1"/>
				</linearGradient>
				<path style="fill:url(#SVGID_00000170981803337552880470000018101832813070149003_);" d="M1933.186,1078.956
					c0,0-8.146-11.958-0.693-18.544c7.453-6.586,24.862-22.14,33.228-14.71c8.366,7.431,17.309,24.031,14.281,26.869
					C1976.975,1075.409,1963.688,1091.434,1933.186,1078.956z"/>
			</g>
			
				<linearGradient id="SVGID_00000027578090306793099170000014697770893555082918_" gradientUnits="userSpaceOnUse" x1="-1988.1642" y1="1453.3784" x2="-1943.9559" y2="1453.3784" gradientTransform="matrix(-1 0 0 1 179.7347 0)">
				<stop  offset="0" style="stop-color:#09005D"/>
				<stop  offset="1" style="stop-color:#1A0F91"/>
			</linearGradient>
			<path style="fill:url(#SVGID_00000027578090306793099170000014697770893555082918_);" d="M2123.691,1469.119
				c-0.005-0.329,0.017-0.663,0.101-0.998c4.979-19.74,29.692-32.036,29.692-32.036l9.793,0.768
				c5.631,17.399,4.907,28.069,4.003,32.822c-0.025,0.133-0.065,0.26-0.101,0.389
				C2159.101,1470.786,2142.474,1471.257,2123.691,1469.119z"/>
			
				<linearGradient id="SVGID_00000118361887286998541130000009181263893517608634_" gradientUnits="userSpaceOnUse" x1="-1877.491" y1="1401.2251" x2="-2038.3223" y2="1527.5103" gradientTransform="matrix(-1 0 0 1 179.7347 0)">
				<stop  offset="0" style="stop-color:#4042E2"/>
				<stop  offset="1" style="stop-color:#4F52FF"/>
			</linearGradient>
			<path style="fill:url(#SVGID_00000118361887286998541130000009181263893517608634_);" d="M2167.179,1470.064
				c-0.436,1.587-1.608,2.823-3.107,3.138c-11.491,2.417-29.756,0.472-37.424-0.531c-1.692-0.221-2.928-1.786-2.957-3.552
				C2142.474,1471.257,2159.101,1470.786,2167.179,1470.064z"/>
			
				<linearGradient id="SVGID_00000140001307741666908700000017551142109428700840_" gradientUnits="userSpaceOnUse" x1="-1975.8704" y1="1403.0494" x2="-1984.3149" y2="1476.7473" gradientTransform="matrix(-1 0 0 1 179.7347 0)">
				<stop  offset="0" style="stop-color:#FF928E"/>
				<stop  offset="1" style="stop-color:#FEB3B1"/>
			</linearGradient>
			<path style="fill:url(#SVGID_00000140001307741666908700000017551142109428700840_);" d="M2167.215,1422.267l-4.147,19.966
				c-0.304,1.463-1.428,2.559-2.79,2.687c-1.667,0.157-4.039,0.248-6.426-0.102c-2.14-0.314-3.63-2.489-3.25-4.822l2.883-17.728
				H2167.215z"/>
			
				<linearGradient id="SVGID_00000137103770448110799100000001666475849910879380_" gradientUnits="userSpaceOnUse" x1="-1848.9207" y1="1437.5593" x2="-2009.7515" y2="1563.8441" gradientTransform="matrix(-1 0 0 1 179.7347 0)">
				<stop  offset="0" style="stop-color:#4042E2"/>
				<stop  offset="1" style="stop-color:#4F52FF"/>
			</linearGradient>
			<path style="fill:url(#SVGID_00000137103770448110799100000001666475849910879380_);" d="M2081.28,1469.812
				c10.815-0.303,16.41-1.577,19.302-2.759c0.007,1.075,0,2.17-0.034,3.304c-0.037,1.211-0.935,2.179-2.038,2.171l-59.384-0.383
				c-1.895-0.012-3.003-2.21-2.181-3.948C2044.731,1468.84,2064.561,1470.279,2081.28,1469.812z"/>
			
				<linearGradient id="SVGID_00000108289710434720055920000004246514754760426399_" gradientUnits="userSpaceOnUse" x1="-1920.847" y1="1454.5021" x2="-1857.2098" y2="1454.5021" gradientTransform="matrix(-1 0 0 1 179.7347 0)">
				<stop  offset="0" style="stop-color:#09005D"/>
				<stop  offset="1" style="stop-color:#1A0F91"/>
			</linearGradient>
			<path style="fill:url(#SVGID_00000108289710434720055920000004246514754760426399_);" d="M2036.944,1468.197
				c0.072-0.151,0.133-0.305,0.235-0.448c5.245-7.328,18.602-21.92,44.996-28.249l12.662-0.399c0,0,5.638,9.799,5.745,27.952
				c-2.892,1.182-8.486,2.456-19.302,2.759C2064.561,1470.279,2044.731,1468.84,2036.944,1468.197z"/>
			
				<linearGradient id="SVGID_00000091011637242178271470000016591625420877619387_" gradientUnits="userSpaceOnUse" x1="-1758.7924" y1="1277.9276" x2="-1767.2371" y2="1351.6271" gradientTransform="matrix(-0.998 -0.0629 -0.0629 0.998 413.0773 24.8335)">
				<stop  offset="0" style="stop-color:#FF928E"/>
				<stop  offset="1" style="stop-color:#FEB3B1"/>
			</linearGradient>
			<path style="fill:url(#SVGID_00000091011637242178271470000016591625420877619387_);" d="M2097.749,1420.5
				c-0.2,0.933-2.834,15.14-3.855,20.648c-0.242,1.309-1.262,2.27-2.476,2.337c-2.168,0.121-5.665,0.136-8.672-0.681
				c-1.622-0.441-2.712-2.094-2.597-3.93l1.417-22.472L2097.749,1420.5z"/>
			
				<linearGradient id="SVGID_00000066503247182049170780000007760612617961228706_" gradientUnits="userSpaceOnUse" x1="2096.4719" y1="1342.3179" x2="2577.7942" y2="751.8956">
				<stop  offset="0" style="stop-color:#09005D"/>
				<stop  offset="1" style="stop-color:#1A0F91"/>
			</linearGradient>
			<path style="fill:url(#SVGID_00000066503247182049170780000007760612617961228706_);" d="M2107.344,1158.182
				c0,0-17.418,119.688-29.988,262.114c-0.234,2.653,1.88,4.961,4.486,5.51c3.84,0.809,9.484,1.769,14.157,1.638
				c2.494-0.07,4.58-1.92,4.999-4.38c4.282-25.112,34.838-159.885,42.858-189.547c0,0,9.212,125.998,6.267,191.367
				c-0.073,1.625,1.117,3.035,2.733,3.222c2.452,0.283,6.374,0.499,11.365-0.032c1.895-0.201,3.424-1.633,3.694-3.52
				c3.05-21.253,20.606-147.758,19.86-238.888c-0.042-5.139-6.03-47.363-6.03-47.363L2107.344,1158.182z"/>
			<path style="fill:#91B3FA;" d="M2100.594,956.907l-2.332,62.63c-6.624,2.279-12.93,4.052-18.934,5.376
				c-3.756-12.093-12.027-26.934-18.799-37.97C2085.411,978.148,2100.594,956.907,2100.594,956.907z"/>
			<path style="fill:#91B3FA;" d="M1976.365,955.841c34.133,36.852,61.76,39.022,84.164,31.102
				c6.772,11.035,15.043,25.877,18.799,37.97c-91.151,20.096-112.615-63.701-112.615-63.701L1976.365,955.841z"/>
			
				<linearGradient id="SVGID_00000120533697538268082560000017743960888742520245_" gradientUnits="userSpaceOnUse" x1="1951.6302" y1="934.9999" x2="1951.6302" y2="1017.5003">
				<stop  offset="0" style="stop-color:#FF928E"/>
				<stop  offset="1" style="stop-color:#FEB3B1"/>
			</linearGradient>
			<path style="fill:url(#SVGID_00000120533697538268082560000017743960888742520245_);" d="M1969.443,951.927
				c0,0-3.932-4.222-11.209-2.895c-7.277,1.327-13.754,3.855-18.288,0c-4.534-3.855-6.128,1.319-6.128,1.319l13.577,10.321
				L1969.443,951.927z"/>
			
				<linearGradient id="SVGID_00000150790098122793679910000008723595180916775069_" gradientUnits="userSpaceOnUse" x1="1972.095" y1="870.3713" x2="1958.095" y2="914.3714">
				<stop  offset="0" style="stop-color:#FF928E"/>
				<stop  offset="1" style="stop-color:#FEB3B1"/>
			</linearGradient>
			<path style="fill:url(#SVGID_00000150790098122793679910000008723595180916775069_);" d="M1977.563,959.145
				c0,0-2.694-11.265-10.813-9.721c-8.119,1.544-26.55,11.567-31.3,9.721c-4.75-1.846-10.824-6.266-13.94-4.704l5.489,6.824
				c0,0-14.111-8.141-16.54-3.139l23.48,13.213C1933.938,971.34,1968.29,967.901,1977.563,959.145z"/>
			
				<linearGradient id="SVGID_00000141422158721319149930000000385550474356620419_" gradientUnits="userSpaceOnUse" x1="-1500.9666" y1="656.9584" x2="-1750.812" y2="986.4962" gradientTransform="matrix(-0.991 -0.1339 -0.1339 0.991 646.8818 65.7909)">
				<stop  offset="0" style="stop-color:#09005D"/>
				<stop  offset="1" style="stop-color:#1A0F91"/>
			</linearGradient>
			<path style="fill:url(#SVGID_00000141422158721319149930000000385550474356620419_);" d="M2184.364,1165.08
				c1.791-0.636,3.04-2.26,3.234-4.15c2.316-22.472,13.531-161.806-57.271-219.122c0,0-4.06-10.623-37.435,15.49
				c-33.375,26.114-15.506,53.485-7.516,91.239c9.669,45.684,26.634,83.027,19.128,111.141c-0.518,1.94,0.502,3.977,2.386,4.672
				C2132.815,1173.905,2158.641,1174.221,2184.364,1165.08z"/>
			
				<linearGradient id="SVGID_00000008866284652098097750000008457885141470237103_" gradientUnits="userSpaceOnUse" x1="-1942.1821" y1="973.5057" x2="-1922.5696" y2="919.9484" gradientTransform="matrix(-1 0 0 1 179.7347 0)">
				<stop  offset="0" style="stop-color:#FF928E"/>
				<stop  offset="1" style="stop-color:#FEB3B1"/>
			</linearGradient>
			<path style="fill:url(#SVGID_00000008866284652098097750000008457885141470237103_);" d="M2102.708,900.061
				c0.022,1.983,28.294,42.14,28.294,42.14s-5.074,9.994-29.301,18.109l-20.912-42.996L2102.708,900.061z"/>
			
				<linearGradient id="SVGID_00000026127928930891352270000007430708182389958306_" gradientUnits="userSpaceOnUse" x1="2027.4082" y1="997.1829" x2="2017.4082" y2="1053.6829">
				<stop  offset="0" style="stop-color:#FF928E"/>
				<stop  offset="1" style="stop-color:#FEB3B1"/>
			</linearGradient>
			<path style="fill:url(#SVGID_00000026127928930891352270000007430708182389958306_);" d="M2099.009,1045.993
				c0,0-53.64,44.924-111.562,25.321c-3.592-1.216-7.521-0.952-10.874,0.819l-16.652,8.794c-6.989,3.691-15.645,1.268-19.701-5.516
				c-2.313-3.87-4.288-8.29-4.68-12.524l32.583-13.191l-2.402-3.995c0,0,15.909-1.348,20.072,10.054c0,0,38.589,20.05,89.69-36.157
				C2075.483,1019.598,2090.385,1031.87,2099.009,1045.993z"/>
			
				<linearGradient id="SVGID_00000158011241421370253640000014800750547317896868_" gradientUnits="userSpaceOnUse" x1="2115.7949" y1="1016.6833" x2="2150.615" y2="1016.6833">
				<stop  offset="0" style="stop-color:#FDF53F"/>
				<stop  offset="0.294" style="stop-color:#F2BF4A"/>
				<stop  offset="1" style="stop-color:#D93C65"/>
			</linearGradient>
			<path style="fill:url(#SVGID_00000158011241421370253640000014800750547317896868_);" d="M2116.714,1037.469
				c0.177,0,0.356-0.05,0.513-0.158c22.586-15.26,33.21-39.89,33.315-40.137c0.197-0.468-0.021-1.006-0.487-1.203
				c-0.468-0.199-1.005,0.018-1.204,0.486c-0.102,0.242-10.53,24.386-32.652,39.334c-0.42,0.283-0.531,0.854-0.246,1.275
				C2116.129,1037.328,2116.419,1037.469,2116.714,1037.469z"/>
			
				<linearGradient id="SVGID_00000165201922012216592920000005870313170569288595_" gradientUnits="userSpaceOnUse" x1="1974.377" y1="1087.427" x2="2005.3771" y2="1158.4272">
				<stop  offset="0" style="stop-color:#FF928E"/>
				<stop  offset="1" style="stop-color:#FEB3B1"/>
			</linearGradient>
			<path style="fill:url(#SVGID_00000165201922012216592920000005870313170569288595_);" d="M1980.002,1072.571
				c0,0-13.631,13.333-16.261,11.392c-0.936-0.691-3.299-3.199-5.589-5.992c-1.616-1.971-1.784-4.756-0.398-6.895l3.215-4.961
				c3.063-4.727,9.623-5.719,13.871-2.021C1976.984,1065.96,1978.929,1068.661,1980.002,1072.571z"/>
			<g>
				
					<linearGradient id="SVGID_00000165954398476251210880000017118486074622134194_" gradientUnits="userSpaceOnUse" x1="4188.3804" y1="4936.8008" x2="4128.0762" y2="5016.5786" gradientTransform="matrix(-0.6854 -0.7281 -0.7281 0.6854 8556.583 544.7815)">
					<stop  offset="0" style="stop-color:#FF928E"/>
					<stop  offset="1" style="stop-color:#FEB3B1"/>
				</linearGradient>
				<path style="fill:url(#SVGID_00000165954398476251210880000017118486074622134194_);" d="M2083.525,870.05
					c-0.579,0.545-24.431,47.385-24.431,47.385l27.034,13.051l29.202-41.036C2115.331,889.449,2093.216,860.927,2083.525,870.05z"/>
				
					<linearGradient id="SVGID_00000125573805867180864430000017704544084903948673_" gradientUnits="userSpaceOnUse" x1="4142.3247" y1="4955.9595" x2="4214.3589" y2="4955.9595" gradientTransform="matrix(-0.6854 -0.7281 -0.7281 0.6854 8556.583 544.7815)">
					<stop  offset="0" style="stop-color:#09005D"/>
					<stop  offset="1" style="stop-color:#1A0F91"/>
				</linearGradient>
				<path style="fill:url(#SVGID_00000125573805867180864430000017704544084903948673_);" d="M2103.045,894.373l-13.483,22.476
					c-0.205,0.341-0.448,0.649-0.74,0.92c-1.605,1.494-7.096,5.839-11.342-0.077c-3.619-5.043-7.014-9.627-10.652-11.517
					c-2.124-1.104-4.739-0.222-5.817,1.915c-2.221,4.403-6.524,13.378-9.228,21.889c-0.677,2.133,0.424,4.423,2.498,5.264
					c5.474,2.218,16.293,6.229,25.894,7.554c1.577,0.218,3.138-0.448,4.077-1.734c4.13-5.659,15.772-21.472,19.746-25.43
					c3.691-3.677,10.504-2.291,13.574-1.409c1.165,0.335,2.406,0.174,3.445-0.452c3.115-1.876,8.55-6.548,3.578-14.457
					c-1.236-1.967-0.606-4.586,1.335-5.863c3.477-2.287,7.251-6.581,3.656-13.535c-3.639-7.039-10.139-7.671-14.565-7.13
					c-1.959,0.239-3.947-0.788-4.698-2.612c-0.334-0.811-0.995-1.503-2.225-1.753c-2.32-0.471-3.843-2.592-3.387-4.915
					c0.781-3.983,0.193-9.158-6.167-12.655c-11.664-6.413-21.882,4.037-24.48,12.858s10.444,15.056,18.648,16.096
					c6.026,0.764,9.33,7.341,10.659,10.779C2103.852,891.833,2103.733,893.226,2103.045,894.373z"/>
				
					<linearGradient id="SVGID_00000130624180008891026750000004573794574825534595_" gradientUnits="userSpaceOnUse" x1="4100.0581" y1="4999.9785" x2="4148.4268" y2="4950.3535" gradientTransform="matrix(-0.6854 -0.7281 -0.7281 0.6854 8556.583 544.7815)">
					<stop  offset="0" style="stop-color:#FF928E"/>
					<stop  offset="1" style="stop-color:#FEB3B1"/>
				</linearGradient>
				<path style="fill:url(#SVGID_00000130624180008891026750000004573794574825534595_);" d="M2098.934,923.888
					c0,0,5.187-15.177,11.826-14.62c6.639,0.557,11.865,7.171,3.636,14.607C2104.162,933.123,2098.934,923.888,2098.934,923.888z"/>
				<path style="fill:#91B3FA;" d="M2077.726,863.964c-0.124,0-0.251-0.031-0.368-0.094c-0.38-0.203-0.522-0.676-0.319-1.056
					c6.416-11.94,14.04-11.195,14.365-11.15c0.427,0.051,0.733,0.437,0.683,0.865c-0.051,0.424-0.444,0.703-0.861,0.684l0,0
					c-0.277-0.036-6.935-0.601-12.813,10.34C2078.273,863.816,2078.004,863.964,2077.726,863.964z"/>
			</g>
			<path style="fill:#91B3FA;" d="M2098.257,953.228c0,0-18.479,21.558-17.468,46.563c8.55,22.406,31.825,121.452,35.005,167.467
				c3.18,46.015-7.02,116.093-7.02,116.093l-19.948,22.442c0,0,19.932-137.634,8.922-174.35
				c-11.009-36.715-52.127-146.156-1.412-182.164L2098.257,953.228z"/>
			<path style="fill:#7D97F4;" d="M2146.957,966.381c-6.339-12.066-18.515-21.81-41.061-3.362
				c-40.102,32.813-1.118,59.484-120.103,92.737l-1.958,14.858c0,0,27.396,18.523,67.75,6.24
				c32.727-9.961,76.868-40.909,94.329-70.278C2153.226,994.275,2153.613,979.05,2146.957,966.381z"/>
			<path style="fill:#7D97F4;" d="M2101.702,960.309l-20.912,44.863c0,0,28.82,114.564,30.929,128.957s0.374,116.007-2.943,149.222
				c28.571,20.737,87.497,22.442,87.497,22.442s12.479-165.378,0-238.828c-12.478-73.451-51.543-126.072-68.579-129.484
				C2123.135,943.427,2101.702,960.309,2101.702,960.309z"/>
			<g>
				<g>
					<path style="fill:#91B3FA;" d="M2100.595,1053.322c-0.489,0-0.971-0.23-1.274-0.66c-0.498-0.703-0.33-1.676,0.373-2.173
						c0.478-0.337,47.795-34.062,49.365-58.655c0.054-0.859,0.78-1.596,1.656-1.456c0.859,0.055,1.512,0.796,1.457,1.655
						c-1.664,26.076-48.677,59.589-50.677,61.003C2101.22,1053.228,2100.906,1053.322,2100.595,1053.322z"/>
				</g>
				<g>
					<path style="fill:#91B3FA;" d="M2095.828,974.468c-0.309,0-0.619-0.091-0.892-0.28c-0.706-0.494-0.879-1.464-0.387-2.171
						c0.588-0.843,14.565-20.667,29.14-22.658c4.603-0.626,8.78,0.575,12.415,3.577c0.664,0.548,0.759,1.531,0.209,2.196
						c-0.546,0.664-1.532,0.757-2.195,0.209c-2.977-2.458-6.248-3.4-10.003-2.892c-13.221,1.804-26.871,21.157-27.007,21.352
						C2096.805,974.235,2096.321,974.468,2095.828,974.468z"/>
				</g>
			</g>
		</g>
	</g>
</g>
</svg>
