<?xml version="1.0" encoding="utf-8"?>
<!-- Generator: Adobe Illustrator 27.5.0, SVG Export Plug-In . SVG Version: 6.00 Build 0)  -->
<svg version="1.1" xmlns="http://www.w3.org/2000/svg" xmlns:xlink="http://www.w3.org/1999/xlink" x="0px" y="0px"
	 viewBox="0 0 500 500" style="enable-background:new 0 0 500 500;" xml:space="preserve">
<g id="Floor">
	<ellipse id="Floor_5_" style="fill:#F5F5F5;" cx="251.124" cy="349.693" rx="233.348" ry="130.439"/>
</g>
<g id="Shadows">
	<ellipse id="Shadow_2_" style="fill:#E0E0E0;" cx="395.251" cy="365.319" rx="61.781" ry="35.669"/>
	<ellipse id="Shadow_28_" style="fill:#E0E0E0;" cx="108.748" cy="358.283" rx="61.781" ry="35.669"/>
</g>
<g id="Plants">
	<g id="Plants_3_">
		<g id="XMLID_398_">
			<path id="XMLID_405_" style="fill:#27DEBF;" d="M425.659,332.496c0,0-0.765-14.061,4.286-25.928
				c5.051-11.867,13.35-20.145,22.03-22.329s17.155,4.708,8.682,11.859c-8.473,7.151-24.238,15.652-28.418,37.743L425.659,332.496z"
				/>
			<path id="XMLID_409_" style="opacity:0.15;" d="M425.659,332.496c0,0-0.765-14.061,4.286-25.928
				c5.051-11.867,13.35-20.145,22.03-22.329s17.155,4.708,8.682,11.859c-8.473,7.151-24.238,15.652-28.418,37.743L425.659,332.496z"
				/>
			<g id="XMLID_399_">
				<path id="XMLID_400_" style="fill:#FFFFFF;" d="M427.632,328.477c-0.033,0-0.065-0.004-0.098-0.012
					c-0.257-0.056-0.419-0.311-0.362-0.568c5.416-24.435,21.476-36.972,29.212-40.187c0.242-0.103,0.521,0.015,0.623,0.257
					c0.101,0.243-0.014,0.522-0.257,0.623c-7.577,3.149-23.316,15.462-28.647,39.513
					C428.053,328.328,427.853,328.48,427.632,328.477z"/>
			</g>
		</g>
		<g id="XMLID_259_">
			<g id="XMLID_391_">
				<g id="XMLID_396_">
					<path id="XMLID_397_" style="fill:#27DEBF;" d="M429.015,340.067c-0.136-1.128-0.24-2.262-0.391-3.388
						c-0.108-0.807-0.41-1.53-0.504-2.353c-0.205-1.799-0.22-3.727,0.701-5.348c0.736-1.296,1.87-2.312,2.983-3.305
						c1.113-0.993,2.245-2.011,2.976-3.31c0.48-0.853,0.771-1.798,1.192-2.682c1.396-2.924,4.335-5.012,7.519-5.512
						c1.694-0.266,3.188-0.228,4.856,0.17c1.794,0.429,3.639,0.987,5.501,0.688c2.725-0.437,5.326-1.474,8.146-1.597
						c2.949-0.129,6.074,0.773,8.028,3.095c1.098,1.305,1.763,3.114,1.253,4.741c-0.564,1.793-2.326,2.893-3.982,3.789
						c-1.646,0.888-3.451,1.858-4.204,3.579c-1.518,3.474,2.102,7.707,0.436,11.112c-0.7,1.427-2.202,2.309-3.725,2.764
						c-1.264,0.388-2.58,0.536-3.878,0.795c-0.632,0.058-1.261,0.083-1.879,0.066c-1.827-0.057-3.787,0.08-5.33,1.187
						c-2.426,1.75-2.851,5.113-4.138,7.815c-1.544,3.235-4.656,5.592-8.108,6.466c-2.896,0.722-7.375,0.563-8.282-0.651
						c-0.689-0.923,0.694-4.098,0.601-5.246c-0.239-2.945-0.199-5.912,0.119-8.849C429.06,342.664,429.188,341.499,429.015,340.067z
						"/>
				</g>
			</g>
			<g id="XMLID_387_">
				<path id="XMLID_389_" style="fill:#FFFFFF;" d="M429.774,350.629c-0.012-0.001-0.023-0.002-0.035-0.004
					c-0.23-0.034-0.39-0.249-0.355-0.481c3.908-26.312,30.398-33.057,36.745-33.317c0.23-0.007,0.43,0.172,0.44,0.405
					c0.01,0.233-0.172,0.43-0.405,0.44c-6.209,0.254-32.12,6.853-35.944,32.596C430.187,350.489,429.991,350.643,429.774,350.629z"
					/>
			</g>
			<g id="XMLID_383_">
				<path id="XMLID_385_" style="fill:#FFFFFF;" d="M458.203,334.294c-0.083-0.006-0.166-0.036-0.236-0.092
					c-0.075-0.061-7.706-6.048-18.898-3.08c-0.226,0.057-0.458-0.074-0.518-0.3c-0.06-0.226,0.075-0.458,0.3-0.518
					c11.625-3.079,19.566,3.175,19.645,3.239c0.182,0.146,0.21,0.413,0.064,0.595C458.471,334.249,458.336,334.303,458.203,334.294z
					"/>
			</g>
		</g>
	</g>
	<g id="Plants_4_">
		<g id="XMLID_589_">
			<path id="XMLID_617_" style="fill:#27DEBF;" d="M78.05,312.815l4.876-12.504c0,0,4.437-16.53-6.906-36.708
				c-6.887-12.252-16.575-9.927-20.186-5.601c-3.611,4.326-4.337,12.398,2.946,22.488c11.404,15.799,18.375,37.264,16.039,50.156
				L78.05,312.815z"/>
			<path id="XMLID_619_" style="opacity:0.15;" d="M78.05,312.815l4.876-12.504c0,0,4.437-16.53-6.906-36.708
				c-6.887-12.252-16.575-9.927-20.186-5.601c-3.611,4.326-4.337,12.398,2.946,22.488c11.404,15.799,18.375,37.264,16.039,50.156
				L78.05,312.815z"/>
			<g id="XMLID_590_">
				<path id="XMLID_591_" style="fill:#FFFFFF;" d="M78.729,309.064c-0.28-0.051-0.49-0.298-0.486-0.591
					c0.41-26.662-16.072-47.997-16.239-48.21c-0.202-0.258-0.157-0.63,0.101-0.831c0.257-0.203,0.629-0.155,0.831,0.1
					c0.169,0.216,16.908,21.867,16.491,48.958c-0.005,0.327-0.274,0.588-0.601,0.583C78.793,309.073,78.76,309.07,78.729,309.064z"
					/>
			</g>
		</g>
		<g id="XMLID_410_">
			<g id="XMLID_484_">
				<path id="XMLID_515_" style="fill:#27DEBF;" d="M80.041,316.284c-0.296-1.512-1.044-2.928-2.303-3.784
					c-0.953-0.648-2.149-0.953-2.934-1.795c-1.216-1.305-1.004-3.335-0.855-5.112c0.15-1.795,0.155-3.602,0.013-5.397
					c-0.102-1.298-0.297-2.637-0.992-3.738c-1.118-1.77-3.305-2.564-5.385-2.801c-2.08-0.236-4.201-0.039-6.263-0.4
					c-3.491-0.612-6.233-2.727-8.994-4.799c-2.595-1.948-5.415-3.491-8.766-2.833c-4.132,0.812-5.286,4.536-4.599,8.288
					c0.352,1.925,1.102,3.757,2.048,5.462c1.017,1.835,2.308,3.205,1.619,5.473c-0.502,1.651-1.612,3.055-2.21,4.674
					c-0.982,2.658-0.468,5.719,0.939,8.179c1.407,2.46,3.625,4.372,6.039,5.855c1.79,1.1,3.909,2.246,4.345,4.302
					c0.224,1.056-0.062,2.142-0.183,3.215c-0.4,3.525,1.056,7.117,3.471,9.716c2.415,2.599,5.709,4.269,9.138,5.179
					c2.94,0.78,6.11,1.023,8.996,0.063c4.95-1.646,4.999-8.305,3.781-12.496c-1.615-5.654,3.174-10.067,3.24-15.624
					C80.194,317.369,80.146,316.82,80.041,316.284z"/>
			</g>
			<g id="XMLID_443_">
				<path id="XMLID_483_" style="fill:#FFFFFF;" d="M72.381,339.565c-0.184-0.034-0.334-0.181-0.363-0.377
					c-4.259-29.448-23.347-44.525-23.539-44.673c-0.196-0.152-0.232-0.433-0.08-0.629c0.15-0.196,0.432-0.233,0.628-0.081
					c0.196,0.151,19.565,15.431,23.877,45.255c0.036,0.245-0.134,0.472-0.379,0.507C72.476,339.574,72.427,339.573,72.381,339.565z"
					/>
			</g>
			<g id="XMLID_414_">
				<path id="XMLID_441_" style="fill:#FFFFFF;" d="M65.86,317.93c-0.033-0.006-0.065-0.015-0.096-0.029
					c-5.843-2.511-15.743-3.546-15.842-3.558c-0.249-0.026-0.426-0.244-0.401-0.491c0.025-0.246,0.245-0.426,0.492-0.4
					c0.411,0.041,10.135,1.061,16.104,3.626c0.228,0.098,0.333,0.361,0.235,0.589C66.268,317.861,66.061,317.967,65.86,317.93z"/>
			</g>
			<g id="XMLID_411_">
				<path id="XMLID_412_" style="fill:#FFFFFF;" d="M63.093,312.25c-0.008-0.001-0.016-0.003-0.025-0.005
					c-0.241-0.057-0.389-0.3-0.331-0.54c1.167-4.843,3.564-8.764,3.665-8.929c0.13-0.21,0.407-0.278,0.617-0.146
					c0.211,0.129,0.276,0.406,0.146,0.617c-0.024,0.039-2.423,3.969-3.556,8.667C63.554,312.146,63.326,312.292,63.093,312.25z"/>
			</g>
		</g>
	</g>
</g>
<g id="Chart_1_">
	<g id="Chart">
		<g>
			<polygon style="fill:#263238;" points="317.004,184.443 302.528,173.503 271.915,128.32 286.391,139.27 			"/>
			<path id="XMLID_286_" style="fill:#37474F;" d="M317.004,184.441l-30.61-45.175l54.533-49.616
				C345.711,118.206,336.52,154.616,317.004,184.441z"/>
			<polygon id="XMLID_290_" style="fill:#455A64;" points="286.394,139.266 271.919,128.323 326.453,78.707 340.927,89.65 			"/>
		</g>
		<g id="XMLID_269_">
			<path style="fill:#27DEBF;" d="M309.85,47.133c1.336,0.993,14.124,10.681,14.922,11.284c-3.498-2.682-7.461-4.547-11.832-5.531
				c-13.771-3.081-29.927,3.025-45.516,17.214c-12.62,11.47-22.819,25.742-31.096,43.531l-14.476-10.941
				c8.277-17.789,18.476-32.061,31.096-43.54c15.59-14.179,31.755-20.285,45.516-17.214
				C302.649,42.874,306.462,44.627,309.85,47.133z"/>
			<path style="opacity:0.4;fill:#FFFFFF;" d="M309.85,47.133c1.336,0.993,14.124,10.681,14.922,11.284
				c-3.498-2.682-7.461-4.547-11.832-5.531c-13.771-3.081-29.927,3.025-45.516,17.214c-12.62,11.47-22.819,25.742-31.096,43.531
				l-14.476-10.941c8.277-17.789,18.476-32.061,31.096-43.54c15.59-14.179,31.755-20.285,45.516-17.214
				C302.649,42.874,306.462,44.627,309.85,47.133z"/>
			<path id="XMLID_287_" style="fill:#27DEBF;" d="M237.678,114.258l-1.354-0.629c8.28-17.785,18.478-32.056,31.095-43.533
				c15.591-14.181,31.753-20.292,45.522-17.214c12.976,2.906,22.358,13.648,26.649,30.394l-10.211,9.291l-46.772,42.553
				L237.678,114.258z"/>
		</g>
		<g>
			<polygon style="fill:#27DEBF;" points="284.73,150.341 284.73,218.017 270.254,207.076 270.254,139.391 			"/>
			<polygon style="opacity:0.3;fill:#FFFFFF;" points="284.73,150.341 284.73,218.017 270.254,207.076 270.254,139.391 			"/>
			<path id="XMLID_308_" style="fill:#27DEBF;" d="M284.729,218.018l0-67.68l27.646,40.8
				C303.546,203.289,295.021,211.577,284.729,218.018z"/>
			<path id="XMLID_282_" style="opacity:0.6;fill:#FFFFFF;" d="M284.729,218.018l0-67.68l27.646,40.8
				C303.546,203.289,295.021,211.577,284.729,218.018z"/>
		</g>
	</g>
</g>
<g id="Character_2">
	<g id="Character_2_">
		<g id="XMLID_4622_">
			<g id="XMLID_4623_">
				<path id="XMLID_4624_" style="fill:#E0E0E0;" d="M394.726,134.518c-7.639,0.358-10.258,2.332-13.892,7.33
					c-4.44,6.107-25.046,37.081-25.046,37.081s6.328,8.963,14.064,8.12l16.248-17.405L394.726,134.518z"/>
			</g>
		</g>
		<g id="XMLID_3945_">
			<rect id="XMLID_3987_" x="420.534" y="342.72" style="fill:#FFA8A7;" width="9.881" height="17.617"/>
			<polygon id="XMLID_3986_" style="fill:#FFA8A7;" points="396.157,341.78 386.282,342.134 385.787,323.49 396.157,323.137 			"/>
			<path id="XMLID_3985_" style="fill:#455A64;" d="M431.805,190.193c0,9.827-0.242,89.276-0.242,89.276
				c0.23,2.828,1.571,7.678,1.02,18.538c-0.748,14.753-1.746,53.522-1.746,53.522s-4.796,2.919-11.001,0.226
				c0,0-9.346-53.698-11.116-68.318c-1.545-12.76-4.167-55.72-4.167-55.72l-5.356,49.952c0,0,1.821,7.61,1.224,16.355
				c-0.462,6.763-3.639,41.982-3.639,41.982s-4.651,3.287-11.408,0.909c0,0-7.283-53.345-7.397-59.549
				c-0.13-7.074,2.862-87.278,2.862-87.278L431.805,190.193z"/>
			<path id="XMLID_3984_" style="fill:#263238;" d="M420.534,355.258v-1.472c-0.945,0.429-3.142,9.157-7.062,12.882
				c-3.117,2.961-7.368,6.38-8.449,9.681c-1.125,3.433,5.92,5.328,8.832,4.791c3.383-0.624,9.247-3.105,10.719-5.405
				c1.472-2.3,2.161-5.693,3.357-7.379c1.196-1.686,3.953-3.568,4.6-5.519c0.355-1.072-0.067-3.419-0.566-5.402
				c-0.458-1.82-0.954-3.82-1.551-3.65c-0.002,0.222,0,1.122,0,1.122c-0.717,0.828-2.702,1.65-4.94,1.739
				C424.029,356.705,420.522,356.406,420.534,355.258z"/>
			<path id="XMLID_3983_" style="fill:#263238;" d="M386.177,338.961c-0.513,0.019-0.931,0.772-2.062,2.048
				c-1.368,1.542-3.605,3.205-5.812,4.356c-3.7,1.929-10.893,4.896-14.148,6.424c-2.034,0.954-1.939,3.513,0.164,4.969
				c2.102,1.456,7.177,2.505,13.272,1.086c3.32-0.773,7.642-3.967,10.377-3.795c2.736,0.173,7.854,0.131,9.873-1.318
				c2.019-1.449,1.211-4.546,0.64-7.206c-0.622-2.904-1.402-7.431-2.324-7.233v1.001c-1.188,1.873-7.318,2.636-9.927,1.257
				L386.177,338.961z"/>
			<path id="XMLID_3980_" style="fill:#263238;" d="M404.552,227.717c0,0-7.897-2.317-13.759-8.217c0,0,2.655,5.177,10.55,9.995
				l-1.689,44.608L404.552,227.717z"/>
		</g>
		<g id="XMLID_3920_">
			<path id="XMLID_3931_" style="fill:#F0F0F0;" d="M426.665,136.591c0,0,7.732,0.707,7.183,15.438l-1.708,23.464l0.047,35.212
				c-7.266,8.233-41.523,7.603-52.551-0.686c0,0,1.299-40.415,2.044-56.449c0.529-11.399,5.149-18.367,16.353-19.623l13.778,0.606
				L426.665,136.591z"/>
			<polygon id="XMLID_3921_" style="opacity:0.1;" points="404.709,144.316 402.935,156.687 398.802,156.609 403.464,157.345 			"/>
		</g>
		<g id="XMLID_3860_">
			<path id="XMLID_3880_" style="fill:#263238;" d="M414.741,104.669c0,8.135-6.331,14.729-14.141,14.729
				c-7.81,0-13.789-6.602-14.141-14.729c-0.623-14.383,6.332-14.729,14.141-14.729C408.409,89.94,414.741,96.534,414.741,104.669z"
				/>
			<g id="XMLID_3871_">
				<path style="fill:#263238;" d="M423.286,98.961c-1.652-2.581-3.207-2.192-3.207-2.192L418.99,109.3l-1.743,0.357l-0.152,16.913
					c0,0,1.264-0.544,2.134-2.288c0.589-1.18,1.837-8.334,2.541-12.623C421.77,111.659,424.703,101.174,423.286,98.961z"/>
				<path id="XMLID_3877_" style="fill:#FFA8A7;" d="M417.49,112.466c0.819,0.51,1.988-1.13,2.999-2.23
					c1.01-1.101,4.308-2.605,5.954,1.005c1.676,3.68-1.453,8.542-4.049,9.39c-4.475,1.463-5.146-1.526-5.146-1.526l-0.342,16.811
					c-5.941,9.189-19.397,8.857-14.559-0.445l0.013-5.116c0,0-4.054,0.641-6.032,0.322c-3.291-0.53-5.361-3.234-6.359-6.944
					c-1.603-5.959-2.212-10.771-0.852-22.491c1.491-12.845,15.836-12.979,23.582-7.901C420.444,98.42,417.49,112.466,417.49,112.466
					z"/>
				<path id="XMLID_3876_" style="fill:#455A64;" d="M416.982,132.147c0,0-2.09,4.519-5.818,7.29
					c-3.427,2.547-7.039,2.992-7.039,2.992s3.485,2.308,4.967,5.576c1.481,3.268,11.934-5.729,11.841-12.112
					c0,0-1.641-6.411-3.887-6.823L416.982,132.147z"/>
				<path id="XMLID_3875_" style="fill:#455A64;" d="M404.125,142.429c0,0-3.223-1.602-1.778-6.958l0.013-5.116l-1.413,0.189
					c-1.099,0.99-2.83,3.32-3.396,5.883c-0.323,1.465-1.118,8.888,0.298,10.363C399.138,148.132,401.237,142.827,404.125,142.429z"
					/>
				<path id="XMLID_3874_" style="fill:#263238;" d="M395.706,100.345c6.653,0.171,10.782-1.233,16.285-1.885
					c0.372-0.044,0.766-0.081,1.108,0.073c1.215,0.552,1.477,4.331,1.69,5.424c0.719,3.68,1.316,9.916,2.701,9.944
					c0.412,0.008,1.979-2.7,2.999-3.666c1.413-1.339-0.408-13.458-0.41-13.466c-0.063-0.422,0.313-1.181,0.333-1.648
					c0.05-1.172-0.325-2.065-0.864-3.068c-1.029-1.917-2.941-3.247-4.93-4.025c-3.728-1.457-7.823-1.278-11.525-2.944
					c-1.48-0.666-2.868-1.567-4.434-1.994c-1.566-0.427-3.437-0.271-4.534,0.926c-0.726,0.791-0.993,1.892-1.171,2.95
					c-0.776-1.017-1.601-2.075-2.77-2.594c-2.165-0.961-4.848,0.388-5.961,2.478c-1.113,2.091-0.944,4.651-0.257,6.918
					c0.225,0.741,0.504,1.471,0.915,2.127C386.954,99.204,392.108,100.252,395.706,100.345z"/>
				<path id="XMLID_3873_" style="fill:#263238;" d="M420.071,97.409l4.953-2.769c-0.703-1.478-2.382-2.057-3.75-1.292
					C419.907,94.113,419.368,95.931,420.071,97.409z"/>
				<path id="XMLID_3872_" style="fill:#F28F8F;" d="M402.359,130.355c0,0,7.346-1.542,9.914-2.963
					c1.719-0.952,3.135-2.601,3.55-3.659c0,0-0.481,2.27-2.017,4.315c-1.878,2.501-11.447,4.342-11.447,4.342L402.359,130.355z"/>
			</g>
			<g id="XMLID_3861_">
				<path id="XMLID_3870_" style="fill:#263238;" d="M404.125,110.553c0,0.88,0.659,1.591,1.472,1.589
					c0.813-0.002,1.472-0.717,1.472-1.597c0-0.88-0.659-1.591-1.472-1.589C404.784,108.958,404.125,109.673,404.125,110.553z"/>
				<path id="XMLID_3869_" style="fill:#263238;" d="M405.96,104.907l3.149,1.81c0.464-0.942,0.136-2.112-0.734-2.611
					C407.505,103.606,406.424,103.965,405.96,104.907z"/>
				<path id="XMLID_3868_" style="fill:#F28F8F;" d="M403.025,121.144l-3.361,1.313c0.333,1.003,1.354,1.522,2.283,1.16
					C402.875,123.255,403.357,122.147,403.025,121.144z"/>
				<path id="XMLID_3864_" style="fill:#263238;" d="M390.901,106.841l2.872-2.304c-0.586-0.857-1.703-1.035-2.496-0.399
					C390.483,104.774,390.315,105.984,390.901,106.841z"/>
				<path id="XMLID_3863_" style="fill:#263238;" d="M391.882,110.116c0,0.88,0.659,1.591,1.472,1.589
					c0.813-0.002,1.472-0.717,1.472-1.597c0-0.88-0.659-1.591-1.472-1.589C392.541,108.521,391.882,109.237,391.882,110.116z"/>
				<polygon id="XMLID_3862_" style="fill:#F28F8F;" points="399.759,108.885 399.588,118.183 394.312,116.973 				"/>
			</g>
		</g>
		<g id="XMLID_3992_">
			<g id="XMLID_4067_">
				<path id="XMLID_4359_" style="fill:#FFA8A7;" d="M443.775,187.001c0,0-8.556,12.996-10.028,14.696
					c-1.472,1.7-2.473,1.134-4.063,0.378c-1.59-0.756-4.61-1.724-5.947-2.078c-2.616-0.693-3.179,1.889-0.589,3.73
					c1.873,1.331,4.018,1.913,3.121,3.007c-0.897,1.093-3.667,3.006-6.241,4.092c-6.315,2.663-5.827,3.999-4.664,6.186
					c1.012,1.905,3.963,6.011,15.258,1.161c4.66-2.001,11.224-7.688,14.319-11.354c4.466-5.292,11.433-14.771,11.433-14.771
					L443.775,187.001z"/>
				<path id="XMLID_4358_" style="fill:#E0E0E0;" d="M427.336,136.848c3.099,0.221,10.66,2.189,17.966,15.16
					c6.408,11.376,14.836,25.521,15.075,31.377c0.078,1.901-3.672,9.175-8.108,14.968c-5.115-0.239-9.14-4.39-11.554-7.412
					c1.406-2.348,3.02-5.874,3.02-5.874l-12.929-20.025c0,0-5.4-5.5-6.592-12.799C422.937,144.423,425.438,137.44,427.336,136.848z"
					/>
			</g>
			<g id="XMLID_3993_">
				<g id="XMLID_4063_">
					<polygon id="XMLID_4065_" style="fill:#27DEBF;" points="345.479,161.883 382.43,172.289 392.601,216.989 357.47,206.08 					
						"/>
				</g>
				<g id="XMLID_4061_" style="opacity:0.2;">
					<path id="XMLID_4062_" d="M362.175,193.538c-0.342,1.002-2.608,4.634-6.91,4.415l-0.268-0.988L362.175,193.538z"/>
				</g>
				<g id="XMLID_4055_" style="opacity:0.2;">
					<path id="XMLID_4056_" d="M356.61,168.983c0,0-0.136-0.675-0.305-1.507c-0.168-0.832,2-0.868,4.844-0.08l5.444,1.51
						c2.843,0.788,5.284,2.102,5.453,2.934l0.305,1.507L356.61,168.983z"/>
				</g>
				<g id="XMLID_4000_">
					<path id="XMLID_4001_" style="fill:#37474F;" d="M353.772,163.32c-0.107-0.52,0.771-0.656,1.962-0.305l2.156,0.637
						c0,0-0.643-3.259,4.141-2.12c4.784,1.139,5.83,4.839,5.83,4.839s1.03,0.313,2.301,0.699c1.271,0.386,2.423,1.119,2.573,1.637
						l0.272,0.938l-19.034-5.358C353.974,164.286,353.879,163.839,353.772,163.32z"/>
				</g>
				<g id="XMLID_3998_">
					<path id="XMLID_3999_" style="fill:#263238;" d="M356.393,164.927c1.744,0.45,2.469,0.698,2.729,1.98
						c0.298,1.465,0.419,2.54,0.419,2.54l8.424,2.38c0,0-0.407-1.855-0.537-2.578c-0.13-0.723,0.157-1.158,1.497-0.78l0.113-0.574
						l-13.2-3.593L356.393,164.927z"/>
				</g>
				<g id="XMLID_3996_">
					<path id="XMLID_3997_" style="fill:#37474F;" d="M356.104,169.125c0,0-0.136-0.674-0.305-1.507
						c-0.168-0.832,2-0.868,4.844-0.079l5.444,1.509c2.843,0.788,5.285,2.102,5.453,2.935l0.305,1.507L356.104,169.125z"/>
				</g>
				<g id="XMLID_3994_">
					<path id="XMLID_3995_" style="fill:#FFA8A7;" d="M349.373,176.234c0,0,1.382,5.054,1.698,6.258
						c0.316,1.205,4.456,3.37,7.172,4.168c2.716,0.798,5.687,1.743,4.401,5.804c-1.185,3.744-5.655,4.599-7.93,4.493
						c-2.276-0.106-5.391-2.431-6.618-6.18c-1.565-4.782-0.722-9.889-1.344-12.681C346.131,175.303,348.012,174.568,349.373,176.234
						z"/>
				</g>
			</g>
		</g>
	</g>
</g>
<g id="Character_1">
	<g id="Character_6_">
		<path id="Back_Arm" style="fill:#F28F8F;" d="M139.197,138.65c3.609-0.362,6.327,0.796,9.382,3.762s20.999,23.95,20.999,23.95
			l31.837,1.302v11.847l-32.799,2.047c-2.711,0.169-5.371-0.79-7.35-2.65l-18.733-17.611L139.197,138.65z"/>
		<g id="Slice">
			<path style="fill:#27DEBF;" d="M193.077,211.215h0.047c-20.842-15.283-24.016-57.487-6.858-99.579l14.476,10.941
				c-17.056,41.842-14.04,83.804,6.468,99.329L193.077,211.215z"/>
			<path style="opacity:0.15;" d="M193.077,211.215h0.047c-20.842-15.283-24.016-57.487-6.858-99.579l14.476,10.941
				c-17.056,41.842-14.04,83.804,6.468,99.329L193.077,211.215z"/>
			<polygon id="XMLID_261_" style="fill:#27DEBF;" points="232.541,133.124 247.016,144.068 200.738,122.577 186.263,111.634 			"/>
			<polygon id="XMLID_292_" style="opacity:0.4;" points="232.541,133.124 247.016,144.068 200.738,122.577 186.263,111.634 			"/>
			<path id="XMLID_284_" style="fill:#27DEBF;" d="M212.754,225.235c-25.401-11.795-30.504-57.298-12.016-102.657l46.278,21.49
				l0,78.31C234.235,229.063,223.001,229.993,212.754,225.235z"/>
			<path id="XMLID_285_" style="opacity:0.25;" d="M212.754,225.235c-25.401-11.795-30.504-57.298-12.016-102.657l46.278,21.49
				l0,78.31C234.235,229.063,223.001,229.993,212.754,225.235z"/>
		</g>
		<g id="Character_Girl_2_">
			<g id="XMLID_367_">
				<g>
					<path id="XMLID_384_" style="fill:#263238;" d="M70.588,341.789c0.694,1.73,0.139,3.788-0.087,8.33
						c-0.149,2.986-0.419,5.986-0.214,8.976c0.073,1.071,0.356,2.064,0.514,3.113c0.128,0.847,0.43,1.576,1.058,2.201
						c0.523,0.52,1.281,0.854,2.003,0.706c0.573-0.117,1.059-0.523,1.368-1.019c0.42-0.675,1.162-2.314,1.371-3.053
						c0.366,7.652,8.272,13.439,3.124,14.999c-4.466,1.353-8.296,0.076-10.889-1.298c-1.592-0.844-3.026-2.573-3.334-3.2
						c-1.716-3.497-1.294-6.696-1.133-9.601c0.355-6.417-0.491-9.799-0.8-13.04C63.194,344.979,69.41,341.129,70.588,341.789z"/>
					<path id="XMLID_378_" style="fill:#263238;" d="M125.821,344.611c0,0-0.428,0.034-0.563,0.605
						c-0.199,0.844-0.47,2.431-0.853,3.87c-0.509,1.916-1.102,4.683-0.884,6.261c0.218,1.579,2.227,3.228,6.106,4.601
						c2.338,0.828,6.455,3.157,8.286,5.049c2.242,2.317,7.219,4.451,10.655,4.775c4.028,0.38,8.305-0.427,9.464-3.271
						c0.487-1.195-1.431-2.656-6.438-5.465c0,0-2.522-1.542-3.944-2.568c-7.159-5.169-9.533-7.998-11.396-12.92L125.821,344.611z"/>
					<path style="fill:#FFA8A7;" d="M138.808,349.663c-2.212-2.72-2.508-5.227-1.877-9.97c0.631-4.743,7.068-46.027,8.707-56.361
						c2.753-17.358,5.95-64.023,3.443-79.295l-45.55,0.662c-3.925,8.239-7.078,18.491-7.6,34.86
						c-0.398,12.486-2.857,46.261-2.857,46.261s-6.001,4.602-10.689,14.15c-4.142,8.436-10.19,38.109-10.19,38.109l0,0
						c-0.761,1.945-1.369,3.426-1.607,3.709c-1.065,1.266-1.854,2.644-1.958,4.262c-0.331,5.172-0.111,10.379,0.654,15.504
						c0.396,2.654,1.922,4.443,4.467,5.649c0.564,0.267,1.183,0.425,1.807,0.419c0.319-0.003,0.664-0.059,0.905-0.272
						c0.469-0.414,0.134-1.488,0.084-2.019c-0.081-0.855-0.099-1.715-0.07-2.573c0.058-1.685,0.242-3.735,0.461-5.406
						c0.572-4.373,1.441-7.895,2.525-11.041c0-0.001,0.414-0.834,1.044-2.099l0,0c0,0,22.824-39.46,29.202-49.026
						c5.064-7.503,10.036-37.57,14.333-53.906l2.929,39.892c0,0-2.855,6.989-3.836,12.412c-1.317,7.283,2.02,36.365,2.914,46.686
						c0.166,1.917,0.065,3.841-0.3,5.73l0,0c0.263,4.465,3.5,6.044,6.777,8.774c1.63,1.357,8.854,6.406,13.335,7.617
						c3.645,0.986,5.147-0.356,5.728-1.363C147.159,358.016,141.02,352.384,138.808,349.663z"/>
					<path style="fill:#455A64;" d="M111.059,191.985c0,0-8.171,9.786-11.531,20.596c-3.359,10.81-3.695,18.033-4.871,37.181
						c-1.176,19.148-1.517,35.141-1.517,35.141s-11.07,7.371-14.594,24.879c0,0,0.841,1.507,2.597,3.306l7.337-10.023l-4.73,12.286
						c2.699,1.972,6.488,3.71,11.456,3.71c0,0,11.93-18.236,15.852-23.947c3.922-5.711,12.982-53.831,12.982-53.831l1.858,39.89
						c0,0-4.031,9.238-4.031,15.957c0,6.719,0.675,16.585,0.675,16.585s8.317,4.467,18.247,0.65c0,0,5.769-30.84,6.945-42.094
						c1.176-11.254,5.212-50.982,1.346-76.301L111.059,191.985z"/>
					<path style="fill:#263238;" d="M124.008,241.383l5.619-17.15c0,0,8.499,1.563,15.574-2.97c0,0-1.804,6.289-13.874,7.399
						l-6.244,16.788l-0.467,8.186L124.008,241.383z"/>
				</g>
			</g>
			<g>
				<path style="fill:#27DEBF;" d="M155.263,157.226c-4.079-7.293-13.283-16.066-16.066-18.576l-16.393,1.268
					c-3.661,0.473-7.336,0.866-9.11,1.67c-3.677,1.668-5.203,3.347-5.589,7.509c-0.432,4.564-0.216,8.896,0.871,13.401
					c1.087,4.505,3.141,11.013,3.141,11.013l0.258,1.501c0.046,0.258,0.083,0.516,0.129,0.781c0.308,1.964,0.174,7.733-0.119,9.873
					c7.086,11.386,33.945,8.869,36.685,3.132c0.872-3.594,3.177-13.695,3.313-15.082
					C157.878,169.379,158.235,162.533,155.263,157.226z"/>
			</g>
			<g>
				<path style="fill:#37474F;" d="M112.384,185.666l-1.325,6.319c0,0,4.499,5.907,19.473,6.869
					c13.682,0.879,18.549-2.885,18.549-2.885l-0.013-7.171c0,0-4.87,4.149-19,2.775
					C117.676,190.367,112.384,185.666,112.384,185.666z"/>
				<path style="fill:#E0E0E0;" d="M143.043,190.987c-1.116-0.377-4.697-0.1-5.733,0.468c-1.035,0.569-1.294,6.685-0.927,7.5
					c0.368,0.815,5.369,0.94,6.618-0.744C143.47,197.58,144.372,191.436,143.043,190.987z M141.76,197.397
					c-0.327,0.296-1.446,0.664-2.945,0.664c-0.001,0,0,0-0.001,0c-0.471,0-0.846-0.038-1.105-0.083
					c-0.08-1.333,0.134-4.349,0.52-5.313c0.557-0.174,1.866-0.378,3.174-0.378c0.354,0,0.612,0.015,0.794,0.034
					C142.414,193.45,142.088,196.479,141.76,197.397z"/>
			</g>
			<g>
				<path style="fill:#263238;" d="M133.448,89.205l-2.538-0.016c-12.039-0.074-21.859,9.627-21.933,21.666v0
					c-0.076,12.491,9.988,22.68,22.48,22.756l0.061-14.245c0,0,19.185,2.382,22.765-11.388
					C157.863,94.21,145.488,89.279,133.448,89.205z"/>
				<path style="fill:#263238;" d="M103.889,117.924c4.434-3.251,8.194-0.482,11.445,3.952c3.251,4.434,4.762,8.852,0.329,12.104
					c-4.434,3.251-10.663,2.293-13.915-2.141C98.497,127.405,99.456,121.176,103.889,117.924z"/>
				<g id="XMLID_266_">
					<g id="XMLID_351_">
						<path id="XMLID_360_" style="fill:#FFA8A7;" d="M144.812,99.814c2.493,1.494,7.259,3.099,6.61,19.166
							c-0.451,11.175-3.968,13.919-5.793,14.704c-1.825,0.785-5.331,0.279-8.74-0.31l-0.041,6.71c0,0,6.026,7.25,6.89,14.384
							c0,0-4.161-1.243-13.577-7.521c-6.307-4.205-7.368-6.386-7.368-6.386l0.106-16.181c0,0-2.237,2.489-5.99-0.036
							c-3.752-2.525-3.396-7.43-1.192-9.64c2.204-2.21,6.367-1.024,7.229,2.054c0,0,5.198-0.209,11.615-3.13
							C141.524,110.459,144.303,104.146,144.812,99.814z"/>
					</g>
					<path style="fill:#263238;" d="M122.946,116.758v4.581l0,0c2.339,0,4.236-1.896,4.236-4.236v-5.702L122.946,116.758z"/>
					<g id="XMLID_349_">
						<path id="XMLID_350_" style="fill:#263238;" d="M139.105,115.98c0.036,0.806-0.565,1.485-1.34,1.517
							c-0.776,0.032-1.434-0.595-1.469-1.401c-0.035-0.806,0.565-1.485,1.34-1.517C138.412,114.547,139.07,115.174,139.105,115.98z"
							/>
					</g>
					<g id="XMLID_325_">
						<path id="XMLID_335_" style="fill:#F28F8F;" d="M139.273,125.575l3.259,1.061c-0.277,0.933-1.231,1.452-2.131,1.159
							C139.501,127.502,138.996,126.508,139.273,125.575z"/>
					</g>
					<g id="XMLID_313_">
						<path id="XMLID_314_" style="fill:#263238;" d="M150.631,111.177l-3.389-0.704c0.16-0.951,1.049-1.564,1.985-1.369
							C150.163,109.299,150.791,110.227,150.631,111.177z"/>
					</g>
					<g id="XMLID_309_">
						<path id="XMLID_310_" style="fill:#263238;" d="M149.984,115.03c0.036,0.806-0.565,1.485-1.34,1.517
							c-0.776,0.032-1.433-0.595-1.469-1.401c-0.036-0.806,0.565-1.485,1.34-1.517C149.29,113.597,149.948,114.224,149.984,115.03z"
							/>
					</g>
					<g id="XMLID_305_">
						<polygon id="XMLID_307_" style="fill:#F28F8F;" points="143.471,114.729 143.643,123.194 148.106,121.841 						"/>
					</g>
					<g id="XMLID_283_">
						<path id="XMLID_301_" style="fill:#F28F8F;" d="M136.889,133.374c-3.593-0.494-10.977-2.664-12.112-5.595
							c0,0,0.373,1.84,2.571,3.747c2.198,1.908,9.527,4.086,9.527,4.086L136.889,133.374z"/>
					</g>
				</g>
			</g>
		</g>
		<g id="Arm">
			<path style="fill:#FFA8A7;" d="M203.061,149.34c-0.271-1.202-0.832-2.186-1.754-3c-0.312-0.275-0.611-0.462-1.087-0.41
				c-0.475,0.052-0.88,0.487-1.178,0.913c-1.063,1.52-1.89,3.167-3.03,4.666c-1.14,1.499-2.496,2.595-4.33,3.136
				c-0.086-0.387,0.013-0.685,0.159-1.045c0.365-0.899,0.647-1.546,1.039-2.522c0.392-0.976,0.805-2.24,0.214-3.298
				c-0.158-0.282-0.442-0.497-0.744-0.483c-0.302,0.014-0.459,0.182-0.661,0.36c-2.039,1.802-3.556,3.521-5.484,5.521
				c-1.928,2-2.085,3.371-4.931,5.365c-2.845,1.994-6.618,3.562-10.895,5.488c-4.277,1.926-11.113,5.005-16.362,6.576
				c-8.938-5.578-23.577-18.152-30.163-23.188c-3.529-2.698-6.9-5.59-9.033-6.227c-2.833-0.242-5.371,1.943-6.866,6.277
				c-2.713,11.781,5.619,16.601,17.3,24.084c3.985,2.553,16.595,10.698,22.464,14.312c1.437,0.884,3.764,1.532,5.889,0.75
				c2.514-0.924,5.269-2.004,8.102-3.424c4.891-2.451,11.017-5.948,15.883-8.445c3.94-2.021,8.082-4.194,11.437-5.993
				c2.624-1.407,3.527-1.885,5.615-3.39c2.088-1.505,3.936-3.18,5.637-5.124c0.916-1.048,1.712-2.282,2.2-3.536
				c0.488-1.254,0.64-2.526,0.746-3.786S203.332,150.542,203.061,149.34z"/>
		</g>
	</g>
</g>
</svg>
