<?xml version="1.0" encoding="utf-8"?>
<!-- Generator: Adobe Illustrator 27.5.0, SVG Export Plug-In . SVG Version: 6.00 Build 0)  -->
<svg version="1.1" xmlns="http://www.w3.org/2000/svg" xmlns:xlink="http://www.w3.org/1999/xlink" x="0px" y="0px"
	 viewBox="0 0 750 500" style="enable-background:new 0 0 750 500;" xml:space="preserve">
<g id="BACKGROUND">
	<rect style="fill:#FFFFFF;" width="750" height="500"/>
</g>
<g id="OBJECTS">
	<g>
		<g>
			<path style="fill:#F2F2F2;" d="M146.303,376.286c0-126.306,102.391-228.697,228.697-228.697S603.697,249.98,603.697,376.286"/>
			<path style="fill:#F2F2F2;" d="M138.196,135.149c-1.26,0-2.465,0.22-3.594,0.607c-2.419-6.689-8.824-11.471-16.348-11.471
				c-8.247,0-15.148,5.746-16.929,13.452c-1.19-0.548-2.51-0.862-3.906-0.862c-5.169,0-9.359,4.19-9.359,9.359
				c0,0.004,0,0.007,0,0.011c0.001,0.614,0.517,1.103,1.13,1.103h12.639h4.876h20.462h7.512h13.47c0.614,0,1.131-0.489,1.132-1.103
				c0-0.004,0-0.008,0-0.011C149.281,140.112,144.318,135.149,138.196,135.149z"/>
			<path style="fill:#F2F2F2;" d="M309.482,92.462c-1.195,0-2.339,0.209-3.41,0.576c-2.295-6.346-8.372-10.882-15.51-10.882
				c-7.824,0-14.371,5.451-16.061,12.762c-1.129-0.52-2.381-0.818-3.706-0.818c-4.904,0-8.879,3.975-8.879,8.879
				c0,0.004,0,0.007,0,0.011c0.001,0.582,0.49,1.046,1.072,1.046h11.991h4.626h19.413h7.127h12.779c0.582,0,1.073-0.464,1.074-1.046
				c0-0.004,0-0.007,0-0.011C319.999,97.171,315.29,92.462,309.482,92.462z"/>
			<path style="fill:#F2F2F2;" d="M207.705,185.803c-0.895,0-1.736,0.223-2.476,0.614c-1.018-1.267-2.578-2.08-4.329-2.08
				c-0.816,0-1.588,0.18-2.285,0.496c-1.308-3.776-4.893-6.488-9.114-6.488c-3.969,0-7.376,2.398-8.856,5.822
				c-0.684-0.307-1.439-0.481-2.237-0.481c-3.023,0-5.473,2.451-5.473,5.474c0,0.726,0.144,1.417,0.401,2.05h7.073h3.073h12.03
				h3.083h3.804h3.891h6.724c0.001-0.032,0.005-0.063,0.005-0.095C213.018,188.182,210.639,185.803,207.705,185.803z"/>
			<path style="fill:#F2F2F2;" d="M532.018,161.044c0.991,0,1.923,0.247,2.742,0.68c1.127-1.403,2.855-2.303,4.794-2.303
				c0.903,0,1.758,0.199,2.531,0.549c1.449-4.181,5.419-7.185,10.093-7.185c4.395,0,8.168,2.655,9.808,6.448
				c0.757-0.34,1.594-0.533,2.477-0.533c3.348,0,6.062,2.714,6.062,6.062c0,0.803-0.16,1.569-0.444,2.27h-7.833h-3.403h-13.323
				h-3.414h-4.213h-4.309h-7.446c-0.001-0.035-0.005-0.07-0.005-0.105C526.135,163.678,528.769,161.044,532.018,161.044z"/>
			<path style="fill:#F2F2F2;" d="M630.22,106.267c-1.947,0-3.779,0.486-5.388,1.336c-2.215-2.757-5.609-4.526-9.421-4.526
				c-1.775,0-3.455,0.392-4.973,1.079c-2.846-8.216-10.648-14.118-19.833-14.118c-8.636,0-16.051,5.217-19.273,12.67
				c-1.487-0.668-3.132-1.047-4.868-1.047c-6.578,0-11.911,5.333-11.911,11.911c0,1.579,0.314,3.082,0.872,4.461h15.392h6.687h26.18
				h6.709h8.278h8.468h14.631c0.001-0.069,0.011-0.137,0.011-0.206C641.78,111.442,636.604,106.267,630.22,106.267z"/>
			<path style="fill:#F2F2F2;" d="M666.782,198.934c1.335,0,2.59,0.333,3.694,0.916c1.518-1.89,3.845-3.103,6.458-3.103
				c1.216,0,2.368,0.269,3.409,0.74c1.951-5.632,7.299-9.678,13.596-9.678c5.92,0,11.003,3.576,13.211,8.686
				c1.019-0.458,2.147-0.718,3.337-0.718c4.509,0,8.165,3.656,8.165,8.165c0,1.082-0.215,2.113-0.598,3.058h-10.551h-4.584h-17.946
				h-4.599h-5.675h-5.805h-10.03c-0.001-0.048-0.007-0.094-0.007-0.141C658.858,202.482,662.405,198.934,666.782,198.934z"/>
			<path style="fill:#F2F2F2;" d="M264.189,110.786h-27.885c-0.71,0-1.286-0.576-1.286-1.286l0,0c0-0.71,0.576-1.286,1.286-1.286
				h27.885c0.71,0,1.286,0.576,1.286,1.286l0,0C265.475,110.21,264.899,110.786,264.189,110.786z"/>
			<path style="fill:#F2F2F2;" d="M280.622,110.786h-6.63c-0.71,0-1.286-0.576-1.286-1.286l0,0c0-0.71,0.576-1.286,1.286-1.286h6.63
				c0.71,0,1.286,0.576,1.286,1.286l0,0C281.908,110.21,281.332,110.786,280.622,110.786z"/>
			<path style="fill:#F2F2F2;" d="M115.962,154.179H74.39c-0.71,0-1.286-0.576-1.286-1.286l0,0c0-0.71,0.576-1.286,1.286-1.286
				h41.572c0.71,0,1.286,0.576,1.286,1.286l0,0C117.247,153.603,116.672,154.179,115.962,154.179z"/>
			<path style="fill:#F2F2F2;" d="M569.578,124.286h-9.53c-0.71,0-1.286-0.576-1.286-1.286l0,0c0-0.71,0.576-1.286,1.286-1.286h9.53
				c0.71,0,1.286,0.576,1.286,1.286l0,0C570.864,123.71,570.288,124.286,569.578,124.286z"/>
			<path style="fill:#F2F2F2;" d="M591.274,124.286h-15.476c-0.71,0-1.286-0.576-1.286-1.286l0,0c0-0.71,0.576-1.286,1.286-1.286
				h15.476c0.71,0,1.286,0.576,1.286,1.286l0,0C592.56,123.71,591.985,124.286,591.274,124.286z"/>
			<path style="fill:#F2F2F2;" d="M680.779,213.857h-27.885c-0.71,0-1.286-0.576-1.286-1.286l0,0c0-0.71,0.576-1.286,1.286-1.286
				h27.885c0.71,0,1.286,0.576,1.286,1.286l0,0C682.065,213.281,681.489,213.857,680.779,213.857z"/>
			<path style="fill:#F2F2F2;" d="M697.212,213.857h-6.63c-0.71,0-1.286-0.576-1.286-1.286l0,0c0-0.71,0.576-1.286,1.286-1.286h6.63
				c0.71,0,1.286,0.576,1.286,1.286l0,0C698.498,213.281,697.922,213.857,697.212,213.857z"/>
			<path style="fill:#F2F2F2;" d="M524.164,172.931h-7.098c-0.71,0-1.286-0.576-1.286-1.286l0,0c0-0.71,0.576-1.286,1.286-1.286
				h7.098c0.71,0,1.286,0.576,1.286,1.286l0,0C525.45,172.355,524.874,172.931,524.164,172.931z"/>
			<path style="fill:#F2F2F2;" d="M548.164,172.931h-18.616c-0.71,0-1.286-0.576-1.286-1.286l0,0c0-0.71,0.576-1.286,1.286-1.286
				h18.616c0.71,0,1.286,0.576,1.286,1.286l0,0C549.45,172.355,548.874,172.931,548.164,172.931z"/>
			<path style="fill:#F2F2F2;" d="M193.343,195.871h-18.616c-0.71,0-1.286-0.576-1.286-1.286l0,0c0-0.71,0.576-1.286,1.286-1.286
				h18.616c0.71,0,1.286,0.576,1.286,1.286l0,0C194.629,195.295,194.053,195.871,193.343,195.871z"/>
		</g>
		<g>
			<g>
				<g>
					<g>
						<g>
							<path style="fill:#008277;" d="M41.865,317.769c0-6.613,5.694-11.975,12.718-11.975c7.024,0,12.718,5.361,12.718,11.975"/>
							<path style="fill:#009487;" d="M56.061,305.938h-2.955c-0.171,0-0.312-0.14-0.312-0.312l0,0c0-0.172,0.14-0.312,0.312-0.312
								h2.955c0.171,0,0.312,0.14,0.312,0.312l0,0C56.373,305.797,56.233,305.938,56.061,305.938z"/>
							<g>
								<polygon style="fill:#009184;" points="54.084,305.314 54.584,297.247 55.084,305.314 								"/>
							</g>
							<path style="fill:#008277;" d="M55.532,303.133c0,0.182-0.412,0.329-0.919,0.329s-0.919-0.147-0.919-0.329
								c0-0.182,0.411-0.329,0.919-0.329S55.532,302.951,55.532,303.133z"/>
							<path style="fill:#008277;" d="M55.312,301.281c0,0.138-0.313,0.25-0.699,0.25c-0.386,0-0.699-0.112-0.699-0.25
								s0.313-0.25,0.699-0.25C54.999,301.03,55.312,301.142,55.312,301.281z"/>
						</g>
						<g>
							<path style="fill:#008277;" d="M67.63,317.769c0-6.613,5.694-11.975,12.718-11.975c7.024,0,12.718,5.361,12.718,11.975"/>
							<path style="fill:#009487;" d="M81.826,305.938h-2.955c-0.171,0-0.312-0.14-0.312-0.312l0,0c0-0.172,0.14-0.312,0.312-0.312
								h2.955c0.171,0,0.312,0.14,0.312,0.312l0,0C82.138,305.797,81.998,305.938,81.826,305.938z"/>
							<g>
								<polygon style="fill:#009184;" points="79.849,305.314 80.349,297.247 80.849,305.314 								"/>
							</g>
							<path style="fill:#008277;" d="M81.297,303.133c0,0.182-0.411,0.329-0.919,0.329c-0.508,0-0.919-0.147-0.919-0.329
								c0-0.182,0.411-0.329,0.919-0.329C80.885,302.804,81.297,302.951,81.297,303.133z"/>
							<path style="fill:#008277;" d="M81.076,301.281c0,0.138-0.313,0.25-0.699,0.25s-0.699-0.112-0.699-0.25
								s0.313-0.25,0.699-0.25S81.076,301.142,81.076,301.281z"/>
						</g>
						<g>
							<path style="fill:#008277;" d="M93.724,317.769c0-6.613,5.694-11.975,12.718-11.975c7.024,0,12.718,5.361,12.718,11.975"/>
							<path style="fill:#009487;" d="M107.919,305.938h-2.955c-0.171,0-0.312-0.14-0.312-0.312l0,0c0-0.172,0.14-0.312,0.312-0.312
								h2.955c0.171,0,0.312,0.14,0.312,0.312l0,0C108.231,305.797,108.091,305.938,107.919,305.938z"/>
							<g>
								<polygon style="fill:#009184;" points="105.942,305.314 106.442,297.247 106.942,305.314 								"/>
							</g>
							<path style="fill:#008277;" d="M107.39,303.133c0,0.182-0.412,0.329-0.919,0.329s-0.919-0.147-0.919-0.329
								c0-0.182,0.411-0.329,0.919-0.329S107.39,302.951,107.39,303.133z"/>
							<path style="fill:#008277;" d="M107.17,301.281c0,0.138-0.313,0.25-0.699,0.25c-0.386,0-0.699-0.112-0.699-0.25
								s0.313-0.25,0.699-0.25C106.857,301.03,107.17,301.142,107.17,301.281z"/>
						</g>
						<g>
							<path style="fill:#008277;" d="M119.442,317.769c0-6.613,5.694-11.975,12.718-11.975c7.024,0,12.718,5.361,12.718,11.975"/>
							<path style="fill:#009487;" d="M133.638,305.938h-2.955c-0.171,0-0.312-0.14-0.312-0.312l0,0c0-0.172,0.14-0.312,0.312-0.312
								h2.955c0.171,0,0.312,0.14,0.312,0.312l0,0C133.949,305.797,133.809,305.938,133.638,305.938z"/>
							<g>
								<polygon style="fill:#009184;" points="131.66,305.314 132.16,297.247 132.66,305.314 								"/>
							</g>
							<path style="fill:#008277;" d="M133.108,303.133c0,0.182-0.411,0.329-0.919,0.329c-0.508,0-0.919-0.147-0.919-0.329
								c0-0.182,0.411-0.329,0.919-0.329C132.697,302.804,133.108,302.951,133.108,303.133z"/>
							<path style="fill:#008277;" d="M132.888,301.281c0,0.138-0.313,0.25-0.699,0.25s-0.699-0.112-0.699-0.25
								s0.313-0.25,0.699-0.25S132.888,301.142,132.888,301.281z"/>
						</g>
						<g>
							<path style="fill:#008277;" d="M145.203,317.769c0-6.613,5.694-11.975,12.718-11.975c7.024,0,12.718,5.361,12.718,11.975"/>
							<path style="fill:#009487;" d="M159.399,305.938h-2.955c-0.172,0-0.312-0.14-0.312-0.312l0,0c0-0.172,0.14-0.312,0.312-0.312
								h2.955c0.171,0,0.312,0.14,0.312,0.312l0,0C159.711,305.797,159.57,305.938,159.399,305.938z"/>
							<g>
								<polygon style="fill:#009184;" points="157.421,305.314 157.921,297.247 158.421,305.314 								"/>
							</g>
							<path style="fill:#008277;" d="M158.869,303.133c0,0.182-0.411,0.329-0.919,0.329c-0.507,0-0.919-0.147-0.919-0.329
								c0-0.182,0.411-0.329,0.919-0.329C158.458,302.804,158.869,302.951,158.869,303.133z"/>
							<path style="fill:#008277;" d="M158.649,301.281c0,0.138-0.313,0.25-0.699,0.25s-0.699-0.112-0.699-0.25
								s0.313-0.25,0.699-0.25S158.649,301.142,158.649,301.281z"/>
						</g>
						<g>
							<path style="fill:#008277;" d="M170.561,317.769c0-6.613,5.694-11.975,12.718-11.975c7.024,0,12.718,5.361,12.718,11.975"/>
							<path style="fill:#009487;" d="M184.757,305.938h-2.955c-0.171,0-0.312-0.14-0.312-0.312l0,0c0-0.172,0.14-0.312,0.312-0.312
								h2.955c0.171,0,0.312,0.14,0.312,0.312l0,0C185.069,305.797,184.929,305.938,184.757,305.938z"/>
							<g>
								<polygon style="fill:#009184;" points="182.78,305.314 183.28,297.247 183.78,305.314 								"/>
							</g>
							<path style="fill:#008277;" d="M184.228,303.133c0,0.182-0.411,0.329-0.919,0.329c-0.508,0-0.919-0.147-0.919-0.329
								c0-0.182,0.411-0.329,0.919-0.329C183.816,302.804,184.228,302.951,184.228,303.133z"/>
							<path style="fill:#008277;" d="M184.008,301.281c0,0.138-0.313,0.25-0.699,0.25c-0.386,0-0.699-0.112-0.699-0.25
								s0.313-0.25,0.699-0.25C183.695,301.03,184.008,301.142,184.008,301.281z"/>
						</g>
					</g>
					<g>
						<rect x="41.232" y="346.675" style="fill:#00DBC6;" width="154.133" height="28.077"/>
					</g>
					<rect x="41.232" y="326.397" style="fill:#00D1BE;" width="154.133" height="20.278"/>
					<rect x="112.936" y="355.547" style="fill:#009487;" width="11.991" height="19.303"/>
					<path style="fill:#009487;" d="M92.285,356.57v6.305h10.853v-6.305c0-2.992-2.435-5.427-5.427-5.427
						C94.719,351.143,92.285,353.578,92.285,356.57z M97.256,352.099v4.649h-4.062v-0.179
						C93.195,354.235,94.982,352.331,97.256,352.099z M102.228,356.57v0.179h-4.062v-4.649
						C100.441,352.331,102.228,354.235,102.228,356.57z M102.228,361.965h-4.062v-4.306h4.062V361.965z M93.195,361.965v-4.306
						h4.062v4.306H93.195z"/>
					<polygon style="fill:#00AB9B;" points="131.653,371.388 131.653,349.932 133.482,349.932 133.482,346.675 126.828,346.675 
						126.828,349.932 128.431,349.932 128.431,371.388 126.719,371.388 126.719,374.752 133.591,374.752 133.591,371.388 					"/>
					<polygon style="fill:#00AB9B;" points="108.243,371.388 108.243,349.932 110.072,349.932 110.072,346.675 103.418,346.675 
						103.418,349.932 105.021,349.932 105.021,371.388 103.309,371.388 103.309,374.752 110.181,374.752 110.181,371.388 					"/>
					<polygon style="fill:#00AB9B;" points="90.597,371.388 90.597,349.932 92.426,349.932 92.426,346.675 85.772,346.675 
						85.772,349.932 87.375,349.932 87.375,371.388 85.663,371.388 85.663,374.752 92.535,374.752 92.535,371.388 					"/>
					<path style="fill:#009487;" d="M72.526,356.57v6.305H83.38v-6.305c0-2.992-2.435-5.427-5.427-5.427
						C74.961,351.143,72.526,353.578,72.526,356.57z M77.498,352.099v4.649h-4.062v-0.179
						C73.436,354.235,75.224,352.331,77.498,352.099z M82.47,356.57v0.179h-4.062v-4.649C80.683,352.331,82.47,354.235,82.47,356.57
						z M82.47,361.965h-4.062v-4.306h4.062V361.965z M73.436,361.965v-4.306h4.062v4.306H73.436z"/>
					<polygon style="fill:#00AB9B;" points="70.839,371.388 70.839,349.932 72.668,349.932 72.668,346.675 66.014,346.675 
						66.014,349.932 67.617,349.932 67.617,371.388 65.905,371.388 65.905,374.752 72.777,374.752 72.777,371.388 					"/>
					<path style="fill:#009487;" d="M52.768,356.57v6.305h10.853v-6.305c0-2.992-2.435-5.427-5.427-5.427
						S52.768,353.578,52.768,356.57z M57.74,352.099v4.649h-4.062v-0.179C53.678,354.235,55.465,352.331,57.74,352.099z
						 M62.712,356.57v0.179H58.65v-4.649C60.925,352.331,62.712,354.235,62.712,356.57z M62.712,361.965H58.65v-4.306h4.062V361.965
						z M53.678,361.965v-4.306h4.062v4.306H53.678z"/>
					<path style="fill:#009487;" d="M174.599,356.57v6.305h10.853v-6.305c0-2.992-2.435-5.427-5.427-5.427
						C177.034,351.143,174.599,353.578,174.599,356.57z M179.571,352.099v4.649h-4.062v-0.179
						C175.509,354.235,177.296,352.331,179.571,352.099z M184.543,356.57v0.179h-4.062v-4.649
						C182.755,352.331,184.543,354.235,184.543,356.57z M184.543,361.965h-4.062v-4.306h4.062V361.965z M175.509,361.965v-4.306
						h4.062v4.306H175.509z"/>
					<polygon style="fill:#00AB9B;" points="190.558,371.388 190.558,349.932 192.387,349.932 192.387,346.675 185.733,346.675 
						185.733,349.932 187.336,349.932 187.336,371.388 185.624,371.388 185.624,374.752 192.496,374.752 192.496,371.388 					"/>
					<polygon style="fill:#00AB9B;" points="172.912,371.388 172.912,349.932 174.741,349.932 174.741,346.675 168.087,346.675 
						168.087,349.932 169.689,349.932 169.689,371.388 167.978,371.388 167.978,374.752 174.85,374.752 174.85,371.388 					"/>
					<path style="fill:#009487;" d="M154.841,356.57v6.305h10.853v-6.305c0-2.992-2.435-5.427-5.427-5.427
						C157.276,351.143,154.841,353.578,154.841,356.57z M159.813,352.099v4.649h-4.062v-0.179
						C155.751,354.235,157.538,352.331,159.813,352.099z M164.784,356.57v0.179h-4.062v-4.649
						C162.997,352.331,164.784,354.235,164.784,356.57z M164.784,361.965h-4.062v-4.306h4.062V361.965z M155.751,361.965v-4.306
						h4.062v4.306H155.751z"/>
					<polygon style="fill:#00AB9B;" points="153.154,371.388 153.154,349.932 154.983,349.932 154.983,346.675 148.329,346.675 
						148.329,349.932 149.931,349.932 149.931,350.327 149.904,350.327 149.904,371.441 148.219,371.441 148.219,374.752 
						154.983,374.752 154.983,371.441 153.075,371.441 153.075,371.388 					"/>
					<path style="fill:#009487;" d="M135.083,356.57v6.305h10.853v-6.305c0-2.992-2.435-5.427-5.427-5.427
						C137.518,351.143,135.083,353.578,135.083,356.57z M140.055,352.099v4.649h-4.062v-0.179
						C135.993,354.235,137.78,352.331,140.055,352.099z M145.026,356.57v0.179h-4.062v-4.649
						C143.239,352.331,145.026,354.235,145.026,356.57z M145.026,361.965h-4.062v-4.306h4.062V361.965z M135.993,361.965v-4.306
						h4.062v4.306H135.993z"/>
					<polygon style="fill:#00AB9B;" points="51.081,371.388 51.081,349.932 52.91,349.932 52.91,346.675 46.256,346.675 
						46.256,349.932 47.859,349.932 47.859,371.388 46.147,371.388 46.147,374.752 53.019,374.752 53.019,371.388 					"/>
					<g>
						<rect x="41.231" y="342.795" style="fill:#00B8A7;" width="154.133" height="1"/>
					</g>
					<g>
						<rect x="41.231" y="339.416" style="fill:#00B8A7;" width="154.133" height="1"/>
					</g>
					<g>
						<rect x="41.231" y="336.036" style="fill:#00B8A7;" width="154.133" height="1"/>
					</g>
					<g>
						<rect x="41.231" y="332.657" style="fill:#00B8A7;" width="154.133" height="1"/>
					</g>
					<g>
						<rect x="41.231" y="329.277" style="fill:#00B8A7;" width="154.133" height="1"/>
					</g>
					<g>
						<rect x="43.656" y="326.397" style="fill:#00B8A7;" width="1" height="20.278"/>
					</g>
					<g>
						<rect x="46.728" y="326.397" style="fill:#00B8A7;" width="1" height="20.278"/>
					</g>
					<g>
						<rect x="49.798" y="326.397" style="fill:#00B8A7;" width="1" height="20.278"/>
					</g>
					<g>
						<rect x="52.869" y="326.397" style="fill:#00B8A7;" width="1" height="20.278"/>
					</g>
					<g>
						<rect x="55.94" y="326.397" style="fill:#00B8A7;" width="1" height="20.278"/>
					</g>
					<g>
						<rect x="59.011" y="326.397" style="fill:#00B8A7;" width="1" height="20.278"/>
					</g>
					<g>
						<rect x="62.082" y="326.397" style="fill:#00B8A7;" width="1" height="20.278"/>
					</g>
					<g>
						<rect x="65.153" y="326.397" style="fill:#00B8A7;" width="1" height="20.278"/>
					</g>
					<g>
						<rect x="68.224" y="326.397" style="fill:#00B8A7;" width="1" height="20.278"/>
					</g>
					<g>
						<rect x="71.295" y="326.397" style="fill:#00B8A7;" width="1" height="20.278"/>
					</g>
					<g>
						<rect x="74.366" y="326.397" style="fill:#00B8A7;" width="1" height="20.278"/>
					</g>
					<g>
						<rect x="77.437" y="326.397" style="fill:#00B8A7;" width="1" height="20.278"/>
					</g>
					<g>
						<rect x="80.508" y="326.397" style="fill:#00B8A7;" width="1" height="20.278"/>
					</g>
					<g>
						<rect x="83.579" y="326.397" style="fill:#00B8A7;" width="1" height="20.278"/>
					</g>
					<g>
						<rect x="86.65" y="326.397" style="fill:#00B8A7;" width="1" height="20.278"/>
					</g>
					<g>
						<rect x="89.721" y="326.397" style="fill:#00B8A7;" width="1" height="20.278"/>
					</g>
					<g>
						<rect x="92.791" y="326.397" style="fill:#00B8A7;" width="1" height="20.278"/>
					</g>
					<g>
						<rect x="95.863" y="326.397" style="fill:#00B8A7;" width="1" height="20.278"/>
					</g>
					<g>
						<rect x="98.934" y="326.397" style="fill:#00B8A7;" width="1" height="20.278"/>
					</g>
					<g>
						<rect x="102.004" y="326.397" style="fill:#00B8A7;" width="1" height="20.278"/>
					</g>
					<g>
						<rect x="105.076" y="326.397" style="fill:#00B8A7;" width="1" height="20.278"/>
					</g>
					<g>
						<rect x="108.146" y="326.397" style="fill:#00B8A7;" width="1" height="20.278"/>
					</g>
					<g>
						<rect x="111.217" y="326.397" style="fill:#00B8A7;" width="1" height="20.278"/>
					</g>
					<g>
						<rect x="114.288" y="326.397" style="fill:#00B8A7;" width="1" height="20.278"/>
					</g>
					<g>
						<rect x="117.359" y="326.397" style="fill:#00B8A7;" width="1" height="20.278"/>
					</g>
					<g>
						<rect x="120.43" y="326.397" style="fill:#00B8A7;" width="1" height="20.278"/>
					</g>
					<g>
						<rect x="123.501" y="326.397" style="fill:#00B8A7;" width="1" height="20.278"/>
					</g>
					<g>
						<rect x="126.572" y="326.397" style="fill:#00B8A7;" width="1" height="20.278"/>
					</g>
					<g>
						<rect x="129.643" y="326.397" style="fill:#00B8A7;" width="1" height="20.278"/>
					</g>
					<g>
						<rect x="132.714" y="326.397" style="fill:#00B8A7;" width="1" height="20.278"/>
					</g>
					<g>
						<rect x="135.785" y="326.397" style="fill:#00B8A7;" width="1" height="20.278"/>
					</g>
					<g>
						<rect x="138.856" y="326.397" style="fill:#00B8A7;" width="1" height="20.278"/>
					</g>
					<g>
						<rect x="141.927" y="326.397" style="fill:#00B8A7;" width="1" height="20.278"/>
					</g>
					<g>
						<rect x="144.998" y="326.397" style="fill:#00B8A7;" width="1" height="20.278"/>
					</g>
					<g>
						<rect x="148.069" y="326.397" style="fill:#00B8A7;" width="1" height="20.278"/>
					</g>
					<g>
						<rect x="151.14" y="326.397" style="fill:#00B8A7;" width="1" height="20.278"/>
					</g>
					<g>
						<rect x="154.211" y="326.397" style="fill:#00B8A7;" width="1" height="20.278"/>
					</g>
					<g>
						<rect x="157.282" y="326.397" style="fill:#00B8A7;" width="1" height="20.278"/>
					</g>
					<g>
						<rect x="160.352" y="326.397" style="fill:#00B8A7;" width="1" height="20.278"/>
					</g>
					<g>
						<g>
							<rect x="163.424" y="326.397" style="fill:#00B8A7;" width="1" height="20.278"/>
						</g>
					</g>
					<g>
						<rect x="166.495" y="326.397" style="fill:#00B8A7;" width="1" height="20.278"/>
					</g>
					<g>
						<rect x="169.565" y="326.397" style="fill:#00B8A7;" width="1" height="20.278"/>
					</g>
					<g>
						<rect x="172.637" y="326.397" style="fill:#00B8A7;" width="1" height="20.278"/>
					</g>
					<g>
						<rect x="175.707" y="326.397" style="fill:#00B8A7;" width="1" height="20.278"/>
					</g>
					<g>
						<rect x="178.778" y="326.397" style="fill:#00B8A7;" width="1" height="20.278"/>
					</g>
					<g>
						<rect x="181.85" y="326.397" style="fill:#00B8A7;" width="1" height="20.278"/>
					</g>
					<g>
						<rect x="184.92" y="326.397" style="fill:#00B8A7;" width="1" height="20.278"/>
					</g>
					<g>
						<rect x="187.991" y="326.397" style="fill:#00B8A7;" width="1" height="20.278"/>
					</g>
					<g>
						<rect x="191.063" y="326.397" style="fill:#00B8A7;" width="1" height="20.278"/>
					</g>
					<polygon style="fill:#008A7E;" points="153.154,344.245 153.154,328.749 154.983,328.749 154.983,326.397 148.329,326.397 
						148.329,328.749 149.931,328.749 149.931,344.245 148.219,344.245 148.219,346.675 155.092,346.675 155.092,344.245 					"/>
					<polygon style="fill:#008A7E;" points="172.912,344.245 172.912,328.749 174.741,328.749 174.741,326.397 168.087,326.397 
						168.087,328.749 169.689,328.749 169.689,344.245 167.978,344.245 167.978,346.675 174.85,346.675 174.85,344.245 					"/>
					<polygon style="fill:#008A7E;" points="189.989,344.245 189.989,328.749 191.818,328.749 191.818,326.397 185.164,326.397 
						185.164,328.749 186.767,328.749 186.767,344.245 185.055,344.245 185.055,346.675 191.927,346.675 191.927,344.245 					"/>
					<polygon style="fill:#008A7E;" points="70.839,344.245 70.839,328.749 72.668,328.749 72.668,326.397 66.014,326.397 
						66.014,328.749 67.617,328.749 67.617,344.245 65.905,344.245 65.905,346.675 72.777,346.675 72.777,344.245 					"/>
					<polygon style="fill:#008A7E;" points="51.081,344.245 51.081,328.749 52.91,328.749 52.91,326.397 46.256,326.397 
						46.256,328.749 47.859,328.749 47.859,344.245 46.147,344.245 46.147,346.675 53.019,346.675 53.019,344.245 					"/>
					<polygon style="fill:#008A7E;" points="90.597,344.245 90.597,328.749 92.426,328.749 92.426,326.397 85.772,326.397 
						85.772,328.749 87.375,328.749 87.375,344.245 85.663,344.245 85.663,346.675 92.535,346.675 92.535,344.245 					"/>
					<polygon style="fill:#008A7E;" points="108.243,344.245 108.243,328.749 110.072,328.749 110.072,326.397 103.418,326.397 
						103.418,328.749 105.021,328.749 105.021,344.245 103.309,344.245 103.309,346.675 110.181,346.675 110.181,344.245 					"/>
					<polygon style="fill:#008A7E;" points="131.653,344.245 131.653,328.749 133.482,328.749 133.482,326.397 126.828,326.397 
						126.828,328.749 128.431,328.749 128.431,344.245 126.719,344.245 126.719,346.675 133.591,346.675 133.591,344.245 					"/>
					<rect x="36.389" y="322.887" style="fill:#009487;" width="163.818" height="3.51"/>
					<g>
						<rect x="41.865" y="320.328" style="fill:#00DBC6;" width="154.133" height="2.559"/>
					</g>
					<rect x="41.865" y="317.769" style="fill:#009487;" width="154.133" height="2.559"/>
					<path style="fill:#009487;" d="M44.449,317.769h-2.583v-1.292c0-0.713,0.578-1.292,1.292-1.292l0,0
						c0.713,0,1.292,0.578,1.292,1.292V317.769z"/>
					<path style="fill:#00B8A7;" d="M47.032,317.769h-2.583v-1.292c0-0.713,0.578-1.292,1.292-1.292l0,0
						c0.713,0,1.292,0.578,1.292,1.292V317.769z"/>
					<path style="fill:#009487;" d="M49.583,317.769H47v-1.292c0-0.713,0.578-1.292,1.292-1.292l0,0
						c0.713,0,1.292,0.578,1.292,1.292V317.769z"/>
					<path style="fill:#00B8A7;" d="M52.167,317.769h-2.583v-1.292c0-0.713,0.578-1.292,1.292-1.292l0,0
						c0.713,0,1.292,0.578,1.292,1.292V317.769z"/>
					<path style="fill:#009487;" d="M54.717,317.769h-2.583v-1.292c0-0.713,0.578-1.292,1.292-1.292l0,0
						c0.713,0,1.292,0.578,1.292,1.292V317.769z"/>
					<path style="fill:#00B8A7;" d="M57.301,317.769h-2.583v-1.292c0-0.713,0.578-1.292,1.292-1.292l0,0
						c0.713,0,1.292,0.578,1.292,1.292V317.769z"/>
					<path style="fill:#009487;" d="M59.851,317.769h-2.583v-1.292c0-0.713,0.578-1.292,1.292-1.292l0,0
						c0.713,0,1.292,0.578,1.292,1.292V317.769z"/>
					<path style="fill:#00B8A7;" d="M62.435,317.769h-2.583v-1.292c0-0.713,0.578-1.292,1.292-1.292l0,0
						c0.713,0,1.292,0.578,1.292,1.292V317.769z"/>
					<path style="fill:#009487;" d="M64.985,317.769h-2.583v-1.292c0-0.713,0.578-1.292,1.292-1.292l0,0
						c0.713,0,1.292,0.578,1.292,1.292V317.769z"/>
					<path style="fill:#00B8A7;" d="M67.569,317.769h-2.584v-1.292c0-0.713,0.578-1.292,1.292-1.292l0,0
						c0.713,0,1.292,0.578,1.292,1.292V317.769z"/>
					<path style="fill:#009487;" d="M70.12,317.769h-2.583v-1.292c0-0.713,0.578-1.292,1.292-1.292l0,0
						c0.713,0,1.292,0.578,1.292,1.292V317.769z"/>
					<path style="fill:#00B8A7;" d="M72.703,317.769H70.12v-1.292c0-0.713,0.578-1.292,1.292-1.292l0,0
						c0.713,0,1.292,0.578,1.292,1.292V317.769z"/>
					<path style="fill:#009487;" d="M75.254,317.769H72.67v-1.292c0-0.713,0.578-1.292,1.292-1.292l0,0
						c0.713,0,1.292,0.578,1.292,1.292V317.769z"/>
					<path style="fill:#00B8A7;" d="M77.837,317.769h-2.583v-1.292c0-0.713,0.578-1.292,1.292-1.292l0,0
						c0.713,0,1.292,0.578,1.292,1.292V317.769z"/>
					<path style="fill:#009487;" d="M80.388,317.769h-2.584v-1.292c0-0.713,0.578-1.292,1.292-1.292l0,0
						c0.713,0,1.292,0.578,1.292,1.292V317.769z"/>
					<path style="fill:#00B8A7;" d="M82.971,317.769h-2.583v-1.292c0-0.713,0.578-1.292,1.292-1.292l0,0
						c0.713,0,1.292,0.578,1.292,1.292V317.769z"/>
					<path style="fill:#009487;" d="M85.522,317.769h-2.584v-1.292c0-0.713,0.578-1.292,1.292-1.292l0,0
						c0.713,0,1.292,0.578,1.292,1.292V317.769z"/>
					<path style="fill:#00B8A7;" d="M88.105,317.769h-2.583v-1.292c0-0.713,0.578-1.292,1.292-1.292l0,0
						c0.713,0,1.292,0.578,1.292,1.292V317.769z"/>
					<path style="fill:#009487;" d="M90.656,317.769h-2.583v-1.292c0-0.713,0.578-1.292,1.292-1.292l0,0
						c0.713,0,1.292,0.578,1.292,1.292V317.769z"/>
					<path style="fill:#00B8A7;" d="M93.24,317.769h-2.584v-1.292c0-0.713,0.578-1.292,1.292-1.292l0,0
						c0.713,0,1.292,0.578,1.292,1.292V317.769z"/>
					<path style="fill:#009487;" d="M95.79,317.769h-2.583v-1.292c0-0.713,0.578-1.292,1.292-1.292l0,0
						c0.713,0,1.292,0.578,1.292,1.292V317.769z"/>
					<path style="fill:#00B8A7;" d="M98.374,317.769H95.79v-1.292c0-0.713,0.578-1.292,1.292-1.292l0,0
						c0.713,0,1.292,0.578,1.292,1.292V317.769z"/>
					<path style="fill:#009487;" d="M100.924,317.769h-2.583v-1.292c0-0.713,0.578-1.292,1.292-1.292l0,0
						c0.714,0,1.292,0.578,1.292,1.292V317.769z"/>
					<path style="fill:#00B8A7;" d="M103.508,317.769h-2.584v-1.292c0-0.713,0.578-1.292,1.292-1.292l0,0
						c0.714,0,1.292,0.578,1.292,1.292V317.769z"/>
					<path style="fill:#009487;" d="M106.059,317.769h-2.583v-1.292c0-0.713,0.578-1.292,1.292-1.292l0,0
						c0.713,0,1.292,0.578,1.292,1.292V317.769z"/>
					<path style="fill:#00B8A7;" d="M108.642,317.769h-2.584v-1.292c0-0.713,0.578-1.292,1.292-1.292l0,0
						c0.713,0,1.292,0.578,1.292,1.292V317.769z"/>
					<path style="fill:#009487;" d="M111.193,317.769h-2.583v-1.292c0-0.713,0.578-1.292,1.292-1.292l0,0
						c0.713,0,1.292,0.578,1.292,1.292V317.769z"/>
					<path style="fill:#00B8A7;" d="M113.776,317.769h-2.584v-1.292c0-0.713,0.578-1.292,1.292-1.292l0,0
						c0.714,0,1.292,0.578,1.292,1.292V317.769z"/>
					<path style="fill:#009487;" d="M116.327,317.769h-2.583v-1.292c0-0.713,0.578-1.292,1.292-1.292l0,0
						c0.713,0,1.292,0.578,1.292,1.292V317.769z"/>
					<path style="fill:#00B8A7;" d="M118.91,317.769h-2.584v-1.292c0-0.713,0.578-1.292,1.292-1.292l0,0
						c0.713,0,1.292,0.578,1.292,1.292V317.769z"/>
					<path style="fill:#009487;" d="M121.461,317.769h-2.584v-1.292c0-0.713,0.578-1.292,1.292-1.292l0,0
						c0.714,0,1.292,0.578,1.292,1.292V317.769z"/>
					<path style="fill:#00B8A7;" d="M124.045,317.769h-2.583v-1.292c0-0.713,0.578-1.292,1.292-1.292l0,0
						c0.713,0,1.292,0.578,1.292,1.292V317.769z"/>
					<path style="fill:#009487;" d="M126.595,317.769h-2.584v-1.292c0-0.713,0.578-1.292,1.292-1.292l0,0
						c0.713,0,1.292,0.578,1.292,1.292V317.769z"/>
					<path style="fill:#00B8A7;" d="M129.179,317.769h-2.584v-1.292c0-0.713,0.578-1.292,1.292-1.292l0,0
						c0.713,0,1.292,0.578,1.292,1.292V317.769z"/>
					<path style="fill:#009487;" d="M131.729,317.769h-2.584v-1.292c0-0.713,0.578-1.292,1.292-1.292h0
						c0.713,0,1.292,0.578,1.292,1.292V317.769z"/>
					<path style="fill:#00B8A7;" d="M134.313,317.769h-2.583v-1.292c0-0.713,0.578-1.292,1.292-1.292l0,0
						c0.713,0,1.292,0.578,1.292,1.292V317.769z"/>
					<path style="fill:#009487;" d="M136.864,317.769h-2.584v-1.292c0-0.713,0.578-1.292,1.292-1.292l0,0
						c0.713,0,1.292,0.578,1.292,1.292V317.769z"/>
					<path style="fill:#00B8A7;" d="M139.447,317.769h-2.583v-1.292c0-0.713,0.578-1.292,1.292-1.292l0,0
						c0.713,0,1.292,0.578,1.292,1.292V317.769z"/>
					<path style="fill:#009487;" d="M141.998,317.769h-2.583v-1.292c0-0.713,0.578-1.292,1.292-1.292l0,0
						c0.713,0,1.292,0.578,1.292,1.292V317.769z"/>
					<path style="fill:#00B8A7;" d="M144.581,317.769h-2.583v-1.292c0-0.713,0.578-1.292,1.292-1.292l0,0
						c0.713,0,1.292,0.578,1.292,1.292V317.769z"/>
					<path style="fill:#009487;" d="M147.132,317.769h-2.583v-1.292c0-0.713,0.578-1.292,1.292-1.292l0,0
						c0.713,0,1.292,0.578,1.292,1.292V317.769z"/>
					<path style="fill:#00B8A7;" d="M149.715,317.769h-2.583v-1.292c0-0.713,0.578-1.292,1.292-1.292l0,0
						c0.713,0,1.292,0.578,1.292,1.292V317.769z"/>
					<path style="fill:#009487;" d="M152.266,317.769h-2.584v-1.292c0-0.713,0.578-1.292,1.292-1.292l0,0
						c0.713,0,1.292,0.578,1.292,1.292V317.769z"/>
					<path style="fill:#00B8A7;" d="M154.85,317.769h-2.583v-1.292c0-0.713,0.578-1.292,1.292-1.292l0,0
						c0.713,0,1.292,0.578,1.292,1.292V317.769z"/>
					<path style="fill:#009487;" d="M157.4,317.769h-2.583v-1.292c0-0.713,0.578-1.292,1.292-1.292l0,0
						c0.713,0,1.292,0.578,1.292,1.292V317.769z"/>
					<path style="fill:#00B8A7;" d="M159.984,317.769H157.4v-1.292c0-0.713,0.578-1.292,1.292-1.292l0,0
						c0.713,0,1.292,0.578,1.292,1.292V317.769z"/>
					<path style="fill:#009487;" d="M162.534,317.769h-2.584v-1.292c0-0.713,0.578-1.292,1.292-1.292l0,0
						c0.713,0,1.292,0.578,1.292,1.292V317.769z"/>
					<path style="fill:#00B8A7;" d="M165.118,317.769h-2.583v-1.292c0-0.713,0.578-1.292,1.292-1.292l0,0
						c0.713,0,1.292,0.578,1.292,1.292V317.769z"/>
					<path style="fill:#009487;" d="M167.669,317.769h-2.583v-1.292c0-0.713,0.578-1.292,1.292-1.292l0,0
						c0.713,0,1.292,0.578,1.292,1.292V317.769z"/>
					<path style="fill:#00B8A7;" d="M170.252,317.769h-2.583v-1.292c0-0.713,0.578-1.292,1.292-1.292l0,0
						c0.713,0,1.292,0.578,1.292,1.292V317.769z"/>
					<path style="fill:#009487;" d="M172.803,317.769h-2.583v-1.292c0-0.713,0.578-1.292,1.292-1.292l0,0
						c0.713,0,1.292,0.578,1.292,1.292V317.769z"/>
					<path style="fill:#00B8A7;" d="M175.386,317.769h-2.583v-1.292c0-0.713,0.578-1.292,1.292-1.292l0,0
						c0.713,0,1.292,0.578,1.292,1.292V317.769z"/>
					<path style="fill:#009487;" d="M177.937,317.769h-2.583v-1.292c0-0.713,0.578-1.292,1.292-1.292l0,0
						c0.713,0,1.292,0.578,1.292,1.292V317.769z"/>
					<path style="fill:#00B8A7;" d="M180.52,317.769h-2.583v-1.292c0-0.713,0.578-1.292,1.292-1.292l0,0
						c0.713,0,1.292,0.578,1.292,1.292V317.769z"/>
					<path style="fill:#009487;" d="M183.071,317.769h-2.583v-1.292c0-0.713,0.578-1.292,1.292-1.292l0,0
						c0.713,0,1.292,0.578,1.292,1.292V317.769z"/>
					<path style="fill:#00B8A7;" d="M185.654,317.769h-2.583v-1.292c0-0.713,0.578-1.292,1.292-1.292l0,0
						c0.713,0,1.292,0.578,1.292,1.292V317.769z"/>
					<path style="fill:#009487;" d="M188.205,317.769h-2.583v-1.292c0-0.713,0.578-1.292,1.292-1.292l0,0
						c0.713,0,1.292,0.578,1.292,1.292V317.769z"/>
					<path style="fill:#00B8A7;" d="M190.789,317.769h-2.583v-1.292c0-0.713,0.578-1.292,1.292-1.292l0,0
						c0.713,0,1.292,0.578,1.292,1.292V317.769z"/>
					<path style="fill:#009487;" d="M193.339,317.769h-2.583v-1.292c0-0.713,0.578-1.292,1.292-1.292l0,0
						c0.713,0,1.292,0.578,1.292,1.292V317.769z"/>
					<path style="fill:#00B8A7;" d="M195.923,317.769h-2.584v-1.292c0-0.713,0.578-1.292,1.292-1.292l0,0
						c0.713,0,1.292,0.578,1.292,1.292V317.769z"/>
					<polygon style="fill:#008277;" points="36.389,326.397 41.232,329.029 41.232,326.397 					"/>
					<polygon style="fill:#008277;" points="200.207,326.397 195.364,329.029 195.364,326.397 					"/>
				</g>
				<g>
					<rect x="274.655" y="303.632" style="fill:#F1EB6C;" width="52.326" height="65.954"/>
					<rect x="280.944" y="309.367" style="fill:#F1E811;" width="39.747" height="60.218"/>
					<path style="fill:#C9C20F;" d="M317.782,336.796c0.032-0.206,0.055-0.416,0.055-0.633c0-1.448-0.754-2.689-1.832-3.242
						c0.008-0.104,0.027-0.204,0.027-0.31c0-1.668-1.001-3.057-2.346-3.439c0.001-0.039,0.01-0.075,0.01-0.113
						c0-1.962-1.38-3.552-3.082-3.552c-0.006,0-0.011,0.002-0.017,0.002c-0.089-1.87-1.42-3.359-3.065-3.359
						c-0.171,0-0.337,0.027-0.5,0.058c-0.422-1.382-1.553-2.378-2.896-2.378c-0.073,0-0.143,0.019-0.215,0.025
						c-0.326,0.028-0.642,0.101-0.932,0.236c-0.003-0.012-0.006-0.024-0.009-0.036c-0.617-2.393-3.708-2.393-4.326,0
						c-0.003,0.012-0.006,0.024-0.009,0.036c-0.291-0.135-0.606-0.208-0.933-0.236c-0.072-0.006-0.141-0.025-0.215-0.025
						c-1.343,0-2.473,0.997-2.896,2.378c-0.164-0.031-0.329-0.058-0.5-0.058c-1.644,0-2.976,1.489-3.065,3.359
						c-0.006,0-0.011-0.002-0.017-0.002c-1.702,0-3.082,1.591-3.082,3.552c0,0.039,0.009,0.075,0.01,0.113
						c-1.345,0.382-2.346,1.771-2.346,3.439c0,0.106,0.019,0.206,0.027,0.31c-1.078,0.553-1.833,1.794-1.833,3.242
						c0,0.217,0.023,0.427,0.055,0.633c0,0.001,0,0.001,0,0.002l-0.016,0.018v32.77h3.648h13.333h13.333h3.648v-32.77l-0.016-0.018
						C317.782,336.797,317.782,336.797,317.782,336.796z"/>
					<path style="fill:#DED610;" d="M309.844,351.967c0.017-0.111,0.03-0.224,0.03-0.34c0-0.778-0.401-1.445-0.975-1.742
						c0.004-0.056,0.014-0.109,0.014-0.167c0-0.896-0.533-1.643-1.248-1.848c0.001-0.021,0.005-0.04,0.005-0.061
						c0-1.054-0.734-1.909-1.64-1.909c-0.003,0-0.006,0.001-0.009,0.001c-0.047-1.005-0.756-1.805-1.631-1.805
						c-0.091,0-0.179,0.015-0.266,0.031c-0.225-0.742-0.826-1.278-1.541-1.278c-0.039,0-0.076,0.01-0.114,0.013
						c-0.174,0.015-0.341,0.054-0.496,0.127c-0.002-0.006-0.003-0.013-0.005-0.019c-0.328-1.286-1.973-1.286-2.302,0
						c-0.002,0.006-0.003,0.013-0.005,0.019c-0.155-0.072-0.323-0.112-0.496-0.127c-0.038-0.003-0.075-0.013-0.114-0.013
						c-0.715,0-1.316,0.535-1.541,1.278c-0.087-0.017-0.175-0.031-0.266-0.031c-0.875,0-1.583,0.8-1.631,1.805
						c-0.003,0-0.006-0.001-0.009-0.001c-0.905,0-1.64,0.855-1.64,1.909c0,0.021,0.005,0.04,0.005,0.061
						c-0.715,0.205-1.248,0.952-1.248,1.848c0,0.057,0.01,0.111,0.014,0.167c-0.574,0.297-0.975,0.964-0.975,1.742
						c0,0.116,0.012,0.229,0.03,0.34c0,0,0,0.001,0,0.001l-0.009,0.01v17.608h1.941h7.094h7.094h1.941v-17.608L309.844,351.967
						C309.844,351.967,309.844,351.967,309.844,351.967z"/>
					<g>
						
							<line style="fill:none;stroke:#FAF6A7;stroke-width:1.5;stroke-miterlimit:10;" x1="300.783" y1="318.259" x2="300.783" y2="312.748"/>
						
							<line style="fill:none;stroke:#FAF6A7;stroke-width:1.5;stroke-miterlimit:10;" x1="299.127" y1="314.21" x2="302.508" y2="314.21"/>
					</g>
					<g>
						
							<line style="fill:none;stroke:#FAF6A7;stroke-width:1.5;stroke-miterlimit:10;" x1="300.783" y1="342.009" x2="300.783" y2="336.969"/>
						
							<line style="fill:none;stroke:#FAF6A7;stroke-width:1.5;stroke-miterlimit:10;" x1="299.127" y1="338.431" x2="302.508" y2="338.431"/>
					</g>
					<g>
						<g>
							<rect x="277.508" y="288.634" style="fill:#F1EB6C;" width="3.722" height="10.589"/>
							<path style="fill:#DED610;" d="M274.197,282.713c1.794,1.223,3.299,5.921,3.299,5.921h1.892h1.838
								c0,0,1.56-4.698,3.354-5.921"/>
							<rect x="274.203" y="274.802" style="fill:#F1E811;" width="10.358" height="7.908"/>
							<rect x="273.52" y="272.298" style="fill:#DED610;" width="11.699" height="2.504"/>
							<path style="fill:#FAF6A7;" d="M278.361,281.831h-2.034v-3.917c0-0.562,0.455-1.017,1.017-1.017l0,0
								c0.562,0,1.017,0.455,1.017,1.017V281.831z"/>
							<path style="fill:#FAF6A7;" d="M282.293,281.831h-2.034v-3.917c0-0.562,0.455-1.017,1.017-1.017l0,0
								c0.562,0,1.017,0.455,1.017,1.017V281.831z"/>
							<polyline style="fill:#C9C20F;" points="278.687,272.298 279.37,254.693 280.052,272.298 							"/>
						</g>
						<g>
							<rect x="320.404" y="288.634" style="fill:#F1EB6C;" width="3.722" height="10.589"/>
							<path style="fill:#DED610;" d="M317.092,282.713c1.794,1.223,3.299,5.921,3.299,5.921h1.892h1.837
								c0,0,1.56-4.698,3.354-5.921"/>
							<rect x="317.099" y="274.802" style="fill:#F1E811;" width="10.358" height="7.908"/>
							<rect x="316.416" y="272.298" style="fill:#DED610;" width="11.699" height="2.504"/>
							<path style="fill:#FAF6A7;" d="M321.257,281.831h-2.034v-3.917c0-0.562,0.455-1.017,1.017-1.017l0,0
								c0.562,0,1.017,0.455,1.017,1.017V281.831z"/>
							<path style="fill:#FAF6A7;" d="M325.189,281.831h-2.034v-3.917c0-0.562,0.455-1.017,1.017-1.017l0,0
								c0.562,0,1.017,0.455,1.017,1.017V281.831z"/>
							<polyline style="fill:#C9C20F;" points="321.583,272.298 322.266,254.693 322.948,272.298 							"/>
						</g>
					</g>
					<rect x="274.655" y="299.813" style="fill:#C9C20F;" width="52.326" height="3.819"/>
					<g>
						<path style="fill:#F1EB6C;" d="M285.724,295.991c0-4.692,6.758-8.495,15.094-8.495c8.336,0,15.094,3.803,15.094,8.495"/>
						<path style="fill:#F1E811;" d="M307.432,288.364l-6.61-10.358l-6.619,10.358c2-0.55,4.238-0.868,6.614-0.868
							C303.194,287.496,305.433,287.813,307.432,288.364z"/>
						<polygon style="fill:#C9C20F;" points="301.474,279.026 300.842,261.816 300.163,279.037 300.822,278.005 						"/>
						<ellipse style="fill:#C9C20F;" cx="300.818" cy="273.422" rx="1.329" ry="1.072"/>
						<path style="fill:#C9C20F;" d="M301.677,270.175c0,0.383-0.385,0.694-0.86,0.694s-0.86-0.311-0.86-0.694
							c0-0.383,0.385-0.694,0.86-0.694S301.677,269.792,301.677,270.175z"/>
					</g>
					<rect x="202.648" y="369.585" style="fill:#F1EB6C;" width="196.339" height="2.632"/>
					<rect x="200.207" y="372.217" style="fill:#F1E811;" width="201.221" height="2.632"/>
					<g>
						<rect x="326.98" y="334.05" style="fill:#F1E811;" width="54.052" height="35.535"/>
						<path style="fill:#DED610;" d="M328.36,358.235c-0.011-0.071-0.018-0.144-0.018-0.219c0-0.501,0.25-0.931,0.608-1.122
							c-0.003-0.036-0.009-0.071-0.009-0.107c0-0.577,0.332-1.058,0.778-1.191c0-0.013-0.003-0.026-0.003-0.039
							c0-0.679,0.458-1.23,1.023-1.23c0.002,0,0.004,0.001,0.006,0.001c0.03-0.647,0.471-1.163,1.017-1.163
							c0.057,0,0.112,0.009,0.166,0.02c0.14-0.478,0.515-0.823,0.961-0.823c0.024,0,0.047,0.007,0.071,0.009
							c0.108,0.01,0.213,0.035,0.309,0.082c0.001-0.004,0.002-0.008,0.003-0.012c0.205-0.829,1.23-0.829,1.435,0
							c0.001,0.004,0.002,0.008,0.003,0.012c0.096-0.047,0.201-0.072,0.309-0.082c0.024-0.002,0.047-0.009,0.071-0.009
							c0.446,0,0.821,0.345,0.961,0.823c0.054-0.011,0.109-0.02,0.166-0.02c0.546,0,0.987,0.515,1.017,1.163
							c0.002,0,0.004-0.001,0.006-0.001c0.565,0,1.022,0.551,1.022,1.23c0,0.013-0.003,0.026-0.003,0.039
							c0.446,0.132,0.778,0.613,0.778,1.191c0,0.037-0.006,0.071-0.009,0.107c0.358,0.191,0.608,0.621,0.608,1.122
							c0,0.075-0.008,0.148-0.018,0.219c0,0,0,0,0,0.001l0.005,0.006v11.344h-1.21h-4.424h-4.424h-1.21v-11.344L328.36,358.235
							C328.36,358.235,328.36,358.235,328.36,358.235z"/>
						<path style="fill:#DED610;" d="M341.589,358.235c-0.011-0.071-0.018-0.144-0.018-0.219c0-0.501,0.25-0.931,0.608-1.122
							c-0.002-0.036-0.009-0.071-0.009-0.107c0-0.577,0.332-1.058,0.778-1.191c0-0.013-0.003-0.026-0.003-0.039
							c0-0.679,0.458-1.23,1.023-1.23c0.002,0,0.004,0.001,0.006,0.001c0.03-0.647,0.471-1.163,1.017-1.163
							c0.057,0,0.112,0.009,0.166,0.02c0.14-0.478,0.515-0.823,0.961-0.823c0.024,0,0.047,0.007,0.071,0.009
							c0.108,0.01,0.213,0.035,0.309,0.082c0.001-0.004,0.002-0.008,0.003-0.012c0.205-0.829,1.23-0.829,1.435,0
							c0.001,0.004,0.002,0.008,0.003,0.012c0.096-0.047,0.201-0.072,0.309-0.082c0.024-0.002,0.047-0.009,0.071-0.009
							c0.446,0,0.821,0.345,0.961,0.823c0.054-0.011,0.109-0.02,0.166-0.02c0.546,0,0.987,0.515,1.017,1.163
							c0.002,0,0.004-0.001,0.006-0.001c0.565,0,1.023,0.551,1.023,1.23c0,0.013-0.003,0.026-0.003,0.039
							c0.446,0.132,0.778,0.613,0.778,1.191c0,0.037-0.006,0.071-0.009,0.107c0.358,0.191,0.608,0.621,0.608,1.122
							c0,0.075-0.008,0.148-0.018,0.219c0,0,0,0,0,0.001l0.005,0.006v11.344h-1.21h-4.424h-4.424h-1.21v-11.344L341.589,358.235
							C341.589,358.235,341.589,358.235,341.589,358.235z"/>
						<path style="fill:#DED610;" d="M354.818,358.235c-0.011-0.071-0.018-0.144-0.018-0.219c0-0.501,0.25-0.931,0.608-1.122
							c-0.003-0.036-0.009-0.071-0.009-0.107c0-0.577,0.332-1.058,0.778-1.191c0-0.013-0.003-0.026-0.003-0.039
							c0-0.679,0.458-1.23,1.023-1.23c0.002,0,0.004,0.001,0.005,0.001c0.03-0.647,0.471-1.163,1.017-1.163
							c0.057,0,0.112,0.009,0.166,0.02c0.14-0.478,0.515-0.823,0.961-0.823c0.024,0,0.047,0.007,0.071,0.009
							c0.108,0.01,0.213,0.035,0.309,0.082c0.001-0.004,0.002-0.008,0.003-0.012c0.205-0.829,1.23-0.829,1.435,0
							c0.001,0.004,0.002,0.008,0.003,0.012c0.096-0.047,0.201-0.072,0.309-0.082c0.024-0.002,0.047-0.009,0.071-0.009
							c0.446,0,0.821,0.345,0.961,0.823c0.054-0.011,0.109-0.02,0.166-0.02c0.546,0,0.987,0.515,1.017,1.163
							c0.002,0,0.004-0.001,0.006-0.001c0.565,0,1.023,0.551,1.023,1.23c0,0.013-0.003,0.026-0.003,0.039
							c0.446,0.132,0.778,0.613,0.778,1.191c0,0.037-0.006,0.071-0.009,0.107c0.358,0.191,0.608,0.621,0.608,1.122
							c0,0.075-0.008,0.148-0.018,0.219c0,0,0,0,0,0.001l0.005,0.006v11.344h-1.21h-4.424h-4.424h-1.21v-11.344L354.818,358.235
							C354.818,358.235,354.818,358.235,354.818,358.235z"/>
						<path style="fill:#DED610;" d="M368.047,358.235c-0.011-0.071-0.018-0.144-0.018-0.219c0-0.501,0.25-0.931,0.608-1.122
							c-0.003-0.036-0.009-0.071-0.009-0.107c0-0.577,0.332-1.058,0.778-1.191c0-0.013-0.003-0.026-0.003-0.039
							c0-0.679,0.458-1.23,1.023-1.23c0.002,0,0.004,0.001,0.006,0.001c0.03-0.647,0.471-1.163,1.017-1.163
							c0.057,0,0.112,0.009,0.166,0.02c0.14-0.478,0.515-0.823,0.961-0.823c0.024,0,0.047,0.007,0.071,0.009
							c0.108,0.01,0.213,0.035,0.309,0.082c0.001-0.004,0.002-0.008,0.003-0.012c0.205-0.829,1.23-0.829,1.435,0
							c0.001,0.004,0.002,0.008,0.003,0.012c0.096-0.047,0.201-0.072,0.309-0.082c0.024-0.002,0.047-0.009,0.071-0.009
							c0.446,0,0.821,0.345,0.961,0.823c0.054-0.011,0.109-0.02,0.166-0.02c0.546,0,0.987,0.515,1.017,1.163
							c0.002,0,0.004-0.001,0.005-0.001c0.565,0,1.023,0.551,1.023,1.23c0,0.013-0.003,0.026-0.003,0.039
							c0.446,0.132,0.778,0.613,0.778,1.191c0,0.037-0.006,0.071-0.009,0.107c0.358,0.191,0.608,0.621,0.608,1.122
							c0,0.075-0.008,0.148-0.018,0.219c0,0,0,0,0,0.001l0.005,0.006v11.344h-1.21h-4.424h-4.424h-1.21v-11.344L368.047,358.235
							C368.047,358.235,368.048,358.235,368.047,358.235z"/>
						<rect x="383.528" y="246.467" style="fill:#F1E811;" width="9.241" height="6.957"/>
						
							<rect x="382.501" y="244.168" transform="matrix(-1 -1.224647e-16 1.224647e-16 -1 776.2981 490.6359)" style="fill:#DED610;" width="11.295" height="2.299"/>
						<g>
							<path style="fill:#FAF6A7;" d="M389.233,252.921h1.783v-3.639c0-0.493-0.399-0.892-0.892-0.892l0,0
								c-0.492,0-0.892,0.399-0.892,0.892V252.921z"/>
							<path style="fill:#FAF6A7;" d="M385.282,252.921h1.784v-3.639c0-0.493-0.399-0.892-0.892-0.892l0,0
								c-0.492,0-0.892,0.399-0.892,0.892V252.921z"/>
						</g>
						<path style="fill:#C9C20F;" d="M387.467,244.226c-0.001-0.019-0.001-0.039,0-0.058l0.682-16.164l0.682,16.164"/>
						<path style="fill:#C9C20F;" d="M326.98,334.05h5.405v-3.999c0-0.995-1.21-1.802-2.703-1.802l0,0
							c-1.493,0-2.703,0.807-2.703,1.802V334.05z"/>
						<path style="fill:#DED610;" d="M332.386,334.05h5.405v-3.999c0-0.995-1.21-1.802-2.703-1.802l0,0
							c-1.493,0-2.703,0.807-2.703,1.802V334.05z"/>
						<path style="fill:#C9C20F;" d="M337.791,334.05h5.405v-3.999c0-0.995-1.21-1.802-2.703-1.802l0,0
							c-1.493,0-2.703,0.807-2.703,1.802V334.05z"/>
						<path style="fill:#DED610;" d="M343.196,334.05h5.405v-3.999c0-0.995-1.21-1.802-2.703-1.802l0,0
							c-1.493,0-2.703,0.807-2.703,1.802V334.05z"/>
						<path style="fill:#C9C20F;" d="M348.601,334.05h5.405v-3.999c0-0.995-1.21-1.802-2.703-1.802l0,0
							c-1.493,0-2.703,0.807-2.703,1.802V334.05z"/>
						<path style="fill:#DED610;" d="M354.007,334.05h5.405v-3.999c0-0.995-1.21-1.802-2.703-1.802l0,0
							c-1.493,0-2.703,0.807-2.703,1.802V334.05z"/>
						<path style="fill:#C9C20F;" d="M359.412,334.05h5.405v-3.999c0-0.995-1.21-1.802-2.703-1.802l0,0
							c-1.493,0-2.703,0.807-2.703,1.802V334.05z"/>
						<path style="fill:#DED610;" d="M364.817,334.05h5.405v-3.999c0-0.995-1.21-1.802-2.703-1.802l0,0
							c-1.492,0-2.703,0.807-2.703,1.802V334.05z"/>
						<path style="fill:#C9C20F;" d="M370.222,334.05h5.405v-3.999c0-0.995-1.21-1.802-2.703-1.802l0,0
							c-1.493,0-2.703,0.807-2.703,1.802V334.05z"/>
						<path style="fill:#DED610;" d="M375.628,334.05h5.405v-3.999c0-0.995-1.21-1.802-2.703-1.802l0,0
							c-1.493,0-2.703,0.807-2.703,1.802V334.05z"/>
						<rect x="381.033" y="367.154" style="fill:#DED610;" width="14.233" height="2.425"/>
						<rect x="381.033" y="365.941" style="fill:#F1EB6C;" width="14.233" height="1.212"/>
						
							<rect x="381.033" y="329.468" transform="matrix(-1 -1.224647e-16 1.224647e-16 -1 776.2981 695.4091)" style="fill:#C9C20F;" width="14.233" height="36.474"/>
						<polyline style="fill:#DED610;" points="381.033,329.468 376.732,324.301 388.149,324.301 399.566,324.301 395.265,329.468 
													"/>
						<polyline style="fill:#DED610;" points="381.676,294.03 377.763,288.863 388.149,288.863 398.535,288.863 394.622,294.03 
													"/>
						<polyline style="fill:#DED610;" points="383.18,258.592 380.176,253.425 388.149,253.425 396.122,253.425 393.118,258.592 
													"/>
						
							<rect x="381.785" y="294.03" transform="matrix(-1 -1.224647e-16 1.224647e-16 -1 776.2982 618.3306)" style="fill:#C9C20F;" width="12.729" height="30.271"/>
						
							<rect x="383.218" y="258.592" transform="matrix(-1 -1.224647e-16 1.224647e-16 -1 776.2982 547.4547)" style="fill:#C9C20F;" width="9.861" height="30.271"/>
						<rect x="327.027" y="336.11" style="fill:#C9C20F;" width="54.006" height="0.859"/>
						<g>
							<polygon style="fill:#DED610;" points="338.963,344.75 329.016,344.75 329.016,336.969 328.342,336.969 328.342,344.75 
								326.981,344.75 326.981,345.432 328.342,345.432 329.016,345.432 338.963,345.432 339.637,345.432 339.637,344.75 
								339.637,336.969 338.963,336.969 							"/>
							<polygon style="fill:#DED610;" points="352.192,344.75 342.245,344.75 342.245,336.969 341.571,336.969 341.571,344.75 
								341.571,345.432 342.245,345.432 352.192,345.432 352.866,345.432 352.866,344.75 352.866,336.969 352.192,336.969 							
								"/>
							<polygon style="fill:#DED610;" points="365.421,344.75 355.474,344.75 355.474,336.969 354.8,336.969 354.8,344.75 
								354.8,345.432 355.474,345.432 365.421,345.432 366.095,345.432 366.095,344.75 366.095,336.969 365.421,336.969 							"/>
							<polygon style="fill:#DED610;" points="342.245,347.261 341.571,347.261 341.571,347.943 341.571,358.235 342.245,358.235 
								342.245,347.943 352.192,347.943 352.192,358.235 352.866,358.235 352.866,347.943 352.866,347.261 352.192,347.261 							
								"/>
							<polygon style="fill:#DED610;" points="355.474,347.261 354.8,347.261 354.8,347.943 354.8,358.235 355.474,358.235 
								355.474,347.943 365.421,347.943 365.421,358.235 366.095,358.235 366.095,347.943 366.095,347.261 365.421,347.261 							
								"/>
							<polygon style="fill:#DED610;" points="378.65,347.261 368.703,347.261 368.029,347.261 368.029,347.943 368.029,358.235 
								368.703,358.235 368.703,347.943 378.65,347.943 378.65,358.235 379.324,358.235 379.324,347.943 381.033,347.943 
								381.033,347.261 379.324,347.261 							"/>
							<polygon style="fill:#DED610;" points="329.016,347.261 328.342,347.261 326.981,347.261 326.981,347.943 328.342,347.943 
								328.342,358.235 329.016,358.235 329.016,347.943 338.963,347.943 338.963,358.235 339.637,358.235 339.637,347.943 
								339.637,347.261 338.963,347.261 							"/>
							<polygon style="fill:#DED610;" points="379.324,344.75 379.324,336.969 378.65,336.969 378.65,344.75 368.703,344.75 
								368.703,336.969 368.029,336.969 368.029,344.75 368.029,345.432 368.703,345.432 378.65,345.432 379.324,345.432 
								381.033,345.432 381.033,344.75 							"/>
						</g>
						<rect x="329.683" y="338.742" style="fill:#FAF6A7;" width="8.598" height="4.875"/>
						<rect x="342.92" y="338.742" style="fill:#FAF6A7;" width="8.598" height="4.875"/>
						<rect x="356.156" y="338.742" style="fill:#FAF6A7;" width="8.598" height="4.875"/>
						<rect x="369.393" y="338.742" style="fill:#FAF6A7;" width="8.598" height="4.875"/>
					</g>
					<g>
						
							<rect x="220.563" y="334.05" transform="matrix(-1 -1.224647e-16 1.224647e-16 -1 495.1773 703.6348)" style="fill:#F1E811;" width="54.052" height="35.535"/>
						<path style="fill:#DED610;" d="M273.235,358.235c0.011-0.071,0.018-0.144,0.018-0.219c0-0.501-0.25-0.931-0.608-1.122
							c0.003-0.036,0.009-0.071,0.009-0.107c0-0.577-0.332-1.058-0.778-1.191c0-0.013,0.003-0.026,0.003-0.039
							c0-0.679-0.458-1.23-1.022-1.23c-0.002,0-0.004,0.001-0.006,0.001c-0.03-0.647-0.471-1.163-1.017-1.163
							c-0.057,0-0.112,0.009-0.166,0.02c-0.14-0.478-0.515-0.823-0.961-0.823c-0.025,0-0.047,0.007-0.071,0.009
							c-0.108,0.01-0.213,0.035-0.309,0.082c-0.001-0.004-0.002-0.008-0.003-0.012c-0.205-0.829-1.23-0.829-1.435,0
							c-0.001,0.004-0.002,0.008-0.003,0.012c-0.096-0.047-0.201-0.072-0.31-0.082c-0.024-0.002-0.047-0.009-0.071-0.009
							c-0.446,0-0.821,0.345-0.961,0.823c-0.054-0.011-0.109-0.02-0.166-0.02c-0.546,0-0.987,0.515-1.017,1.163
							c-0.002,0-0.004-0.001-0.006-0.001c-0.565,0-1.022,0.551-1.022,1.23c0,0.013,0.003,0.026,0.003,0.039
							c-0.446,0.132-0.778,0.613-0.778,1.191c0,0.037,0.006,0.071,0.009,0.107c-0.358,0.191-0.608,0.621-0.608,1.122
							c0,0.075,0.008,0.148,0.018,0.219c0,0,0,0,0,0.001l-0.005,0.006v11.344h1.21h4.424h4.424h1.21v-11.344L273.235,358.235
							C273.235,358.235,273.235,358.235,273.235,358.235z"/>
						<path style="fill:#DED610;" d="M260.006,358.235c0.011-0.071,0.018-0.144,0.018-0.219c0-0.501-0.25-0.931-0.608-1.122
							c0.003-0.036,0.009-0.071,0.009-0.107c0-0.577-0.332-1.058-0.779-1.191c0-0.013,0.003-0.026,0.003-0.039
							c0-0.679-0.458-1.23-1.023-1.23c-0.002,0-0.004,0.001-0.006,0.001c-0.03-0.647-0.471-1.163-1.017-1.163
							c-0.057,0-0.112,0.009-0.166,0.02c-0.14-0.478-0.515-0.823-0.961-0.823c-0.024,0-0.047,0.007-0.071,0.009
							c-0.108,0.01-0.213,0.035-0.309,0.082c-0.001-0.004-0.002-0.008-0.003-0.012c-0.205-0.829-1.23-0.829-1.435,0
							c-0.001,0.004-0.002,0.008-0.003,0.012c-0.096-0.047-0.201-0.072-0.31-0.082c-0.024-0.002-0.047-0.009-0.071-0.009
							c-0.446,0-0.821,0.345-0.961,0.823c-0.054-0.011-0.109-0.02-0.166-0.02c-0.546,0-0.987,0.515-1.017,1.163
							c-0.002,0-0.004-0.001-0.006-0.001c-0.565,0-1.023,0.551-1.023,1.23c0,0.013,0.003,0.026,0.003,0.039
							c-0.446,0.132-0.778,0.613-0.778,1.191c0,0.037,0.006,0.071,0.009,0.107c-0.358,0.191-0.608,0.621-0.608,1.122
							c0,0.075,0.008,0.148,0.018,0.219c0,0,0,0,0,0.001l-0.005,0.006v11.344h1.21h4.424h4.424h1.21v-11.344L260.006,358.235
							C260.006,358.235,260.006,358.235,260.006,358.235z"/>
						<path style="fill:#DED610;" d="M246.777,358.235c0.011-0.071,0.018-0.144,0.018-0.219c0-0.501-0.25-0.931-0.608-1.122
							c0.003-0.036,0.009-0.071,0.009-0.107c0-0.577-0.332-1.058-0.778-1.191c0-0.013,0.003-0.026,0.003-0.039
							c0-0.679-0.458-1.23-1.023-1.23c-0.002,0-0.004,0.001-0.005,0.001c-0.03-0.647-0.471-1.163-1.017-1.163
							c-0.057,0-0.112,0.009-0.166,0.02c-0.14-0.478-0.515-0.823-0.961-0.823c-0.024,0-0.047,0.007-0.071,0.009
							c-0.108,0.01-0.213,0.035-0.309,0.082c-0.001-0.004-0.002-0.008-0.003-0.012c-0.205-0.829-1.23-0.829-1.435,0
							c-0.001,0.004-0.002,0.008-0.003,0.012c-0.097-0.047-0.201-0.072-0.309-0.082c-0.024-0.002-0.047-0.009-0.071-0.009
							c-0.446,0-0.821,0.345-0.961,0.823c-0.054-0.011-0.109-0.02-0.166-0.02c-0.546,0-0.987,0.515-1.017,1.163
							c-0.002,0-0.004-0.001-0.006-0.001c-0.565,0-1.022,0.551-1.022,1.23c0,0.013,0.003,0.026,0.003,0.039
							c-0.446,0.132-0.778,0.613-0.778,1.191c0,0.037,0.006,0.071,0.009,0.107c-0.358,0.191-0.608,0.621-0.608,1.122
							c0,0.075,0.008,0.148,0.018,0.219c0,0,0,0,0,0.001l-0.005,0.006v11.344h1.21h4.424h4.424h1.21v-11.344L246.777,358.235
							C246.777,358.235,246.777,358.235,246.777,358.235z"/>
						<path style="fill:#DED610;" d="M233.548,358.235c0.011-0.071,0.018-0.144,0.018-0.219c0-0.501-0.25-0.931-0.608-1.122
							c0.003-0.036,0.009-0.071,0.009-0.107c0-0.577-0.332-1.058-0.778-1.191c0-0.013,0.003-0.026,0.003-0.039
							c0-0.679-0.458-1.23-1.023-1.23c-0.002,0-0.004,0.001-0.006,0.001c-0.029-0.647-0.471-1.163-1.017-1.163
							c-0.057,0-0.112,0.009-0.166,0.02c-0.14-0.478-0.515-0.823-0.961-0.823c-0.024,0-0.047,0.007-0.071,0.009
							c-0.108,0.01-0.213,0.035-0.309,0.082c-0.001-0.004-0.002-0.008-0.003-0.012c-0.205-0.829-1.23-0.829-1.435,0
							c-0.001,0.004-0.002,0.008-0.003,0.012c-0.096-0.047-0.201-0.072-0.309-0.082c-0.024-0.002-0.047-0.009-0.071-0.009
							c-0.446,0-0.821,0.345-0.961,0.823c-0.054-0.011-0.109-0.02-0.166-0.02c-0.546,0-0.987,0.515-1.017,1.163
							c-0.002,0-0.004-0.001-0.006-0.001c-0.565,0-1.023,0.551-1.023,1.23c0,0.013,0.003,0.026,0.003,0.039
							c-0.446,0.132-0.778,0.613-0.778,1.191c0,0.037,0.006,0.071,0.009,0.107c-0.358,0.191-0.608,0.621-0.608,1.122
							c0,0.075,0.008,0.148,0.018,0.219c0,0,0,0,0,0.001l-0.005,0.006v11.344h1.21h4.424h4.424h1.21v-11.344L233.548,358.235
							C233.548,358.235,233.548,358.235,233.548,358.235z"/>
						<rect x="208.826" y="246.467" style="fill:#F1E811;" width="9.241" height="6.957"/>
						<rect x="207.799" y="244.168" style="fill:#DED610;" width="11.295" height="2.299"/>
						<g>
							<path style="fill:#FAF6A7;" d="M212.362,252.921h-1.783v-3.639c0-0.493,0.399-0.892,0.892-0.892l0,0
								c0.492,0,0.892,0.399,0.892,0.892V252.921z"/>
							<path style="fill:#FAF6A7;" d="M216.314,252.921h-1.784v-3.639c0-0.493,0.399-0.892,0.892-0.892l0,0
								c0.492,0,0.892,0.399,0.892,0.892V252.921z"/>
						</g>
						<path style="fill:#C9C20F;" d="M214.129,244.226c0.001-0.019,0.001-0.039,0-0.058l-0.682-16.164l-0.682,16.164"/>
						<path style="fill:#C9C20F;" d="M274.615,334.05h-5.405v-3.999c0-0.995,1.21-1.802,2.703-1.802l0,0
							c1.493,0,2.703,0.807,2.703,1.802V334.05z"/>
						<path style="fill:#DED610;" d="M269.21,334.05h-5.405v-3.999c0-0.995,1.21-1.802,2.702-1.802l0,0
							c1.493,0,2.703,0.807,2.703,1.802V334.05z"/>
						<path style="fill:#C9C20F;" d="M263.805,334.05h-5.405v-3.999c0-0.995,1.21-1.802,2.703-1.802l0,0
							c1.493,0,2.703,0.807,2.703,1.802V334.05z"/>
						<path style="fill:#DED610;" d="M258.399,334.05h-5.405v-3.999c0-0.995,1.21-1.802,2.703-1.802l0,0
							c1.493,0,2.702,0.807,2.702,1.802V334.05z"/>
						<path style="fill:#C9C20F;" d="M252.994,334.05h-5.405v-3.999c0-0.995,1.21-1.802,2.702-1.802l0,0
							c1.493,0,2.703,0.807,2.703,1.802V334.05z"/>
						<path style="fill:#DED610;" d="M247.589,334.05h-5.405v-3.999c0-0.995,1.21-1.802,2.703-1.802l0,0
							c1.493,0,2.703,0.807,2.703,1.802V334.05z"/>
						<path style="fill:#C9C20F;" d="M242.183,334.05h-5.405v-3.999c0-0.995,1.21-1.802,2.703-1.802l0,0
							c1.493,0,2.702,0.807,2.702,1.802V334.05z"/>
						<path style="fill:#DED610;" d="M236.778,334.05h-5.405v-3.999c0-0.995,1.21-1.802,2.703-1.802l0,0
							c1.492,0,2.702,0.807,2.702,1.802V334.05z"/>
						<path style="fill:#C9C20F;" d="M231.373,334.05h-5.405v-3.999c0-0.995,1.21-1.802,2.702-1.802l0,0
							c1.493,0,2.703,0.807,2.703,1.802V334.05z"/>
						<path style="fill:#DED610;" d="M225.968,334.05h-5.405v-3.999c0-0.995,1.21-1.802,2.703-1.802l0,0
							c1.493,0,2.703,0.807,2.703,1.802V334.05z"/>
						<rect x="206.33" y="367.154" style="fill:#DED610;" width="14.232" height="2.425"/>
						<rect x="206.33" y="365.941" style="fill:#F1EB6C;" width="14.233" height="1.212"/>
						<rect x="206.33" y="329.468" style="fill:#C9C20F;" width="14.233" height="36.474"/>
						<polyline style="fill:#DED610;" points="220.563,329.468 224.864,324.301 213.446,324.301 202.029,324.301 206.33,329.468 
													"/>
						<polyline style="fill:#DED610;" points="219.919,294.03 223.832,288.863 213.446,288.863 203.06,288.863 206.973,294.03 
													"/>
						<polyline style="fill:#DED610;" points="218.416,258.592 221.419,253.425 213.446,253.425 205.473,253.425 208.477,258.592 
													"/>
						<rect x="207.082" y="294.03" style="fill:#C9C20F;" width="12.729" height="30.271"/>
						<rect x="208.516" y="258.592" style="fill:#C9C20F;" width="9.861" height="30.271"/>
						
							<rect x="220.563" y="336.11" transform="matrix(-1 -1.224647e-16 1.224647e-16 -1 495.1308 673.0792)" style="fill:#C9C20F;" width="54.006" height="0.859"/>
						<g>
							<polygon style="fill:#DED610;" points="262.632,344.75 272.579,344.75 272.579,336.969 273.253,336.969 273.253,344.75 
								274.615,344.75 274.615,345.432 273.253,345.432 272.579,345.432 262.632,345.432 261.958,345.432 261.958,344.75 
								261.958,336.969 262.632,336.969 							"/>
							<polygon style="fill:#DED610;" points="249.403,344.75 259.35,344.75 259.35,336.969 260.024,336.969 260.024,344.75 
								260.024,345.432 259.35,345.432 249.403,345.432 248.729,345.432 248.729,344.75 248.729,336.969 249.403,336.969 							"/>
							<polygon style="fill:#DED610;" points="236.174,344.75 246.121,344.75 246.121,336.969 246.795,336.969 246.795,344.75 
								246.795,345.432 246.121,345.432 236.174,345.432 235.5,345.432 235.5,344.75 235.5,336.969 236.174,336.969 							"/>
							<polygon style="fill:#DED610;" points="259.35,347.261 260.024,347.261 260.024,347.943 260.024,358.235 259.35,358.235 
								259.35,347.943 249.403,347.943 249.403,358.235 248.729,358.235 248.729,347.943 248.729,347.261 249.403,347.261 							
								"/>
							<polygon style="fill:#DED610;" points="246.121,347.261 246.795,347.261 246.795,347.943 246.795,358.235 246.121,358.235 
								246.121,347.943 236.174,347.943 236.174,358.235 235.5,358.235 235.5,347.943 235.5,347.261 236.174,347.261 							"/>
							<polygon style="fill:#DED610;" points="222.945,347.261 232.892,347.261 233.566,347.261 233.566,347.943 233.566,358.235 
								232.892,358.235 232.892,347.943 222.945,347.943 222.945,358.235 222.271,358.235 222.271,347.943 220.563,347.943 
								220.563,347.261 222.271,347.261 							"/>
							<polygon style="fill:#DED610;" points="272.579,347.261 273.253,347.261 274.615,347.261 274.615,347.943 273.253,347.943 
								273.253,358.235 272.579,358.235 272.579,347.943 262.632,347.943 262.632,358.235 261.958,358.235 261.958,347.943 
								261.958,347.261 262.632,347.261 							"/>
							<polygon style="fill:#DED610;" points="222.271,344.75 222.271,336.969 222.945,336.969 222.945,344.75 232.892,344.75 
								232.892,336.969 233.566,336.969 233.566,344.75 233.566,345.432 232.892,345.432 222.945,345.432 222.271,345.432 
								220.563,345.432 220.563,344.75 							"/>
						</g>
						
							<rect x="263.315" y="338.742" transform="matrix(-1 -1.224647e-16 1.224647e-16 -1 535.2269 682.359)" style="fill:#FAF6A7;" width="8.597" height="4.875"/>
						
							<rect x="250.078" y="338.742" transform="matrix(-1 -1.224647e-16 1.224647e-16 -1 508.7535 682.359)" style="fill:#FAF6A7;" width="8.597" height="4.875"/>
						
							<rect x="236.841" y="338.742" transform="matrix(-1 -1.224647e-16 1.224647e-16 -1 482.2801 682.359)" style="fill:#FAF6A7;" width="8.597" height="4.875"/>
						
							<rect x="223.605" y="338.742" transform="matrix(-1 -1.224647e-16 1.224647e-16 -1 455.8067 682.359)" style="fill:#FAF6A7;" width="8.597" height="4.875"/>
					</g>
					<g>
						<path style="fill:#C9C20F;" d="M274.65,299.831h3.737v-3.999c0-0.995-0.837-1.801-1.869-1.801l0,0
							c-1.032,0-1.869,0.806-1.869,1.801V299.831z"/>
						<path style="fill:#DED610;" d="M278.388,299.831h3.737v-3.999c0-0.995-0.837-1.801-1.869-1.801l0,0
							c-1.032,0-1.869,0.806-1.869,1.801V299.831z"/>
						<path style="fill:#C9C20F;" d="M282.125,299.831h3.737v-3.999c0-0.995-0.837-1.801-1.869-1.801l0,0
							c-1.032,0-1.869,0.806-1.869,1.801V299.831z"/>
						<path style="fill:#DED610;" d="M285.863,299.831h3.737v-3.999c0-0.995-0.837-1.801-1.869-1.801l0,0
							c-1.032,0-1.869,0.806-1.869,1.801V299.831z"/>
						<path style="fill:#C9C20F;" d="M289.6,299.831h3.737v-3.999c0-0.995-0.837-1.801-1.869-1.801l0,0
							c-1.032,0-1.869,0.806-1.869,1.801V299.831z"/>
						<path style="fill:#DED610;" d="M293.337,299.831h3.738v-3.999c0-0.995-0.837-1.801-1.869-1.801l0,0
							c-1.032,0-1.869,0.806-1.869,1.801V299.831z"/>
						<path style="fill:#C9C20F;" d="M297.075,299.831h3.737v-3.999c0-0.995-0.837-1.801-1.869-1.801l0,0
							c-1.032,0-1.869,0.806-1.869,1.801V299.831z"/>
						<path style="fill:#DED610;" d="M300.812,299.831h3.737v-3.999c0-0.995-0.837-1.801-1.869-1.801l0,0
							c-1.032,0-1.869,0.806-1.869,1.801V299.831z"/>
						<path style="fill:#C9C20F;" d="M304.549,299.831h3.737v-3.999c0-0.995-0.837-1.801-1.869-1.801l0,0
							c-1.032,0-1.869,0.806-1.869,1.801V299.831z"/>
						<path style="fill:#DED610;" d="M308.287,299.831h3.737v-3.999c0-0.995-0.837-1.801-1.869-1.801l0,0
							c-1.032,0-1.869,0.806-1.869,1.801V299.831z"/>
						<path style="fill:#C9C20F;" d="M312.024,299.831h3.737v-3.999c0-0.995-0.837-1.801-1.869-1.801l0,0
							c-1.032,0-1.869,0.806-1.869,1.801V299.831z"/>
						<path style="fill:#DED610;" d="M315.773,299.855h3.737v-3.999c0-0.995-0.837-1.801-1.869-1.801l0,0
							c-1.032,0-1.869,0.807-1.869,1.801V299.855z"/>
						<path style="fill:#DED610;" d="M323.247,299.855h3.737v-3.999c0-0.995-0.837-1.801-1.869-1.801l0,0
							c-1.032,0-1.869,0.807-1.869,1.801V299.855z"/>
						<path style="fill:#C9C20F;" d="M319.51,299.855h3.737v-3.999c0-0.995-0.837-1.801-1.869-1.801l0,0
							c-1.032,0-1.869,0.807-1.869,1.801V299.855z"/>
					</g>
				</g>
				<g>
					<path style="fill:#F33C33;" d="M408.339,303.733v67.902h11.919v-36.343c0-6.391,5.181-10.862,11.571-10.862
						c6.391,0,11.572,4.471,11.572,10.862v36.343h21.337v-0.027v-35.452c0-6.239,6.985-16.191,15.602-16.191
						s15.602,9.952,15.602,16.191v35.452v0.027h21.337v-36.343c0-0.819,0.11-1.509,0.31-2.096c0.998-5.249,5.704-8.766,11.368-8.766
						c5.825,0,10.63,3.721,11.438,9.217v0.992c0.01,0.215,0.026,0.418,0.026,0.653v36.343h11.919v-67.902H408.339z"/>
					<rect x="403.839" y="371.635" style="fill:#CF372F;" width="152.464" height="3.214"/>
					<g>
						<g>
							<path style="fill:#962E29;" d="M481.173,311.314h-5.076v-6.643h5.076V311.314z M477.597,309.814h2.076v-3.643h-2.076V309.814
								z"/>
						</g>
						<g>
							<path style="fill:#962E29;" d="M484.581,311.314h-4.908v-6.643h4.908V311.314z M481.173,309.814h1.908v-3.643h-1.908V309.814
								z"/>
						</g>
					</g>
					<g>
						<g>
							<path style="fill:#962E29;" d="M529.515,311.314h-4.908v-6.643h4.908V311.314z M526.107,309.814h1.908v-3.643h-1.908V309.814
								z"/>
						</g>
						<g>
							<path style="fill:#962E29;" d="M533.091,311.314h-5.076v-6.643h5.076V311.314z M529.515,309.814h2.076v-3.643h-2.076V309.814
								z"/>
						</g>
					</g>
					<rect x="451.627" y="296.421" style="fill:none;" width="5.152" height="6.196"/>
					<rect x="503.705" y="296.421" style="fill:none;" width="5.152" height="6.196"/>
					<rect x="477.666" y="296.421" style="fill:none;" width="5.151" height="6.196"/>
					<path style="fill:#F34B42;" d="M531.023,295.421v4.099h-4.349v-4.099h-92.671v4.099h-4.349v-4.099h-21.316v8.196h144v-8.196
						H531.023z M456.779,302.617h-5.152v-6.196h5.152V302.617z M482.818,302.617h-5.151v-6.196h5.151V302.617z M508.857,302.617
						h-5.152v-6.196h5.152V302.617z"/>
					<path style="fill:#962E29;" d="M450.627,295.421v8.196h7.152v-8.196H450.627z M456.779,302.617h-5.152v-6.196h5.152V302.617z"
						/>
					<path style="fill:#962E29;" d="M502.705,295.421v8.196h7.152v-8.196H502.705z M508.857,302.617h-5.152v-6.196h5.152V302.617z"
						/>
					<g>
						<g>
							<path style="fill:#962E29;" d="M432.597,311.314h-5.076v-6.643h5.076V311.314z M429.02,309.814h2.076v-3.643h-2.076V309.814z
								"/>
						</g>
						<g>
							<path style="fill:#962E29;" d="M436.005,311.314h-5.075v-6.643h5.075V311.314z M432.43,309.814h2.075v-3.643h-2.075V309.814z
								"/>
						</g>
					</g>
					<g>
						<path style="fill:#F34B42;" d="M412.665,292.591h-4.366v-4.91c0-1.319,0.977-3.474,2.183-3.474h0
							c1.206,0,2.183,2.154,2.183,3.474V292.591z"/>
						<path style="fill:#F33C33;" d="M417.031,292.591h-4.366v-4.91c0-1.319,0.977-3.474,2.183-3.474l0,0
							c1.206,0,2.183,2.154,2.183,3.474V292.591z"/>
						<path style="fill:#F34B42;" d="M421.397,292.591h-4.366v-4.91c0-1.319,0.977-3.474,2.183-3.474l0,0
							c1.206,0,2.183,2.154,2.183,3.474V292.591z"/>
						<path style="fill:#F33C33;" d="M425.763,292.591h-4.366v-4.91c0-1.319,0.977-3.474,2.183-3.474l0,0
							c1.206,0,2.183,2.154,2.183,3.474V292.591z"/>
						<path style="fill:#F34B42;" d="M430.129,292.591h-4.366v-4.91c0-1.319,0.977-3.474,2.183-3.474l0,0
							c1.206,0,2.183,2.154,2.183,3.474V292.591z"/>
						<path style="fill:#F33C33;" d="M434.495,292.591h-4.366v-4.91c0-1.319,0.977-3.474,2.183-3.474l0,0
							c1.206,0,2.183,2.154,2.183,3.474V292.591z"/>
						<path style="fill:#F34B42;" d="M438.861,292.591h-4.366v-4.91c0-1.319,0.977-3.474,2.183-3.474l0,0
							c1.206,0,2.183,2.154,2.183,3.474V292.591z"/>
						<path style="fill:#F33C33;" d="M443.228,292.591h-4.366v-4.91c0-1.319,0.977-3.474,2.183-3.474h0
							c1.206,0,2.183,2.154,2.183,3.474V292.591z"/>
						<path style="fill:#F34B42;" d="M447.594,292.591h-4.366v-4.91c0-1.319,0.977-3.474,2.183-3.474l0,0
							c1.206,0,2.183,2.154,2.183,3.474V292.591z"/>
						<path style="fill:#F33C33;" d="M451.96,292.591h-4.366v-4.91c0-1.319,0.977-3.474,2.183-3.474l0,0
							c1.206,0,2.183,2.154,2.183,3.474V292.591z"/>
						<path style="fill:#F34B42;" d="M456.326,292.591h-4.366v-4.91c0-1.319,0.977-3.474,2.183-3.474l0,0
							c1.206,0,2.183,2.154,2.183,3.474V292.591z"/>
						<path style="fill:#F33C33;" d="M460.692,292.591h-4.366v-4.91c0-1.319,0.977-3.474,2.183-3.474l0,0
							c1.206,0,2.183,2.154,2.183,3.474V292.591z"/>
						<path style="fill:#F34B42;" d="M465.058,292.591h-4.366v-4.91c0-1.319,0.977-3.474,2.183-3.474l0,0
							c1.206,0,2.183,2.154,2.183,3.474V292.591z"/>
						<path style="fill:#F33C33;" d="M469.424,292.591h-4.366v-4.91c0-1.319,0.977-3.474,2.183-3.474l0,0
							c1.206,0,2.183,2.154,2.183,3.474V292.591z"/>
						<path style="fill:#F34B42;" d="M473.79,292.591h-4.366v-4.91c0-1.319,0.977-3.474,2.183-3.474h0
							c1.206,0,2.183,2.154,2.183,3.474V292.591z"/>
						<path style="fill:#F34B42;" d="M491.254,292.591h-4.366v-4.91c0-1.319,0.977-3.474,2.183-3.474l0,0
							c1.206,0,2.183,2.154,2.183,3.474V292.591z"/>
						<path style="fill:#F33C33;" d="M495.62,292.591h-4.366v-4.91c0-1.319,0.977-3.474,2.183-3.474l0,0
							c1.206,0,2.183,2.154,2.183,3.474V292.591z"/>
						<path style="fill:#F34B42;" d="M499.986,292.591h-4.366v-4.91c0-1.319,0.977-3.474,2.183-3.474l0,0
							c1.206,0,2.183,2.154,2.183,3.474V292.591z"/>
						<path style="fill:#F33C33;" d="M504.353,292.591h-4.366v-4.91c0-1.319,0.977-3.474,2.183-3.474h0
							c1.206,0,2.183,2.154,2.183,3.474V292.591z"/>
						<path style="fill:#F34B42;" d="M508.719,292.591h-4.366v-4.91c0-1.319,0.977-3.474,2.183-3.474l0,0
							c1.206,0,2.183,2.154,2.183,3.474V292.591z"/>
						<path style="fill:#F33C33;" d="M513.085,292.591h-4.366v-4.91c0-1.319,0.977-3.474,2.183-3.474l0,0
							c1.206,0,2.183,2.154,2.183,3.474V292.591z"/>
						<path style="fill:#F34B42;" d="M517.451,292.591h-4.366v-4.91c0-1.319,0.977-3.474,2.183-3.474l0,0
							c1.206,0,2.183,2.154,2.183,3.474V292.591z"/>
						<path style="fill:#F33C33;" d="M521.817,292.591h-4.366v-4.91c0-1.319,0.977-3.474,2.183-3.474l0,0
							c1.206,0,2.183,2.154,2.183,3.474V292.591z"/>
						<path style="fill:#F34B42;" d="M526.183,292.591h-4.366v-4.91c0-1.319,0.977-3.474,2.183-3.474l0,0
							c1.206,0,2.183,2.154,2.183,3.474V292.591z"/>
						<path style="fill:#F33C33;" d="M530.549,292.591h-4.366v-4.91c0-1.319,0.977-3.474,2.183-3.474l0,0
							c1.206,0,2.183,2.154,2.183,3.474V292.591z"/>
						<path style="fill:#F34B42;" d="M534.915,292.591h-4.366v-4.91c0-1.319,0.977-3.474,2.183-3.474h0
							c1.206,0,2.183,2.154,2.183,3.474V292.591z"/>
						<path style="fill:#F33C33;" d="M539.281,292.591h-4.366v-4.91c0-1.319,0.977-3.474,2.183-3.474l0,0
							c1.206,0,2.183,2.154,2.183,3.474V292.591z"/>
						<path style="fill:#F34B42;" d="M543.647,292.591h-4.366v-4.91c0-1.319,0.977-3.474,2.183-3.474l0,0
							c1.206,0,2.183,2.154,2.183,3.474V292.591z"/>
						<path style="fill:#F33C33;" d="M548.013,292.591h-4.366v-4.91c0-1.319,0.977-3.474,2.183-3.474l0,0
							c1.206,0,2.183,2.154,2.183,3.474V292.591z"/>
						<path style="fill:#F34B42;" d="M552.379,292.591h-4.366v-4.91c0-1.319,0.977-3.474,2.183-3.474l0,0
							c1.206,0,2.183,2.154,2.183,3.474V292.591z"/>
					</g>
					<g>
						<g>
							<rect x="501.352" y="310.323" style="fill:#F34B42;" width="9.857" height="61.286"/>
							<rect x="501.352" y="322.323" style="fill:#F56D66;" width="9.857" height="11.143"/>
							<rect x="501.352" y="310.323" style="fill:#F34B42;" width="9.857" height="12"/>
							<path style="fill:#B83832;" d="M508.37,321.162h-4.179v-6.036c0-1.154,0.935-2.089,2.089-2.089l0,0
								c1.154,0,2.089,0.935,2.089,2.089V321.162z"/>
							<path style="fill:#B83832;" d="M508.37,332.555h-4.179v-6.036c0-1.154,0.935-2.089,2.089-2.089l0,0
								c1.154,0,2.089,0.935,2.089,2.089V332.555z"/>
							<rect x="501.352" y="345.466" style="fill:#F56D66;" width="9.857" height="11.143"/>
							<rect x="501.352" y="333.466" style="fill:#F34B42;" width="9.857" height="12"/>
							<path style="fill:#B83832;" d="M508.37,344.305h-4.179v-6.036c0-1.154,0.935-2.089,2.089-2.089l0,0
								c1.154,0,2.089,0.935,2.089,2.089V344.305z"/>
							<path style="fill:#B83832;" d="M508.37,367.448h-4.179v-6.036c0-1.154,0.935-2.089,2.089-2.089l0,0
								c1.154,0,2.089,0.935,2.089,2.089V367.448z"/>
							<path style="fill:#B83832;" d="M508.37,355.742h-4.179v-6.036c0-1.154,0.935-2.089,2.089-2.089l0,0
								c1.154,0,2.089,0.935,2.089,2.089V355.742z"/>
						</g>
						<rect x="500.027" y="308.903" style="fill:#B83832;" width="12.576" height="1.42"/>
						<rect x="500.469" y="307.483" style="fill:#962E29;" width="11.692" height="1.42"/>
						<rect x="501.031" y="306.064" style="fill:#B83832;" width="10.567" height="1.42"/>
						<rect x="503.924" y="304.644" style="fill:#962E29;" width="4.821" height="1.42"/>
						<rect x="502.852" y="321.894" style="fill:#962E29;" width="6.911" height="0.75"/>
						<rect x="502.852" y="333.091" style="fill:#962E29;" width="6.911" height="0.75"/>
						<rect x="502.852" y="345.091" style="fill:#962E29;" width="6.911" height="0.75"/>
						<rect x="502.852" y="356.233" style="fill:#962E29;" width="6.911" height="0.75"/>
						<rect x="502.852" y="368.133" style="fill:#962E29;" width="6.911" height="0.75"/>
					</g>
					<g>
						<g>
							<rect x="449.221" y="310.323" style="fill:#F34B42;" width="9.857" height="61.286"/>
							<rect x="449.221" y="322.323" style="fill:#F56D66;" width="9.857" height="11.143"/>
							<rect x="449.221" y="310.323" style="fill:#F34B42;" width="9.857" height="12"/>
							<path style="fill:#B83832;" d="M456.239,321.162h-4.179v-6.036c0-1.154,0.935-2.089,2.089-2.089l0,0
								c1.154,0,2.089,0.935,2.089,2.089V321.162z"/>
							<path style="fill:#B83832;" d="M456.239,332.555h-4.179v-6.036c0-1.154,0.935-2.089,2.089-2.089l0,0
								c1.154,0,2.089,0.935,2.089,2.089V332.555z"/>
							<rect x="449.221" y="345.466" style="fill:#F56D66;" width="9.857" height="11.143"/>
							<rect x="449.221" y="333.466" style="fill:#F34B42;" width="9.857" height="12"/>
							<path style="fill:#B83832;" d="M456.239,344.305h-4.179v-6.036c0-1.154,0.935-2.089,2.089-2.089l0,0
								c1.154,0,2.089,0.935,2.089,2.089V344.305z"/>
							<path style="fill:#B83832;" d="M456.239,367.448h-4.179v-6.036c0-1.154,0.935-2.089,2.089-2.089l0,0
								c1.154,0,2.089,0.935,2.089,2.089V367.448z"/>
							<path style="fill:#B83832;" d="M456.239,355.742h-4.179v-6.036c0-1.154,0.935-2.089,2.089-2.089l0,0
								c1.154,0,2.089,0.935,2.089,2.089V355.742z"/>
						</g>
						<rect x="447.895" y="308.903" style="fill:#B83832;" width="12.576" height="1.42"/>
						<rect x="448.337" y="307.483" style="fill:#962E29;" width="11.692" height="1.42"/>
						<rect x="448.899" y="306.064" style="fill:#B83832;" width="10.567" height="1.42"/>
						<rect x="451.792" y="304.644" style="fill:#962E29;" width="4.821" height="1.42"/>
						<rect x="450.721" y="321.894" style="fill:#962E29;" width="6.911" height="0.75"/>
						<rect x="450.721" y="333.091" style="fill:#962E29;" width="6.911" height="0.75"/>
						<rect x="450.721" y="345.091" style="fill:#962E29;" width="6.911" height="0.75"/>
						<rect x="450.721" y="356.233" style="fill:#962E29;" width="6.911" height="0.75"/>
						<rect x="450.721" y="368.133" style="fill:#962E29;" width="6.911" height="0.75"/>
					</g>
					<path style="fill:#962E29;" d="M418.757,335.292c0-7.048,5.619-12.362,13.071-12.362c6.7,0,12.014,4.317,12.924,10.5
						l0.015,38.206h1l-0.005-38.208l-0.021-0.145c-0.983-6.685-6.705-11.354-13.913-11.354c-8.022,0-14.071,5.744-14.071,13.362
						v36.343h1V335.292z"/>
					<path style="fill:#962E29;" d="M515.844,335.292c0-7.048,5.619-12.362,13.071-12.362c6.7,0,12.014,4.317,12.924,10.5
						l0.015,38.206h1l-0.005-38.208l-0.021-0.145c-0.983-6.685-6.705-11.354-13.913-11.354c-8.021,0-14.071,5.744-14.071,13.362
						v36.343h1V335.292z"/>
					<rect x="417.459" y="317.1" style="fill:#962E29;" width="28.607" height="1.045"/>
					<rect x="514.545" y="317.1" style="fill:#962E29;" width="28.607" height="1.045"/>
					<path style="fill:#962E29;" d="M463.237,336.156c0-6.959,7.344-17.69,17.102-17.69c9.759,0,17.103,10.731,17.103,17.69v35.479
						h1v-35.479c0-7.352-7.773-18.69-18.103-18.69c-10.328,0-18.102,11.338-18.102,18.69v35.479h1V336.156z"/>
					<path style="fill:#962E29;" d="M480.339,319.966c-8.617,0-15.602,9.952-15.602,16.191v35.452h31.204v-35.452
						C495.941,329.918,488.956,319.966,480.339,319.966z"/>
					<rect x="466.036" y="313.867" style="fill:#962E29;" width="28.607" height="1.045"/>
					<rect x="523.21" y="300.519" style="fill:#B83832;" width="11.746" height="1.232"/>
					<rect x="522.674" y="301.751" style="fill:#962E29;" width="12.803" height="1.232"/>
					<rect x="523.21" y="300.519" style="fill:#B83832;" width="11.746" height="1.232"/>
					<rect x="522.674" y="301.751" style="fill:#962E29;" width="12.803" height="1.232"/>
					<rect x="425.897" y="300.519" style="fill:#B83832;" width="11.746" height="1.232"/>
					<rect x="425.361" y="301.751" style="fill:#962E29;" width="12.804" height="1.232"/>
					<path style="fill:#962E29;" d="M476.666,295.421v8.196h7.152v-8.196H476.666z M482.818,302.617h-5.151v-6.196h5.151V302.617z"
						/>
					<g>
						<path style="fill:#F56D66;" d="M552.34,304.483h-144c-0.414,0-0.75-0.336-0.75-0.75c0-0.414,0.336-0.75,0.75-0.75h144
							c0.414,0,0.75,0.336,0.75,0.75C553.09,304.147,552.754,304.483,552.34,304.483z"/>
					</g>
					<path style="fill:#962E29;" d="M525.675,293.367v7.152h6.348v-7.152H525.675z M531.023,299.52h-4.349v-5.152h4.349V299.52z"/>
					<path style="fill:#962E29;" d="M428.655,293.367v7.152h6.348v-7.152H428.655z M434.004,299.52h-4.349v-5.152h4.349V299.52z"/>
					<path style="fill:#962E29;" d="M428.655,293.367v7.152h6.348v-7.152H428.655z M434.004,299.52h-4.349v-5.152h4.349V299.52z"/>
					<path style="fill:#F56D66;" d="M553.309,292.591H407.718c-0.419,0-0.758,0.634-0.758,1.415s0.34,1.415,0.758,1.415h20.937
						v-2.054h6.348v2.054h90.672v-2.054h6.348v2.054h21.285c0.419,0,0.758-0.634,0.758-1.415S553.727,292.591,553.309,292.591z"/>
					<g>
						<rect x="412.102" y="296.421" style="fill:#C93F37;" width="11.143" height="5.331"/>
						
							<rect x="416.009" y="294.514" transform="matrix(-1.836970e-16 1 -1 -1.836970e-16 716.76 -118.5881)" style="fill:#B83832;" width="3.33" height="9.143"/>
					</g>
					<g>
						<rect x="438.563" y="296.421" style="fill:#C93F37;" width="11.143" height="5.331"/>
						
							<rect x="442.47" y="294.514" transform="matrix(-1.836970e-16 1 -1 -1.836970e-16 743.2207 -145.0488)" style="fill:#B83832;" width="3.33" height="9.143"/>
					</g>
					<g>
						<rect x="461.651" y="296.421" style="fill:#C93F37;" width="11.143" height="5.331"/>
						
							<rect x="465.557" y="294.514" transform="matrix(-1.836970e-16 1 -1 -1.836970e-16 766.3085 -168.1366)" style="fill:#B83832;" width="3.33" height="9.143"/>
					</g>
					<g>
						<rect x="487.69" y="296.421" style="fill:#C93F37;" width="11.143" height="5.331"/>
						
							<rect x="491.597" y="294.514" transform="matrix(-1.836970e-16 1 -1 -1.836970e-16 792.3477 -194.1757)" style="fill:#B83832;" width="3.33" height="9.144"/>
					</g>
					<g>
						<rect x="510.962" y="296.421" style="fill:#C93F37;" width="11.143" height="5.331"/>
						
							<rect x="514.868" y="294.514" transform="matrix(-1.836970e-16 1 -1 -1.836970e-16 815.6193 -217.4474)" style="fill:#B83832;" width="3.33" height="9.144"/>
					</g>
					<g>
						<rect x="537.581" y="296.421" style="fill:#C93F37;" width="11.143" height="5.331"/>
						
							<rect x="541.488" y="294.514" transform="matrix(-1.836970e-16 1 -1 -1.836970e-16 842.2386 -244.0667)" style="fill:#B83832;" width="3.33" height="9.144"/>
					</g>
					<path style="fill:#962E29;" d="M431.829,324.43c-6.391,0-11.571,4.471-11.571,10.862v36.343h23.143v-36.343
						C443.401,328.901,438.22,324.43,431.829,324.43z"/>
					<path style="fill:#962E29;" d="M540.394,334.639v-0.992c-0.808-5.497-5.614-9.217-11.438-9.217
						c-5.665,0-10.37,3.517-11.368,8.766c-0.2,0.587-0.31,1.277-0.31,2.096v36.343h23.143v-36.343
						C540.421,335.057,540.404,334.854,540.394,334.639z"/>
				</g>
				<g>
					<rect x="613.918" y="254.421" style="fill:#AB96F2;" width="45.913" height="1.097"/>
					<g>
						<rect x="564.364" y="365.877" style="fill:#7A6BAD;" width="143.872" height="2.991"/>
						<rect x="562.082" y="368.868" style="fill:#AB96F2;" width="148.435" height="2.991"/>
						<rect x="558.988" y="371.859" style="fill:#9784D6;" width="154.623" height="2.991"/>
					</g>
					<rect x="610.13" y="329.689" style="fill:#AB96F2;" width="52.339" height="36.188"/>
					<rect x="629.065" y="341.802" style="fill:#7A6BAD;" width="14.468" height="24.076"/>
					<g>
						<rect x="630.198" y="343.222" style="fill:#65588F;" width="5.624" height="21.833"/>
						<rect x="636.777" y="343.222" style="fill:#65588F;" width="5.624" height="21.833"/>
					</g>
					<g>
						<rect x="614.317" y="340.406" style="fill:#7A6BAD;" width="7.477" height="8.823"/>
						<rect x="649.608" y="340.406" style="fill:#7A6BAD;" width="7.477" height="8.823"/>
					</g>
					<g>
						<rect x="613.619" y="332.082" style="fill:#7A6BAD;" width="4.087" height="4.087"/>
						<rect x="619.377" y="332.082" style="fill:#7A6BAD;" width="4.087" height="4.087"/>
						<rect x="647.639" y="332.082" style="fill:#7A6BAD;" width="4.087" height="4.087"/>
						<rect x="653.397" y="332.082" style="fill:#7A6BAD;" width="4.087" height="4.087"/>
					</g>
					<rect x="596.472" y="329.689" style="fill:#9784D6;" width="13.658" height="36.188"/>
					<rect x="578.876" y="334.125" style="fill:#9784D6;" width="17.596" height="31.752"/>
					<polygon style="fill:#7A6BAD;" points="598.167,331.334 598.167,329.689 596.622,329.689 594.429,329.689 592.784,329.689 
						592.784,331.334 594.429,331.334 594.429,364.232 592.784,364.232 592.784,365.877 594.429,365.877 596.622,365.877 
						598.167,365.877 598.167,364.232 596.622,364.232 596.622,331.334 					"/>
					<rect x="584.11" y="341.802" style="fill:#64598F;" width="7.377" height="24.076"/>
					<g>
						<polygon style="fill:#64598F;" points="594.541,334.125 575.661,334.125 577.29,332.68 594.541,332.68 						"/>
						<rect x="577.299" y="332.194" style="fill:#7264A1;" width="17.241" height="0.486"/>
						<rect x="577.758" y="331.708" style="fill:#64598F;" width="16.783" height="0.486"/>
					</g>
					
						<rect x="579.824" y="334.125" transform="matrix(-1 -1.224647e-16 1.224647e-16 -1 1177.2429 700.0025)" style="fill:#9784D6;" width="17.596" height="31.752"/>
					<polygon style="fill:#7A6BAD;" points="593.681,335.568 593.681,334.125 595.226,334.125 597.419,334.125 599.064,334.125 
						599.064,335.568 597.419,335.568 597.419,364.434 599.064,364.434 599.064,365.877 597.419,365.877 595.226,365.877 
						593.681,365.877 593.681,364.434 595.226,364.434 595.226,335.568 					"/>
					
						<rect x="584.808" y="341.802" transform="matrix(-1 -1.224647e-16 1.224647e-16 -1 1176.9937 707.6788)" style="fill:#64598F;" width="7.377" height="24.076"/>
					<g>
						<polygon style="fill:#64598F;" points="581.755,334.125 600.634,334.125 599.006,332.68 581.755,332.68 						"/>
						
							<rect x="581.755" y="332.194" transform="matrix(-1 -1.224647e-16 1.224647e-16 -1 1180.7515 664.8732)" style="fill:#7264A1;" width="17.241" height="0.486"/>
						
							<rect x="581.755" y="331.708" transform="matrix(-1 -1.224647e-16 1.224647e-16 -1 1180.2933 663.9012)" style="fill:#64598F;" width="16.783" height="0.486"/>
					</g>
					
						<rect x="662.469" y="329.689" transform="matrix(-1 -1.224647e-16 1.224647e-16 -1 1338.5955 695.5661)" style="fill:#9784D6;" width="13.658" height="36.188"/>
					
						<rect x="676.127" y="334.125" transform="matrix(-1 -1.224647e-16 1.224647e-16 -1 1369.8491 700.0025)" style="fill:#9784D6;" width="17.596" height="31.752"/>
					<polygon style="fill:#7A6BAD;" points="689.984,335.568 689.984,334.125 691.529,334.125 693.722,334.125 695.367,334.125 
						695.367,335.568 693.722,335.568 693.722,364.434 695.367,364.434 695.367,365.877 693.722,365.877 691.529,365.877 
						689.984,365.877 689.984,364.434 691.529,364.434 691.529,335.568 					"/>
					<polygon style="fill:#7A6BAD;" points="674.432,331.334 674.432,329.689 675.977,329.689 678.17,329.689 679.815,329.689 
						679.815,331.334 678.17,331.334 678.17,364.232 679.815,364.232 679.815,365.877 678.17,365.877 675.977,365.877 
						674.432,365.877 674.432,364.232 675.977,364.232 675.977,331.334 					"/>
					
						<rect x="681.111" y="341.802" transform="matrix(-1 -1.224647e-16 1.224647e-16 -1 1369.6 707.6788)" style="fill:#64598F;" width="7.377" height="24.076"/>
					<g>
						
							<rect x="693.722" y="346.437" transform="matrix(-1 -1.224647e-16 1.224647e-16 -1 1396.866 712.3145)" style="fill:#9784D6;" width="9.421" height="19.44"/>
						<polygon style="fill:#7A6BAD;" points="700.452,347.321 700.452,346.437 701.997,346.437 704.19,346.437 705.835,346.437 
							705.835,347.321 704.19,347.321 704.19,364.994 705.835,364.994 705.835,365.877 704.19,365.877 701.997,365.877 
							700.452,365.877 700.452,364.994 701.997,364.994 701.997,347.321 						"/>
						
							<rect x="696.165" y="351.522" transform="matrix(-1 -1.224647e-16 1.224647e-16 -1 1396.0186 717.3988)" style="fill:#64598F;" width="3.689" height="14.356"/>
						<polygon style="fill:#64598F;" points="693.722,346.437 706.433,346.437 705.337,344.992 693.722,344.992 						"/>
						
							<rect x="693.722" y="344.506" transform="matrix(-1 -1.224647e-16 1.224647e-16 -1 1399.053 689.4974)" style="fill:#7264A1;" width="11.608" height="0.486"/>
						
							<rect x="693.722" y="344.02" transform="matrix(-1 -1.224647e-16 1.224647e-16 -1 1398.7445 688.5254)" style="fill:#64598F;" width="11.3" height="0.486"/>
					</g>
					<g>
						<rect x="697.012" y="346.437" style="fill:#9784D6;" width="9.421" height="19.44"/>
						<polygon style="fill:#7A6BAD;" points="699.704,347.321 699.704,346.437 698.159,346.437 695.966,346.437 694.321,346.437 
							694.321,347.321 695.966,347.321 695.966,364.994 694.321,364.994 694.321,365.877 695.966,365.877 698.159,365.877 
							699.704,365.877 699.704,364.994 698.159,364.994 698.159,347.321 						"/>
						<rect x="700.302" y="351.522" style="fill:#64598F;" width="3.689" height="14.356"/>
						<polygon style="fill:#64598F;" points="706.433,346.437 693.722,346.437 694.819,344.992 706.433,344.992 						"/>
						<rect x="694.825" y="344.506" style="fill:#7264A1;" width="11.608" height="0.486"/>
						<rect x="695.134" y="344.02" style="fill:#64598F;" width="11.299" height="0.486"/>
					</g>
					<g>
						<rect x="569.456" y="346.437" style="fill:#9784D6;" width="9.421" height="19.44"/>
						<polygon style="fill:#7A6BAD;" points="572.147,347.321 572.147,346.437 570.602,346.437 568.409,346.437 566.764,346.437 
							566.764,347.321 568.409,347.321 568.409,364.994 566.764,364.994 566.764,365.877 568.409,365.877 570.602,365.877 
							572.147,365.877 572.147,364.994 570.602,364.994 570.602,347.321 						"/>
						<rect x="572.745" y="351.522" style="fill:#64598F;" width="3.689" height="14.356"/>
						<polygon style="fill:#64598F;" points="578.876,346.437 566.166,346.437 567.262,344.992 578.876,344.992 						"/>
						<rect x="567.268" y="344.506" style="fill:#7264A1;" width="11.608" height="0.486"/>
						<rect x="567.577" y="344.02" style="fill:#64598F;" width="11.299" height="0.486"/>
					</g>
					<g>
						<polygon style="fill:#64598F;" points="678.058,334.125 696.938,334.125 695.309,332.68 678.058,332.68 						"/>
						
							<rect x="678.058" y="332.194" transform="matrix(-1 -1.224647e-16 1.224647e-16 -1 1373.3578 664.8732)" style="fill:#7264A1;" width="17.241" height="0.486"/>
						
							<rect x="678.058" y="331.708" transform="matrix(-1 -1.224647e-16 1.224647e-16 -1 1372.8997 663.9012)" style="fill:#64598F;" width="16.783" height="0.486"/>
					</g>
					<g>
						<polygon style="fill:#64598F;" points="681.348,329.689 677.371,325.279 639.141,325.279 639.141,325.277 591.893,325.277 
							587.431,329.688 635.253,329.688 635.253,329.689 						"/>
						<polygon style="fill:#7264A1;" points="639.141,323.796 639.141,323.794 591.918,323.794 591.918,325.277 635.253,325.277 
							635.253,325.279 677.349,325.279 677.349,323.796 						"/>
						<polygon style="fill:#64598F;" points="639.141,322.313 639.141,322.312 593.173,322.312 593.173,323.794 635.253,323.794 
							635.253,323.796 676.23,323.796 676.23,322.313 						"/>
					</g>
					<rect x="603.301" y="311.046" style="fill:#AB96F2;" width="65.997" height="11.265"/>
					<g>
						<g>
							<rect x="609.177" y="313.589" style="fill:#7A6BAD;" width="3.439" height="6.281"/>
							<rect x="619.271" y="313.589" style="fill:#7A6BAD;" width="3.439" height="6.281"/>
						</g>
						<g>
							<rect x="649.889" y="313.589" style="fill:#7A6BAD;" width="3.439" height="6.281"/>
							<rect x="659.983" y="313.589" style="fill:#7A6BAD;" width="3.439" height="6.281"/>
						</g>
					</g>
					<rect x="603.301" y="310" style="fill:#9784D6;" width="65.997" height="1.047"/>
					<polygon style="fill:#7A6BAD;" points="669.298,310 603.301,310 605.719,308.953 667.104,308.953 					"/>
					<rect x="605.719" y="297.688" style="fill:#AB96F2;" width="61.535" height="11.265"/>
					<g>
						<rect x="611.038" y="300.23" style="fill:#7A6BAD;" width="3.439" height="6.281"/>
						<rect x="619.271" y="300.23" style="fill:#7A6BAD;" width="3.439" height="6.281"/>
					</g>
					<rect x="649.889" y="300.23" style="fill:#7A6BAD;" width="3.439" height="6.281"/>
					<rect x="658.122" y="300.23" style="fill:#7A6BAD;" width="3.439" height="6.281"/>
					<rect x="605.719" y="296.641" style="fill:#9784D6;" width="61.535" height="1.047"/>
					<polygon style="fill:#7A6BAD;" points="667.254,296.641 605.719,296.641 607.973,295.594 665.209,295.594 					"/>
					<rect x="608.111" y="284.329" style="fill:#AB96F2;" width="57.086" height="11.265"/>
					<g>
						<rect x="612.899" y="286.871" style="fill:#7A6BAD;" width="3.439" height="6.281"/>
						<rect x="621.132" y="286.871" style="fill:#7A6BAD;" width="3.439" height="6.281"/>
					</g>
					<g>
						<rect x="648.028" y="286.871" style="fill:#7A6BAD;" width="3.439" height="6.281"/>
						<rect x="656.261" y="286.871" style="fill:#7A6BAD;" width="3.439" height="6.281"/>
					</g>
					<rect x="608.111" y="283.282" style="fill:#9784D6;" width="57.086" height="1.047"/>
					<polygon style="fill:#7A6BAD;" points="665.198,283.282 608.111,283.282 610.203,282.235 663.301,282.235 					"/>
					<rect x="610.205" y="270.97" style="fill:#AB96F2;" width="53.161" height="11.265"/>
					<g>
						<rect x="614.76" y="273.512" style="fill:#7A6BAD;" width="3.439" height="6.281"/>
						<rect x="622.993" y="273.512" style="fill:#7A6BAD;" width="3.439" height="6.281"/>
					</g>
					<g>
						<rect x="647.097" y="273.512" style="fill:#7A6BAD;" width="3.439" height="6.281"/>
						<rect x="655.33" y="273.512" style="fill:#7A6BAD;" width="3.439" height="6.281"/>
					</g>
					<rect x="610.205" y="269.923" style="fill:#9784D6;" width="53.161" height="1.047"/>
					<polygon style="fill:#7A6BAD;" points="663.366,269.923 610.205,269.923 612.152,268.876 661.599,268.876 					"/>
					<g>
						<rect x="614.76" y="273.512" style="fill:#7A6BAD;" width="3.439" height="6.281"/>
						<rect x="622.993" y="273.512" style="fill:#7A6BAD;" width="3.439" height="6.281"/>
					</g>
					<g>
						<rect x="647.097" y="273.512" style="fill:#7A6BAD;" width="3.439" height="6.281"/>
						<rect x="655.33" y="273.512" style="fill:#7A6BAD;" width="3.439" height="6.281"/>
					</g>
					<rect x="610.205" y="269.923" style="fill:#9784D6;" width="53.161" height="1.047"/>
					<polygon style="fill:#7A6BAD;" points="663.366,269.923 610.205,269.923 612.152,268.876 661.599,268.876 					"/>
					<rect x="612.124" y="257.611" style="fill:#AB96F2;" width="49.348" height="11.265"/>
					<g>
						<rect x="616.352" y="260.153" style="fill:#7A6BAD;" width="3.193" height="6.281"/>
						<rect x="623.994" y="260.153" style="fill:#7A6BAD;" width="3.193" height="6.281"/>
					</g>
					<rect x="612.124" y="256.564" style="fill:#9784D6;" width="49.348" height="1.047"/>
					<polygon style="fill:#7A6BAD;" points="661.472,256.564 612.124,256.564 613.932,255.518 659.832,255.518 					"/>
					<g>
						<rect x="616.352" y="260.153" style="fill:#7A6BAD;" width="3.193" height="6.281"/>
						<rect x="623.994" y="260.153" style="fill:#7A6BAD;" width="3.193" height="6.281"/>
					</g>
					<g>
						<rect x="646.37" y="260.153" style="fill:#7A6BAD;" width="3.193" height="6.281"/>
						<rect x="654.013" y="260.153" style="fill:#7A6BAD;" width="3.193" height="6.281"/>
					</g>
					<rect x="612.124" y="256.564" style="fill:#9784D6;" width="49.348" height="1.047"/>
					<polygon style="fill:#7A6BAD;" points="661.472,256.564 612.124,256.564 613.932,255.518 659.832,255.518 					"/>
					<g>
						<rect x="632.979" y="257.611" style="fill:#7A6BAD;" width="7.303" height="11.265"/>
						<rect x="632.691" y="257.611" style="fill:#64598F;" width="0.577" height="11.265"/>
						<rect x="639.994" y="257.611" style="fill:#64598F;" width="0.577" height="11.265"/>
						<path style="fill:#64598F;" d="M640.138,253.035c-0.116-0.42-0.437-0.471-0.592-0.094l-1.271,3.094l-1.435-5.462
							c-0.084-0.32-0.337-0.32-0.421,0l-1.435,5.462l-1.271-3.094c-0.155-0.377-0.477-0.326-0.592,0.094l-0.859,3.116v1.46h4.367
							h4.367v-1.46L640.138,253.035z"/>
					</g>
					<rect x="634.911" y="260.153" style="fill:#65588F;" width="3.439" height="6.281"/>
					<g>
						<g>
							<rect x="631.638" y="270.97" style="fill:#7A6BAD;" width="9.323" height="11.265"/>
							<rect x="631.27" y="270.97" style="fill:#64598F;" width="0.736" height="11.265"/>
							<rect x="640.593" y="270.97" style="fill:#64598F;" width="0.736" height="11.265"/>
							<path style="fill:#64598F;" d="M640.777,266.394c-0.148-0.42-0.558-0.471-0.756-0.094l-1.622,3.094l-1.831-5.462
								c-0.107-0.32-0.43-0.32-0.537,0l-1.831,5.462l-1.622-3.094c-0.198-0.377-0.608-0.326-0.756,0.094l-1.097,3.116v1.46h5.575
								h5.575v-1.46L640.777,266.394z"/>
						</g>
						<rect x="634.58" y="273.512" style="fill:#65588F;" width="3.439" height="6.281"/>
					</g>
					<g>
						<rect x="630.026" y="284.329" style="fill:#7A6BAD;" width="12.547" height="11.265"/>
						<rect x="629.531" y="284.329" style="fill:#64598F;" width="0.991" height="11.265"/>
						<rect x="642.078" y="284.329" style="fill:#64598F;" width="0.991" height="11.265"/>
						<path style="fill:#64598F;" d="M642.326,279.753c-0.199-0.42-0.752-0.471-1.018-0.094l-2.183,3.094l-2.465-5.462
							c-0.144-0.32-0.579-0.32-0.723,0l-2.465,5.462l-2.183-3.094c-0.266-0.377-0.819-0.326-1.018,0.094l-1.476,3.116v1.46h7.503
							h7.503v-1.46L642.326,279.753z"/>
					</g>
					<rect x="634.58" y="286.871" style="fill:#65588F;" width="3.439" height="6.281"/>
					<g>
						<g>
							<rect x="629.115" y="297.688" style="fill:#7A6BAD;" width="14.369" height="11.265"/>
							<rect x="628.548" y="297.688" style="fill:#64598F;" width="1.134" height="11.265"/>
							<rect x="642.917" y="297.688" style="fill:#64598F;" width="1.135" height="11.265"/>
							<path style="fill:#64598F;" d="M643.201,293.112c-0.228-0.42-0.861-0.471-1.165-0.094l-2.5,3.094l-2.823-5.462
								c-0.165-0.32-0.663-0.32-0.828,0l-2.823,5.462l-2.5-3.094c-0.305-0.377-0.938-0.326-1.165,0.094l-1.69,3.116v1.46h8.592
								h8.592v-1.46L643.201,293.112z"/>
						</g>
						<rect x="634.58" y="300.23" style="fill:#65588F;" width="3.439" height="6.281"/>
					</g>
					<g>
						<g>
							<rect x="627.178" y="311.046" style="fill:#7A6BAD;" width="18.393" height="11.265"/>
							<rect x="627.103" y="311.046" style="fill:#64598F;" width="1.346" height="11.265"/>
							<rect x="644.15" y="311.046" style="fill:#64598F;" width="1.346" height="11.265"/>
							<path style="fill:#64598F;" d="M644.488,306.721c-0.27-0.397-1.021-0.445-1.383-0.089l-2.966,2.925l-3.349-5.163
								c-0.196-0.302-0.786-0.302-0.982,0l-3.349,5.163l-2.966-2.925c-0.361-0.356-1.112-0.308-1.383,0.089l-2.005,2.945v1.38
								h10.193h10.194v-1.38L644.488,306.721z"/>
						</g>
						<rect x="634.58" y="313.589" style="fill:#65588F;" width="3.439" height="6.281"/>
					</g>
					<rect x="613.918" y="247.791" style="fill:#7A6BAD;" width="3.14" height="6.629"/>
					<rect x="656.41" y="247.791" style="fill:#7A6BAD;" width="3.14" height="6.629"/>
					<rect x="656.692" y="247.791" style="fill:#7A6BAD;" width="3.14" height="6.629"/>
					<path style="fill:#AB96F2;" d="M616.75,246.172c-0.042-0.149-0.157-0.167-0.213-0.033l-0.457,1.095l-0.516-1.933
						c-0.03-0.113-0.121-0.113-0.151,0l-0.516,1.933l-0.457-1.095c-0.056-0.133-0.171-0.115-0.213,0.033l-0.309,1.103v0.517h1.57
						h1.57v-0.517L616.75,246.172z"/>
					<path style="fill:#7A6BAD;" d="M659.473,246.164c-0.045-0.149-0.171-0.167-0.232-0.033l-0.498,1.095l-0.562-1.933
						c-0.033-0.113-0.132-0.113-0.165,0l-0.562,1.933l-0.498-1.095c-0.061-0.133-0.187-0.116-0.232,0.033l-0.336,1.103v0.517h1.711
						h1.711v-0.517L659.473,246.164z"/>
					<path style="fill:#AB96F2;" d="M659.495,246.164c-0.045-0.149-0.171-0.167-0.232-0.033l-0.498,1.095l-0.562-1.933
						c-0.033-0.113-0.132-0.113-0.165,0l-0.562,1.933l-0.498-1.095c-0.061-0.133-0.187-0.116-0.232,0.033l-0.337,1.103v0.517h1.711
						h1.711v-0.517L659.495,246.164z"/>
				</g>
			</g>
			<path style="fill:#F2F2F2;" d="M716.734,381.429H33.266c-1.775,0-3.214-1.439-3.214-3.214l0,0c0-1.775,1.439-3.214,3.214-3.214
				h683.468c1.775,0,3.214,1.439,3.214,3.214l0,0C719.948,379.99,718.509,381.429,716.734,381.429z"/>
		</g>
	</g>
</g>
</svg>
